G04 #@! TF.GenerationSoftware,KiCad,Pcbnew,(5.1.8)-1*
G04 #@! TF.CreationDate,2022-04-25T19:49:34+02:00*
G04 #@! TF.ProjectId,A2600 Faceplate Basic,41323630-3020-4466-9163-65706c617465,rev?*
G04 #@! TF.SameCoordinates,Original*
G04 #@! TF.FileFunction,Legend,Bot*
G04 #@! TF.FilePolarity,Positive*
%FSLAX46Y46*%
G04 Gerber Fmt 4.6, Leading zero omitted, Abs format (unit mm)*
G04 Created by KiCad (PCBNEW (5.1.8)-1) date 2022-04-25 19:49:34*
%MOMM*%
%LPD*%
G01*
G04 APERTURE LIST*
%ADD10C,0.500000*%
%ADD11C,0.150000*%
%ADD12C,0.300000*%
%ADD13C,0.010000*%
G04 APERTURE END LIST*
D10*
X179705000Y-40640000D02*
X125095000Y-40640000D01*
X182245000Y-136525000D02*
X182245000Y-43180000D01*
X179705000Y-139065000D02*
G75*
G03*
X182245000Y-136525000I0J2540000D01*
G01*
X122555000Y-43180000D02*
X122555000Y-136525000D01*
X122555000Y-136525000D02*
G75*
G03*
X125095000Y-139065000I2540000J0D01*
G01*
X125095000Y-40640000D02*
G75*
G03*
X122555000Y-43180000I0J-2540000D01*
G01*
X125095000Y-139065000D02*
X179705000Y-139065000D01*
X182245000Y-43180000D02*
G75*
G03*
X179705000Y-40640000I-2540000J0D01*
G01*
D11*
X134897619Y-71683571D02*
X134564285Y-71683571D01*
X134421428Y-72207380D02*
X134897619Y-72207380D01*
X134897619Y-71207380D01*
X134421428Y-71207380D01*
X133516666Y-72207380D02*
X133992857Y-72207380D01*
X133992857Y-71207380D01*
X133230952Y-72159761D02*
X133088095Y-72207380D01*
X132850000Y-72207380D01*
X132754761Y-72159761D01*
X132707142Y-72112142D01*
X132659523Y-72016904D01*
X132659523Y-71921666D01*
X132707142Y-71826428D01*
X132754761Y-71778809D01*
X132850000Y-71731190D01*
X133040476Y-71683571D01*
X133135714Y-71635952D01*
X133183333Y-71588333D01*
X133230952Y-71493095D01*
X133230952Y-71397857D01*
X133183333Y-71302619D01*
X133135714Y-71255000D01*
X133040476Y-71207380D01*
X132802380Y-71207380D01*
X132659523Y-71255000D01*
X132230952Y-71683571D02*
X131897619Y-71683571D01*
X131754761Y-72207380D02*
X132230952Y-72207380D01*
X132230952Y-71207380D01*
X131754761Y-71207380D01*
X140302857Y-69822142D02*
X140088571Y-69893571D01*
X139731428Y-69893571D01*
X139588571Y-69822142D01*
X139517142Y-69750714D01*
X139445714Y-69607857D01*
X139445714Y-69465000D01*
X139517142Y-69322142D01*
X139588571Y-69250714D01*
X139731428Y-69179285D01*
X140017142Y-69107857D01*
X140160000Y-69036428D01*
X140231428Y-68965000D01*
X140302857Y-68822142D01*
X140302857Y-68679285D01*
X140231428Y-68536428D01*
X140160000Y-68465000D01*
X140017142Y-68393571D01*
X139660000Y-68393571D01*
X139445714Y-68465000D01*
X139017142Y-68393571D02*
X138160000Y-68393571D01*
X138588571Y-69893571D02*
X138588571Y-68393571D01*
X137731428Y-69465000D02*
X137017142Y-69465000D01*
X137874285Y-69893571D02*
X137374285Y-68393571D01*
X136874285Y-69893571D01*
X135517142Y-69750714D02*
X135588571Y-69822142D01*
X135802857Y-69893571D01*
X135945714Y-69893571D01*
X136160000Y-69822142D01*
X136302857Y-69679285D01*
X136374285Y-69536428D01*
X136445714Y-69250714D01*
X136445714Y-69036428D01*
X136374285Y-68750714D01*
X136302857Y-68607857D01*
X136160000Y-68465000D01*
X135945714Y-68393571D01*
X135802857Y-68393571D01*
X135588571Y-68465000D01*
X135517142Y-68536428D01*
X134874285Y-69893571D02*
X134874285Y-68393571D01*
X134017142Y-69893571D02*
X134660000Y-69036428D01*
X134017142Y-68393571D02*
X134874285Y-69250714D01*
X136695714Y-79910714D02*
X136767142Y-79982142D01*
X136981428Y-80053571D01*
X137124285Y-80053571D01*
X137338571Y-79982142D01*
X137481428Y-79839285D01*
X137552857Y-79696428D01*
X137624285Y-79410714D01*
X137624285Y-79196428D01*
X137552857Y-78910714D01*
X137481428Y-78767857D01*
X137338571Y-78625000D01*
X137124285Y-78553571D01*
X136981428Y-78553571D01*
X136767142Y-78625000D01*
X136695714Y-78696428D01*
X140398571Y-71862142D02*
X141541428Y-71862142D01*
X141255714Y-72147857D02*
X141541428Y-71862142D01*
X141255714Y-71576428D01*
X150375714Y-71207380D02*
X149804285Y-71207380D01*
X150090000Y-72207380D02*
X150090000Y-71207380D01*
X149470952Y-72207380D02*
X149470952Y-71207380D01*
X149470952Y-71683571D02*
X148899523Y-71683571D01*
X148899523Y-72207380D02*
X148899523Y-71207380D01*
X148423333Y-71683571D02*
X148090000Y-71683571D01*
X147947142Y-72207380D02*
X148423333Y-72207380D01*
X148423333Y-71207380D01*
X147947142Y-71207380D01*
X147518571Y-72207380D02*
X147518571Y-71207380D01*
X146947142Y-72207380D01*
X146947142Y-71207380D01*
X157328571Y-69893571D02*
X157328571Y-68393571D01*
X156757142Y-68393571D01*
X156614285Y-68465000D01*
X156542857Y-68536428D01*
X156471428Y-68679285D01*
X156471428Y-68893571D01*
X156542857Y-69036428D01*
X156614285Y-69107857D01*
X156757142Y-69179285D01*
X157328571Y-69179285D01*
X154971428Y-69893571D02*
X155471428Y-69179285D01*
X155828571Y-69893571D02*
X155828571Y-68393571D01*
X155257142Y-68393571D01*
X155114285Y-68465000D01*
X155042857Y-68536428D01*
X154971428Y-68679285D01*
X154971428Y-68893571D01*
X155042857Y-69036428D01*
X155114285Y-69107857D01*
X155257142Y-69179285D01*
X155828571Y-69179285D01*
X154042857Y-68393571D02*
X153757142Y-68393571D01*
X153614285Y-68465000D01*
X153471428Y-68607857D01*
X153400000Y-68893571D01*
X153400000Y-69393571D01*
X153471428Y-69679285D01*
X153614285Y-69822142D01*
X153757142Y-69893571D01*
X154042857Y-69893571D01*
X154185714Y-69822142D01*
X154328571Y-69679285D01*
X154400000Y-69393571D01*
X154400000Y-68893571D01*
X154328571Y-68607857D01*
X154185714Y-68465000D01*
X154042857Y-68393571D01*
X151971428Y-68465000D02*
X152114285Y-68393571D01*
X152328571Y-68393571D01*
X152542857Y-68465000D01*
X152685714Y-68607857D01*
X152757142Y-68750714D01*
X152828571Y-69036428D01*
X152828571Y-69250714D01*
X152757142Y-69536428D01*
X152685714Y-69679285D01*
X152542857Y-69822142D01*
X152328571Y-69893571D01*
X152185714Y-69893571D01*
X151971428Y-69822142D01*
X151900000Y-69750714D01*
X151900000Y-69250714D01*
X152185714Y-69250714D01*
X150400000Y-69893571D02*
X150900000Y-69179285D01*
X151257142Y-69893571D02*
X151257142Y-68393571D01*
X150685714Y-68393571D01*
X150542857Y-68465000D01*
X150471428Y-68536428D01*
X150400000Y-68679285D01*
X150400000Y-68893571D01*
X150471428Y-69036428D01*
X150542857Y-69107857D01*
X150685714Y-69179285D01*
X151257142Y-69179285D01*
X149828571Y-69465000D02*
X149114285Y-69465000D01*
X149971428Y-69893571D02*
X149471428Y-68393571D01*
X148971428Y-69893571D01*
X148471428Y-69893571D02*
X148471428Y-68393571D01*
X147971428Y-69465000D01*
X147471428Y-68393571D01*
X147471428Y-69893571D01*
X152292857Y-79267857D02*
X152078571Y-79339285D01*
X152007142Y-79410714D01*
X151935714Y-79553571D01*
X151935714Y-79767857D01*
X152007142Y-79910714D01*
X152078571Y-79982142D01*
X152221428Y-80053571D01*
X152792857Y-80053571D01*
X152792857Y-78553571D01*
X152292857Y-78553571D01*
X152150000Y-78625000D01*
X152078571Y-78696428D01*
X152007142Y-78839285D01*
X152007142Y-78982142D01*
X152078571Y-79125000D01*
X152150000Y-79196428D01*
X152292857Y-79267857D01*
X152792857Y-79267857D01*
X156781428Y-71862142D02*
X155638571Y-71862142D01*
X164258571Y-72207380D02*
X164258571Y-71207380D01*
X163449047Y-71683571D02*
X163782380Y-71683571D01*
X163782380Y-72207380D02*
X163782380Y-71207380D01*
X163306190Y-71207380D01*
X171354285Y-69822142D02*
X171140000Y-69893571D01*
X170782857Y-69893571D01*
X170640000Y-69822142D01*
X170568571Y-69750714D01*
X170497142Y-69607857D01*
X170497142Y-69465000D01*
X170568571Y-69322142D01*
X170640000Y-69250714D01*
X170782857Y-69179285D01*
X171068571Y-69107857D01*
X171211428Y-69036428D01*
X171282857Y-68965000D01*
X171354285Y-68822142D01*
X171354285Y-68679285D01*
X171282857Y-68536428D01*
X171211428Y-68465000D01*
X171068571Y-68393571D01*
X170711428Y-68393571D01*
X170497142Y-68465000D01*
X170068571Y-68393571D02*
X169211428Y-68393571D01*
X169640000Y-69893571D02*
X169640000Y-68393571D01*
X168782857Y-69465000D02*
X168068571Y-69465000D01*
X168925714Y-69893571D02*
X168425714Y-68393571D01*
X167925714Y-69893571D01*
X167640000Y-68393571D02*
X166782857Y-68393571D01*
X167211428Y-69893571D02*
X167211428Y-68393571D01*
X166282857Y-68393571D02*
X166282857Y-69607857D01*
X166211428Y-69750714D01*
X166140000Y-69822142D01*
X165997142Y-69893571D01*
X165711428Y-69893571D01*
X165568571Y-69822142D01*
X165497142Y-69750714D01*
X165425714Y-69607857D01*
X165425714Y-68393571D01*
X164782857Y-69822142D02*
X164568571Y-69893571D01*
X164211428Y-69893571D01*
X164068571Y-69822142D01*
X163997142Y-69750714D01*
X163925714Y-69607857D01*
X163925714Y-69465000D01*
X163997142Y-69322142D01*
X164068571Y-69250714D01*
X164211428Y-69179285D01*
X164497142Y-69107857D01*
X164640000Y-69036428D01*
X164711428Y-68965000D01*
X164782857Y-68822142D01*
X164782857Y-68679285D01*
X164711428Y-68536428D01*
X164640000Y-68465000D01*
X164497142Y-68393571D01*
X164140000Y-68393571D01*
X163925714Y-68465000D01*
X167997142Y-79625000D02*
X167282857Y-79625000D01*
X168140000Y-80053571D02*
X167640000Y-78553571D01*
X167140000Y-80053571D01*
X172021428Y-71862142D02*
X170878571Y-71862142D01*
X171450000Y-72433571D02*
X171450000Y-71290714D01*
X164996666Y-85860000D02*
X165091904Y-85812380D01*
X165234761Y-85812380D01*
X165377619Y-85860000D01*
X165472857Y-85955238D01*
X165520476Y-86050476D01*
X165568095Y-86240952D01*
X165568095Y-86383809D01*
X165520476Y-86574285D01*
X165472857Y-86669523D01*
X165377619Y-86764761D01*
X165234761Y-86812380D01*
X165139523Y-86812380D01*
X164996666Y-86764761D01*
X164949047Y-86717142D01*
X164949047Y-86383809D01*
X165139523Y-86383809D01*
X164330000Y-85812380D02*
X164139523Y-85812380D01*
X164044285Y-85860000D01*
X163949047Y-85955238D01*
X163901428Y-86145714D01*
X163901428Y-86479047D01*
X163949047Y-86669523D01*
X164044285Y-86764761D01*
X164139523Y-86812380D01*
X164330000Y-86812380D01*
X164425238Y-86764761D01*
X164520476Y-86669523D01*
X164568095Y-86479047D01*
X164568095Y-86145714D01*
X164520476Y-85955238D01*
X164425238Y-85860000D01*
X164330000Y-85812380D01*
X163615714Y-85812380D02*
X163044285Y-85812380D01*
X163330000Y-86812380D02*
X163330000Y-85812380D01*
X162520476Y-85812380D02*
X162330000Y-85812380D01*
X162234761Y-85860000D01*
X162139523Y-85955238D01*
X162091904Y-86145714D01*
X162091904Y-86479047D01*
X162139523Y-86669523D01*
X162234761Y-86764761D01*
X162330000Y-86812380D01*
X162520476Y-86812380D01*
X162615714Y-86764761D01*
X162710952Y-86669523D01*
X162758571Y-86479047D01*
X162758571Y-86145714D01*
X162710952Y-85955238D01*
X162615714Y-85860000D01*
X162520476Y-85812380D01*
X173282857Y-82998571D02*
X172782857Y-84498571D01*
X172282857Y-82998571D01*
X171854285Y-84070000D02*
X171140000Y-84070000D01*
X171997142Y-84498571D02*
X171497142Y-82998571D01*
X170997142Y-84498571D01*
X169640000Y-84498571D02*
X170140000Y-83784285D01*
X170497142Y-84498571D02*
X170497142Y-82998571D01*
X169925714Y-82998571D01*
X169782857Y-83070000D01*
X169711428Y-83141428D01*
X169640000Y-83284285D01*
X169640000Y-83498571D01*
X169711428Y-83641428D01*
X169782857Y-83712857D01*
X169925714Y-83784285D01*
X170497142Y-83784285D01*
X168997142Y-84498571D02*
X168997142Y-82998571D01*
X168354285Y-84070000D02*
X167640000Y-84070000D01*
X168497142Y-84498571D02*
X167997142Y-82998571D01*
X167497142Y-84498571D01*
X166497142Y-83712857D02*
X166282857Y-83784285D01*
X166211428Y-83855714D01*
X166140000Y-83998571D01*
X166140000Y-84212857D01*
X166211428Y-84355714D01*
X166282857Y-84427142D01*
X166425714Y-84498571D01*
X166997142Y-84498571D01*
X166997142Y-82998571D01*
X166497142Y-82998571D01*
X166354285Y-83070000D01*
X166282857Y-83141428D01*
X166211428Y-83284285D01*
X166211428Y-83427142D01*
X166282857Y-83570000D01*
X166354285Y-83641428D01*
X166497142Y-83712857D01*
X166997142Y-83712857D01*
X164782857Y-84498571D02*
X165497142Y-84498571D01*
X165497142Y-82998571D01*
X164282857Y-83712857D02*
X163782857Y-83712857D01*
X163568571Y-84498571D02*
X164282857Y-84498571D01*
X164282857Y-82998571D01*
X163568571Y-82998571D01*
X162997142Y-84427142D02*
X162782857Y-84498571D01*
X162425714Y-84498571D01*
X162282857Y-84427142D01*
X162211428Y-84355714D01*
X162140000Y-84212857D01*
X162140000Y-84070000D01*
X162211428Y-83927142D01*
X162282857Y-83855714D01*
X162425714Y-83784285D01*
X162711428Y-83712857D01*
X162854285Y-83641428D01*
X162925714Y-83570000D01*
X162997142Y-83427142D01*
X162997142Y-83284285D01*
X162925714Y-83141428D01*
X162854285Y-83070000D01*
X162711428Y-82998571D01*
X162354285Y-82998571D01*
X162140000Y-83070000D01*
X168032857Y-95293571D02*
X168032857Y-93793571D01*
X167675714Y-93793571D01*
X167461428Y-93865000D01*
X167318571Y-94007857D01*
X167247142Y-94150714D01*
X167175714Y-94436428D01*
X167175714Y-94650714D01*
X167247142Y-94936428D01*
X167318571Y-95079285D01*
X167461428Y-95222142D01*
X167675714Y-95293571D01*
X168032857Y-95293571D01*
X171878571Y-86038571D02*
X171021428Y-86895714D01*
X171021428Y-86038571D02*
X171878571Y-86895714D01*
X150494761Y-86812380D02*
X150494761Y-85812380D01*
X150113809Y-85812380D01*
X150018571Y-85860000D01*
X149970952Y-85907619D01*
X149923333Y-86002857D01*
X149923333Y-86145714D01*
X149970952Y-86240952D01*
X150018571Y-86288571D01*
X150113809Y-86336190D01*
X150494761Y-86336190D01*
X148923333Y-86812380D02*
X149256666Y-86336190D01*
X149494761Y-86812380D02*
X149494761Y-85812380D01*
X149113809Y-85812380D01*
X149018571Y-85860000D01*
X148970952Y-85907619D01*
X148923333Y-86002857D01*
X148923333Y-86145714D01*
X148970952Y-86240952D01*
X149018571Y-86288571D01*
X149113809Y-86336190D01*
X149494761Y-86336190D01*
X148494761Y-86812380D02*
X148494761Y-85812380D01*
X148018571Y-86812380D02*
X148018571Y-85812380D01*
X147447142Y-86812380D01*
X147447142Y-85812380D01*
X147113809Y-85812380D02*
X146542380Y-85812380D01*
X146828095Y-86812380D02*
X146828095Y-85812380D01*
X156007142Y-82998571D02*
X155721428Y-82998571D01*
X155578571Y-83070000D01*
X155435714Y-83212857D01*
X155364285Y-83498571D01*
X155364285Y-83998571D01*
X155435714Y-84284285D01*
X155578571Y-84427142D01*
X155721428Y-84498571D01*
X156007142Y-84498571D01*
X156150000Y-84427142D01*
X156292857Y-84284285D01*
X156364285Y-83998571D01*
X156364285Y-83498571D01*
X156292857Y-83212857D01*
X156150000Y-83070000D01*
X156007142Y-82998571D01*
X154721428Y-82998571D02*
X154721428Y-84212857D01*
X154650000Y-84355714D01*
X154578571Y-84427142D01*
X154435714Y-84498571D01*
X154150000Y-84498571D01*
X154007142Y-84427142D01*
X153935714Y-84355714D01*
X153864285Y-84212857D01*
X153864285Y-82998571D01*
X153364285Y-82998571D02*
X152507142Y-82998571D01*
X152935714Y-84498571D02*
X152935714Y-82998571D01*
X152007142Y-84498571D02*
X152007142Y-82998571D01*
X151435714Y-82998571D01*
X151292857Y-83070000D01*
X151221428Y-83141428D01*
X151150000Y-83284285D01*
X151150000Y-83498571D01*
X151221428Y-83641428D01*
X151292857Y-83712857D01*
X151435714Y-83784285D01*
X152007142Y-83784285D01*
X150507142Y-82998571D02*
X150507142Y-84212857D01*
X150435714Y-84355714D01*
X150364285Y-84427142D01*
X150221428Y-84498571D01*
X149935714Y-84498571D01*
X149792857Y-84427142D01*
X149721428Y-84355714D01*
X149650000Y-84212857D01*
X149650000Y-82998571D01*
X149150000Y-82998571D02*
X148292857Y-82998571D01*
X148721428Y-84498571D02*
X148721428Y-82998571D01*
X152721428Y-94507857D02*
X152221428Y-94507857D01*
X152007142Y-95293571D02*
X152721428Y-95293571D01*
X152721428Y-93793571D01*
X152007142Y-93793571D01*
X155638571Y-86467142D02*
X156781428Y-86467142D01*
X156210000Y-86824285D02*
X156138571Y-86895714D01*
X156210000Y-86967142D01*
X156281428Y-86895714D01*
X156210000Y-86824285D01*
X156210000Y-86967142D01*
X156210000Y-85967142D02*
X156138571Y-86038571D01*
X156210000Y-86110000D01*
X156281428Y-86038571D01*
X156210000Y-85967142D01*
X156210000Y-86110000D01*
X133564285Y-85538571D02*
X133564285Y-85610000D01*
X133635714Y-85752857D01*
X133707142Y-85824285D01*
X132992857Y-85538571D02*
X132992857Y-85610000D01*
X133064285Y-85752857D01*
X133135714Y-85824285D01*
X141517142Y-83070000D02*
X141660000Y-82998571D01*
X141874285Y-82998571D01*
X142088571Y-83070000D01*
X142231428Y-83212857D01*
X142302857Y-83355714D01*
X142374285Y-83641428D01*
X142374285Y-83855714D01*
X142302857Y-84141428D01*
X142231428Y-84284285D01*
X142088571Y-84427142D01*
X141874285Y-84498571D01*
X141731428Y-84498571D01*
X141517142Y-84427142D01*
X141445714Y-84355714D01*
X141445714Y-83855714D01*
X141731428Y-83855714D01*
X139945714Y-84498571D02*
X140445714Y-83784285D01*
X140802857Y-84498571D02*
X140802857Y-82998571D01*
X140231428Y-82998571D01*
X140088571Y-83070000D01*
X140017142Y-83141428D01*
X139945714Y-83284285D01*
X139945714Y-83498571D01*
X140017142Y-83641428D01*
X140088571Y-83712857D01*
X140231428Y-83784285D01*
X140802857Y-83784285D01*
X139374285Y-84070000D02*
X138660000Y-84070000D01*
X139517142Y-84498571D02*
X139017142Y-82998571D01*
X138517142Y-84498571D01*
X138017142Y-84498571D02*
X138017142Y-82998571D01*
X137445714Y-82998571D01*
X137302857Y-83070000D01*
X137231428Y-83141428D01*
X137160000Y-83284285D01*
X137160000Y-83498571D01*
X137231428Y-83641428D01*
X137302857Y-83712857D01*
X137445714Y-83784285D01*
X138017142Y-83784285D01*
X136517142Y-84498571D02*
X136517142Y-82998571D01*
X136517142Y-83712857D02*
X135660000Y-83712857D01*
X135660000Y-84498571D02*
X135660000Y-82998571D01*
X134945714Y-84498571D02*
X134945714Y-82998571D01*
X133374285Y-84355714D02*
X133445714Y-84427142D01*
X133660000Y-84498571D01*
X133802857Y-84498571D01*
X134017142Y-84427142D01*
X134160000Y-84284285D01*
X134231428Y-84141428D01*
X134302857Y-83855714D01*
X134302857Y-83641428D01*
X134231428Y-83355714D01*
X134160000Y-83212857D01*
X134017142Y-83070000D01*
X133802857Y-82998571D01*
X133660000Y-82998571D01*
X133445714Y-83070000D01*
X133374285Y-83141428D01*
X132802857Y-84427142D02*
X132588571Y-84498571D01*
X132231428Y-84498571D01*
X132088571Y-84427142D01*
X132017142Y-84355714D01*
X131945714Y-84212857D01*
X131945714Y-84070000D01*
X132017142Y-83927142D01*
X132088571Y-83855714D01*
X132231428Y-83784285D01*
X132517142Y-83712857D01*
X132660000Y-83641428D01*
X132731428Y-83570000D01*
X132802857Y-83427142D01*
X132802857Y-83284285D01*
X132731428Y-83141428D01*
X132660000Y-83070000D01*
X132517142Y-82998571D01*
X132160000Y-82998571D01*
X131945714Y-83070000D01*
X136945714Y-94507857D02*
X137445714Y-94507857D01*
X137445714Y-95293571D02*
X137445714Y-93793571D01*
X136731428Y-93793571D01*
X142612857Y-86812380D02*
X142612857Y-85812380D01*
X142041428Y-86812380D01*
X142041428Y-85812380D01*
X141374761Y-85812380D02*
X141184285Y-85812380D01*
X141089047Y-85860000D01*
X140993809Y-85955238D01*
X140946190Y-86145714D01*
X140946190Y-86479047D01*
X140993809Y-86669523D01*
X141089047Y-86764761D01*
X141184285Y-86812380D01*
X141374761Y-86812380D01*
X141470000Y-86764761D01*
X141565238Y-86669523D01*
X141612857Y-86479047D01*
X141612857Y-86145714D01*
X141565238Y-85955238D01*
X141470000Y-85860000D01*
X141374761Y-85812380D01*
X140660476Y-85812380D02*
X140089047Y-85812380D01*
X140374761Y-86812380D02*
X140374761Y-85812380D01*
X139755714Y-86288571D02*
X139422380Y-86288571D01*
X139279523Y-86812380D02*
X139755714Y-86812380D01*
X139755714Y-85812380D01*
X139279523Y-85812380D01*
X133278571Y-102207142D02*
X133278571Y-102278571D01*
X133350000Y-102421428D01*
X133421428Y-102492857D01*
X140302857Y-98952857D02*
X140802857Y-98952857D01*
X140802857Y-99738571D02*
X140802857Y-98238571D01*
X140088571Y-98238571D01*
X139588571Y-99310000D02*
X138874285Y-99310000D01*
X139731428Y-99738571D02*
X139231428Y-98238571D01*
X138731428Y-99738571D01*
X138302857Y-99667142D02*
X138088571Y-99738571D01*
X137731428Y-99738571D01*
X137588571Y-99667142D01*
X137517142Y-99595714D01*
X137445714Y-99452857D01*
X137445714Y-99310000D01*
X137517142Y-99167142D01*
X137588571Y-99095714D01*
X137731428Y-99024285D01*
X138017142Y-98952857D01*
X138160000Y-98881428D01*
X138231428Y-98810000D01*
X138302857Y-98667142D01*
X138302857Y-98524285D01*
X138231428Y-98381428D01*
X138160000Y-98310000D01*
X138017142Y-98238571D01*
X137660000Y-98238571D01*
X137445714Y-98310000D01*
X137017142Y-98238571D02*
X136160000Y-98238571D01*
X136588571Y-99738571D02*
X136588571Y-98238571D01*
X135660000Y-98952857D02*
X135160000Y-98952857D01*
X134945714Y-99738571D02*
X135660000Y-99738571D01*
X135660000Y-98238571D01*
X134945714Y-98238571D01*
X133445714Y-99738571D02*
X133945714Y-99024285D01*
X134302857Y-99738571D02*
X134302857Y-98238571D01*
X133731428Y-98238571D01*
X133588571Y-98310000D01*
X133517142Y-98381428D01*
X133445714Y-98524285D01*
X133445714Y-98738571D01*
X133517142Y-98881428D01*
X133588571Y-98952857D01*
X133731428Y-99024285D01*
X134302857Y-99024285D01*
X137160000Y-110307380D02*
X137160000Y-109307380D01*
X142112857Y-102052380D02*
X142112857Y-101052380D01*
X141541428Y-102052380D02*
X141970000Y-101480952D01*
X141541428Y-101052380D02*
X142112857Y-101623809D01*
X141112857Y-101528571D02*
X140779523Y-101528571D01*
X140636666Y-102052380D02*
X141112857Y-102052380D01*
X141112857Y-101052380D01*
X140636666Y-101052380D01*
X140017619Y-101576190D02*
X140017619Y-102052380D01*
X140350952Y-101052380D02*
X140017619Y-101576190D01*
X139684285Y-101052380D01*
X148875714Y-102850000D02*
X148804285Y-102778571D01*
X148661428Y-102564285D01*
X148590000Y-102421428D01*
X148518571Y-102207142D01*
X148447142Y-101850000D01*
X148447142Y-101564285D01*
X148518571Y-101207142D01*
X148590000Y-100992857D01*
X148661428Y-100850000D01*
X148804285Y-100635714D01*
X148875714Y-100564285D01*
X156507142Y-99667142D02*
X156292857Y-99738571D01*
X155935714Y-99738571D01*
X155792857Y-99667142D01*
X155721428Y-99595714D01*
X155650000Y-99452857D01*
X155650000Y-99310000D01*
X155721428Y-99167142D01*
X155792857Y-99095714D01*
X155935714Y-99024285D01*
X156221428Y-98952857D01*
X156364285Y-98881428D01*
X156435714Y-98810000D01*
X156507142Y-98667142D01*
X156507142Y-98524285D01*
X156435714Y-98381428D01*
X156364285Y-98310000D01*
X156221428Y-98238571D01*
X155864285Y-98238571D01*
X155650000Y-98310000D01*
X154292857Y-99738571D02*
X155007142Y-99738571D01*
X155007142Y-98238571D01*
X153507142Y-98238571D02*
X153221428Y-98238571D01*
X153078571Y-98310000D01*
X152935714Y-98452857D01*
X152864285Y-98738571D01*
X152864285Y-99238571D01*
X152935714Y-99524285D01*
X153078571Y-99667142D01*
X153221428Y-99738571D01*
X153507142Y-99738571D01*
X153650000Y-99667142D01*
X153792857Y-99524285D01*
X153864285Y-99238571D01*
X153864285Y-98738571D01*
X153792857Y-98452857D01*
X153650000Y-98310000D01*
X153507142Y-98238571D01*
X152364285Y-98238571D02*
X152007142Y-99738571D01*
X151721428Y-98667142D01*
X151435714Y-99738571D01*
X151078571Y-98238571D01*
X150507142Y-98952857D02*
X150007142Y-98952857D01*
X149792857Y-99738571D02*
X150507142Y-99738571D01*
X150507142Y-98238571D01*
X149792857Y-98238571D01*
X148292857Y-99738571D02*
X148792857Y-99024285D01*
X149150000Y-99738571D02*
X149150000Y-98238571D01*
X148578571Y-98238571D01*
X148435714Y-98310000D01*
X148364285Y-98381428D01*
X148292857Y-98524285D01*
X148292857Y-98738571D01*
X148364285Y-98881428D01*
X148435714Y-98952857D01*
X148578571Y-99024285D01*
X149150000Y-99024285D01*
X152828571Y-110533571D02*
X152828571Y-109033571D01*
X152828571Y-109747857D02*
X151971428Y-109747857D01*
X151971428Y-110533571D02*
X151971428Y-109033571D01*
X157971904Y-101052380D02*
X157638571Y-102052380D01*
X157305238Y-101052380D01*
X156971904Y-101528571D02*
X156638571Y-101528571D01*
X156495714Y-102052380D02*
X156971904Y-102052380D01*
X156971904Y-101052380D01*
X156495714Y-101052380D01*
X155495714Y-102052380D02*
X155829047Y-101576190D01*
X156067142Y-102052380D02*
X156067142Y-101052380D01*
X155686190Y-101052380D01*
X155590952Y-101100000D01*
X155543333Y-101147619D01*
X155495714Y-101242857D01*
X155495714Y-101385714D01*
X155543333Y-101480952D01*
X155590952Y-101528571D01*
X155686190Y-101576190D01*
X156067142Y-101576190D01*
X154543333Y-102052380D02*
X155114761Y-102052380D01*
X154829047Y-102052380D02*
X154829047Y-101052380D01*
X154924285Y-101195238D01*
X155019523Y-101290476D01*
X155114761Y-101338095D01*
X170068571Y-99667142D02*
X169854285Y-99738571D01*
X169497142Y-99738571D01*
X169354285Y-99667142D01*
X169282857Y-99595714D01*
X169211428Y-99452857D01*
X169211428Y-99310000D01*
X169282857Y-99167142D01*
X169354285Y-99095714D01*
X169497142Y-99024285D01*
X169782857Y-98952857D01*
X169925714Y-98881428D01*
X169997142Y-98810000D01*
X170068571Y-98667142D01*
X170068571Y-98524285D01*
X169997142Y-98381428D01*
X169925714Y-98310000D01*
X169782857Y-98238571D01*
X169425714Y-98238571D01*
X169211428Y-98310000D01*
X168782857Y-98238571D02*
X167925714Y-98238571D01*
X168354285Y-99738571D02*
X168354285Y-98238571D01*
X167425714Y-98952857D02*
X166925714Y-98952857D01*
X166711428Y-99738571D02*
X167425714Y-99738571D01*
X167425714Y-98238571D01*
X166711428Y-98238571D01*
X166068571Y-99738571D02*
X166068571Y-98238571D01*
X165497142Y-98238571D01*
X165354285Y-98310000D01*
X165282857Y-98381428D01*
X165211428Y-98524285D01*
X165211428Y-98738571D01*
X165282857Y-98881428D01*
X165354285Y-98952857D01*
X165497142Y-99024285D01*
X166068571Y-99024285D01*
X167247142Y-109105000D02*
X167390000Y-109033571D01*
X167604285Y-109033571D01*
X167818571Y-109105000D01*
X167961428Y-109247857D01*
X168032857Y-109390714D01*
X168104285Y-109676428D01*
X168104285Y-109890714D01*
X168032857Y-110176428D01*
X167961428Y-110319285D01*
X167818571Y-110462142D01*
X167604285Y-110533571D01*
X167461428Y-110533571D01*
X167247142Y-110462142D01*
X167175714Y-110390714D01*
X167175714Y-109890714D01*
X167461428Y-109890714D01*
X163544285Y-102850000D02*
X163615714Y-102778571D01*
X163758571Y-102564285D01*
X163830000Y-102421428D01*
X163901428Y-102207142D01*
X163972857Y-101850000D01*
X163972857Y-101564285D01*
X163901428Y-101207142D01*
X163830000Y-100992857D01*
X163758571Y-100850000D01*
X163615714Y-100635714D01*
X163544285Y-100564285D01*
X173235714Y-102052380D02*
X173235714Y-101052380D01*
X173235714Y-101528571D02*
X172664285Y-101528571D01*
X172664285Y-102052380D02*
X172664285Y-101052380D01*
X171997619Y-101052380D02*
X171807142Y-101052380D01*
X171711904Y-101100000D01*
X171616666Y-101195238D01*
X171569047Y-101385714D01*
X171569047Y-101719047D01*
X171616666Y-101909523D01*
X171711904Y-102004761D01*
X171807142Y-102052380D01*
X171997619Y-102052380D01*
X172092857Y-102004761D01*
X172188095Y-101909523D01*
X172235714Y-101719047D01*
X172235714Y-101385714D01*
X172188095Y-101195238D01*
X172092857Y-101100000D01*
X171997619Y-101052380D01*
X170569047Y-102052380D02*
X170902380Y-101576190D01*
X171140476Y-102052380D02*
X171140476Y-101052380D01*
X170759523Y-101052380D01*
X170664285Y-101100000D01*
X170616666Y-101147619D01*
X170569047Y-101242857D01*
X170569047Y-101385714D01*
X170616666Y-101480952D01*
X170664285Y-101528571D01*
X170759523Y-101576190D01*
X171140476Y-101576190D01*
X169616666Y-102052380D02*
X170188095Y-102052380D01*
X169902380Y-102052380D02*
X169902380Y-101052380D01*
X169997619Y-101195238D01*
X170092857Y-101290476D01*
X170188095Y-101338095D01*
X140267142Y-115462857D02*
X139767142Y-115462857D01*
X139552857Y-116248571D02*
X140267142Y-116248571D01*
X140267142Y-114748571D01*
X139552857Y-114748571D01*
X138052857Y-116248571D02*
X138552857Y-115534285D01*
X138910000Y-116248571D02*
X138910000Y-114748571D01*
X138338571Y-114748571D01*
X138195714Y-114820000D01*
X138124285Y-114891428D01*
X138052857Y-115034285D01*
X138052857Y-115248571D01*
X138124285Y-115391428D01*
X138195714Y-115462857D01*
X138338571Y-115534285D01*
X138910000Y-115534285D01*
X137481428Y-115820000D02*
X136767142Y-115820000D01*
X137624285Y-116248571D02*
X137124285Y-114748571D01*
X136624285Y-116248571D01*
X136195714Y-116177142D02*
X135981428Y-116248571D01*
X135624285Y-116248571D01*
X135481428Y-116177142D01*
X135410000Y-116105714D01*
X135338571Y-115962857D01*
X135338571Y-115820000D01*
X135410000Y-115677142D01*
X135481428Y-115605714D01*
X135624285Y-115534285D01*
X135910000Y-115462857D01*
X136052857Y-115391428D01*
X136124285Y-115320000D01*
X136195714Y-115177142D01*
X136195714Y-115034285D01*
X136124285Y-114891428D01*
X136052857Y-114820000D01*
X135910000Y-114748571D01*
X135552857Y-114748571D01*
X135338571Y-114820000D01*
X134695714Y-115462857D02*
X134195714Y-115462857D01*
X133981428Y-116248571D02*
X134695714Y-116248571D01*
X134695714Y-114748571D01*
X133981428Y-114748571D01*
X169890000Y-126408571D02*
X169890000Y-124908571D01*
X169890000Y-125622857D02*
X169032857Y-125622857D01*
X169032857Y-126408571D02*
X169032857Y-124908571D01*
X168390000Y-125980000D02*
X167675714Y-125980000D01*
X168532857Y-126408571D02*
X168032857Y-124908571D01*
X167532857Y-126408571D01*
X166318571Y-126408571D02*
X167032857Y-126408571D01*
X167032857Y-124908571D01*
X166032857Y-124908571D02*
X165175714Y-124908571D01*
X165604285Y-126408571D02*
X165604285Y-124908571D01*
X168747142Y-116248571D02*
X169247142Y-115534285D01*
X169604285Y-116248571D02*
X169604285Y-114748571D01*
X169032857Y-114748571D01*
X168890000Y-114820000D01*
X168818571Y-114891428D01*
X168747142Y-115034285D01*
X168747142Y-115248571D01*
X168818571Y-115391428D01*
X168890000Y-115462857D01*
X169032857Y-115534285D01*
X169604285Y-115534285D01*
X168104285Y-114748571D02*
X168104285Y-115962857D01*
X168032857Y-116105714D01*
X167961428Y-116177142D01*
X167818571Y-116248571D01*
X167532857Y-116248571D01*
X167390000Y-116177142D01*
X167318571Y-116105714D01*
X167247142Y-115962857D01*
X167247142Y-114748571D01*
X166532857Y-116248571D02*
X166532857Y-114748571D01*
X165675714Y-116248571D01*
X165675714Y-114748571D01*
D12*
X161471428Y-62273571D02*
X162185714Y-62273571D01*
X162185714Y-60773571D01*
X160971428Y-61487857D02*
X160471428Y-61487857D01*
X160257142Y-62273571D02*
X160971428Y-62273571D01*
X160971428Y-60773571D01*
X160257142Y-60773571D01*
X159114285Y-61487857D02*
X159614285Y-61487857D01*
X159614285Y-62273571D02*
X159614285Y-60773571D01*
X158900000Y-60773571D01*
X158542857Y-60773571D02*
X157685714Y-60773571D01*
X158114285Y-62273571D02*
X158114285Y-60773571D01*
X155185714Y-62130714D02*
X155257142Y-62202142D01*
X155471428Y-62273571D01*
X155614285Y-62273571D01*
X155828571Y-62202142D01*
X155971428Y-62059285D01*
X156042857Y-61916428D01*
X156114285Y-61630714D01*
X156114285Y-61416428D01*
X156042857Y-61130714D01*
X155971428Y-60987857D01*
X155828571Y-60845000D01*
X155614285Y-60773571D01*
X155471428Y-60773571D01*
X155257142Y-60845000D01*
X155185714Y-60916428D01*
X154257142Y-60773571D02*
X153971428Y-60773571D01*
X153828571Y-60845000D01*
X153685714Y-60987857D01*
X153614285Y-61273571D01*
X153614285Y-61773571D01*
X153685714Y-62059285D01*
X153828571Y-62202142D01*
X153971428Y-62273571D01*
X154257142Y-62273571D01*
X154400000Y-62202142D01*
X154542857Y-62059285D01*
X154614285Y-61773571D01*
X154614285Y-61273571D01*
X154542857Y-60987857D01*
X154400000Y-60845000D01*
X154257142Y-60773571D01*
X152971428Y-62273571D02*
X152971428Y-60773571D01*
X152114285Y-62273571D01*
X152114285Y-60773571D01*
X151614285Y-60773571D02*
X150757142Y-60773571D01*
X151185714Y-62273571D02*
X151185714Y-60773571D01*
X149400000Y-62273571D02*
X149900000Y-61559285D01*
X150257142Y-62273571D02*
X150257142Y-60773571D01*
X149685714Y-60773571D01*
X149542857Y-60845000D01*
X149471428Y-60916428D01*
X149400000Y-61059285D01*
X149400000Y-61273571D01*
X149471428Y-61416428D01*
X149542857Y-61487857D01*
X149685714Y-61559285D01*
X150257142Y-61559285D01*
X148471428Y-60773571D02*
X148185714Y-60773571D01*
X148042857Y-60845000D01*
X147900000Y-60987857D01*
X147828571Y-61273571D01*
X147828571Y-61773571D01*
X147900000Y-62059285D01*
X148042857Y-62202142D01*
X148185714Y-62273571D01*
X148471428Y-62273571D01*
X148614285Y-62202142D01*
X148757142Y-62059285D01*
X148828571Y-61773571D01*
X148828571Y-61273571D01*
X148757142Y-60987857D01*
X148614285Y-60845000D01*
X148471428Y-60773571D01*
X146471428Y-62273571D02*
X147185714Y-62273571D01*
X147185714Y-60773571D01*
X145257142Y-62273571D02*
X145971428Y-62273571D01*
X145971428Y-60773571D01*
X144757142Y-61487857D02*
X144257142Y-61487857D01*
X144042857Y-62273571D02*
X144757142Y-62273571D01*
X144757142Y-60773571D01*
X144042857Y-60773571D01*
X142542857Y-62273571D02*
X143042857Y-61559285D01*
X143400000Y-62273571D02*
X143400000Y-60773571D01*
X142828571Y-60773571D01*
X142685714Y-60845000D01*
X142614285Y-60916428D01*
X142542857Y-61059285D01*
X142542857Y-61273571D01*
X142614285Y-61416428D01*
X142685714Y-61487857D01*
X142828571Y-61559285D01*
X143400000Y-61559285D01*
D13*
G36*
X152287793Y-125838065D02*
G01*
X152292053Y-125785220D01*
X152294832Y-125697843D01*
X152296108Y-125576796D01*
X152295858Y-125422941D01*
X152295152Y-125333620D01*
X152290089Y-124810219D01*
X152567294Y-124799490D01*
X152923961Y-124771016D01*
X153267081Y-124712877D01*
X153602650Y-124623564D01*
X153936663Y-124501571D01*
X154172807Y-124395901D01*
X154455197Y-124246827D01*
X154728905Y-124076204D01*
X154980890Y-123892227D01*
X155003500Y-123874129D01*
X155132306Y-123762817D01*
X155267952Y-123632515D01*
X155405388Y-123489102D01*
X155539568Y-123338460D01*
X155665440Y-123186468D01*
X155777958Y-123039008D01*
X155872071Y-122901960D01*
X155942732Y-122781203D01*
X155944046Y-122778654D01*
X155973622Y-122721094D01*
X155549483Y-122465690D01*
X155437872Y-122398644D01*
X155336698Y-122338179D01*
X155250034Y-122286705D01*
X155181954Y-122246631D01*
X155136532Y-122220366D01*
X155117840Y-122210320D01*
X155117656Y-122210286D01*
X155105048Y-122224587D01*
X155081941Y-122260802D01*
X155069193Y-122282835D01*
X155007341Y-122381140D01*
X154924544Y-122495391D01*
X154827125Y-122617596D01*
X154721405Y-122739758D01*
X154633405Y-122833832D01*
X154380726Y-123069044D01*
X154112022Y-123271700D01*
X153827286Y-123441806D01*
X153526510Y-123579364D01*
X153209687Y-123684379D01*
X152876808Y-123756854D01*
X152603901Y-123790981D01*
X152368768Y-123799951D01*
X152118737Y-123789024D01*
X151865573Y-123759612D01*
X151621043Y-123713129D01*
X151396911Y-123650985D01*
X151374403Y-123643390D01*
X151272974Y-123608494D01*
X151222353Y-123666854D01*
X151193740Y-123699784D01*
X151146389Y-123754214D01*
X151085400Y-123824288D01*
X151015869Y-123904147D01*
X150960397Y-123967840D01*
X150749063Y-124210466D01*
X150798925Y-124270134D01*
X150822965Y-124297403D01*
X150868499Y-124347631D01*
X150932250Y-124417259D01*
X151010945Y-124502729D01*
X151101308Y-124600481D01*
X151200064Y-124706958D01*
X151276841Y-124789508D01*
X151393865Y-124915257D01*
X151517469Y-125048203D01*
X151641763Y-125182003D01*
X151760858Y-125310315D01*
X151868866Y-125426795D01*
X151959898Y-125525102D01*
X151984412Y-125551611D01*
X152065460Y-125638527D01*
X152138880Y-125715809D01*
X152200945Y-125779652D01*
X152247931Y-125826253D01*
X152276111Y-125851808D01*
X152282072Y-125855515D01*
X152287793Y-125838065D01*
G37*
X152287793Y-125838065D02*
X152292053Y-125785220D01*
X152294832Y-125697843D01*
X152296108Y-125576796D01*
X152295858Y-125422941D01*
X152295152Y-125333620D01*
X152290089Y-124810219D01*
X152567294Y-124799490D01*
X152923961Y-124771016D01*
X153267081Y-124712877D01*
X153602650Y-124623564D01*
X153936663Y-124501571D01*
X154172807Y-124395901D01*
X154455197Y-124246827D01*
X154728905Y-124076204D01*
X154980890Y-123892227D01*
X155003500Y-123874129D01*
X155132306Y-123762817D01*
X155267952Y-123632515D01*
X155405388Y-123489102D01*
X155539568Y-123338460D01*
X155665440Y-123186468D01*
X155777958Y-123039008D01*
X155872071Y-122901960D01*
X155942732Y-122781203D01*
X155944046Y-122778654D01*
X155973622Y-122721094D01*
X155549483Y-122465690D01*
X155437872Y-122398644D01*
X155336698Y-122338179D01*
X155250034Y-122286705D01*
X155181954Y-122246631D01*
X155136532Y-122220366D01*
X155117840Y-122210320D01*
X155117656Y-122210286D01*
X155105048Y-122224587D01*
X155081941Y-122260802D01*
X155069193Y-122282835D01*
X155007341Y-122381140D01*
X154924544Y-122495391D01*
X154827125Y-122617596D01*
X154721405Y-122739758D01*
X154633405Y-122833832D01*
X154380726Y-123069044D01*
X154112022Y-123271700D01*
X153827286Y-123441806D01*
X153526510Y-123579364D01*
X153209687Y-123684379D01*
X152876808Y-123756854D01*
X152603901Y-123790981D01*
X152368768Y-123799951D01*
X152118737Y-123789024D01*
X151865573Y-123759612D01*
X151621043Y-123713129D01*
X151396911Y-123650985D01*
X151374403Y-123643390D01*
X151272974Y-123608494D01*
X151222353Y-123666854D01*
X151193740Y-123699784D01*
X151146389Y-123754214D01*
X151085400Y-123824288D01*
X151015869Y-123904147D01*
X150960397Y-123967840D01*
X150749063Y-124210466D01*
X150798925Y-124270134D01*
X150822965Y-124297403D01*
X150868499Y-124347631D01*
X150932250Y-124417259D01*
X151010945Y-124502729D01*
X151101308Y-124600481D01*
X151200064Y-124706958D01*
X151276841Y-124789508D01*
X151393865Y-124915257D01*
X151517469Y-125048203D01*
X151641763Y-125182003D01*
X151760858Y-125310315D01*
X151868866Y-125426795D01*
X151959898Y-125525102D01*
X151984412Y-125551611D01*
X152065460Y-125638527D01*
X152138880Y-125715809D01*
X152200945Y-125779652D01*
X152247931Y-125826253D01*
X152276111Y-125851808D01*
X152282072Y-125855515D01*
X152287793Y-125838065D01*
G36*
X150338916Y-124330782D02*
G01*
X150349341Y-124313952D01*
X150375731Y-124270064D01*
X150415593Y-124203301D01*
X150466436Y-124117847D01*
X150525765Y-124017884D01*
X150586283Y-123915714D01*
X150652526Y-123803896D01*
X150713757Y-123700761D01*
X150767220Y-123610935D01*
X150810158Y-123539043D01*
X150839813Y-123489713D01*
X150852709Y-123468675D01*
X150863400Y-123447674D01*
X150860299Y-123430185D01*
X150838147Y-123410264D01*
X150791684Y-123381966D01*
X150760370Y-123364316D01*
X150560687Y-123237537D01*
X150359503Y-123081524D01*
X150163044Y-122902498D01*
X149977533Y-122706678D01*
X149809197Y-122500285D01*
X149664260Y-122289538D01*
X149632932Y-122237785D01*
X149481051Y-121945140D01*
X149360568Y-121638500D01*
X149272196Y-121321667D01*
X149216648Y-120998443D01*
X149194640Y-120672631D01*
X149206883Y-120348033D01*
X149236167Y-120123857D01*
X149251208Y-120044936D01*
X149271491Y-119951174D01*
X149294652Y-119852263D01*
X149318324Y-119757897D01*
X149340144Y-119677768D01*
X149357746Y-119621567D01*
X149360595Y-119613940D01*
X149356595Y-119595887D01*
X149333381Y-119565001D01*
X149288711Y-119519006D01*
X149220344Y-119455621D01*
X149126038Y-119372571D01*
X149106190Y-119355404D01*
X149022724Y-119284317D01*
X148947819Y-119222299D01*
X148886047Y-119172993D01*
X148841981Y-119140043D01*
X148820195Y-119127091D01*
X148819503Y-119127030D01*
X148801657Y-119139281D01*
X148760788Y-119173542D01*
X148700195Y-119226850D01*
X148623182Y-119296243D01*
X148533050Y-119378758D01*
X148433100Y-119471432D01*
X148372286Y-119528338D01*
X148191846Y-119697755D01*
X148035636Y-119844458D01*
X147901422Y-119970557D01*
X147786966Y-120078160D01*
X147690034Y-120169377D01*
X147608389Y-120246316D01*
X147539796Y-120311086D01*
X147482019Y-120365798D01*
X147432821Y-120412559D01*
X147389967Y-120453478D01*
X147351222Y-120490666D01*
X147314348Y-120526230D01*
X147312111Y-120528393D01*
X147165786Y-120669858D01*
X147705536Y-120657698D01*
X148245286Y-120645539D01*
X148245618Y-120870020D01*
X148263913Y-121213766D01*
X148316725Y-121558084D01*
X148402472Y-121899902D01*
X148519567Y-122236152D01*
X148666428Y-122563765D01*
X148841470Y-122879671D01*
X149043107Y-123180800D01*
X149269756Y-123464084D01*
X149519833Y-123726453D01*
X149791752Y-123964838D01*
X149877544Y-124031364D01*
X149955352Y-124088453D01*
X150038174Y-124146705D01*
X150120546Y-124202575D01*
X150197005Y-124252517D01*
X150262088Y-124292984D01*
X150310330Y-124320432D01*
X150336268Y-124331314D01*
X150338916Y-124330782D01*
G37*
X150338916Y-124330782D02*
X150349341Y-124313952D01*
X150375731Y-124270064D01*
X150415593Y-124203301D01*
X150466436Y-124117847D01*
X150525765Y-124017884D01*
X150586283Y-123915714D01*
X150652526Y-123803896D01*
X150713757Y-123700761D01*
X150767220Y-123610935D01*
X150810158Y-123539043D01*
X150839813Y-123489713D01*
X150852709Y-123468675D01*
X150863400Y-123447674D01*
X150860299Y-123430185D01*
X150838147Y-123410264D01*
X150791684Y-123381966D01*
X150760370Y-123364316D01*
X150560687Y-123237537D01*
X150359503Y-123081524D01*
X150163044Y-122902498D01*
X149977533Y-122706678D01*
X149809197Y-122500285D01*
X149664260Y-122289538D01*
X149632932Y-122237785D01*
X149481051Y-121945140D01*
X149360568Y-121638500D01*
X149272196Y-121321667D01*
X149216648Y-120998443D01*
X149194640Y-120672631D01*
X149206883Y-120348033D01*
X149236167Y-120123857D01*
X149251208Y-120044936D01*
X149271491Y-119951174D01*
X149294652Y-119852263D01*
X149318324Y-119757897D01*
X149340144Y-119677768D01*
X149357746Y-119621567D01*
X149360595Y-119613940D01*
X149356595Y-119595887D01*
X149333381Y-119565001D01*
X149288711Y-119519006D01*
X149220344Y-119455621D01*
X149126038Y-119372571D01*
X149106190Y-119355404D01*
X149022724Y-119284317D01*
X148947819Y-119222299D01*
X148886047Y-119172993D01*
X148841981Y-119140043D01*
X148820195Y-119127091D01*
X148819503Y-119127030D01*
X148801657Y-119139281D01*
X148760788Y-119173542D01*
X148700195Y-119226850D01*
X148623182Y-119296243D01*
X148533050Y-119378758D01*
X148433100Y-119471432D01*
X148372286Y-119528338D01*
X148191846Y-119697755D01*
X148035636Y-119844458D01*
X147901422Y-119970557D01*
X147786966Y-120078160D01*
X147690034Y-120169377D01*
X147608389Y-120246316D01*
X147539796Y-120311086D01*
X147482019Y-120365798D01*
X147432821Y-120412559D01*
X147389967Y-120453478D01*
X147351222Y-120490666D01*
X147314348Y-120526230D01*
X147312111Y-120528393D01*
X147165786Y-120669858D01*
X147705536Y-120657698D01*
X148245286Y-120645539D01*
X148245618Y-120870020D01*
X148263913Y-121213766D01*
X148316725Y-121558084D01*
X148402472Y-121899902D01*
X148519567Y-122236152D01*
X148666428Y-122563765D01*
X148841470Y-122879671D01*
X149043107Y-123180800D01*
X149269756Y-123464084D01*
X149519833Y-123726453D01*
X149791752Y-123964838D01*
X149877544Y-124031364D01*
X149955352Y-124088453D01*
X150038174Y-124146705D01*
X150120546Y-124202575D01*
X150197005Y-124252517D01*
X150262088Y-124292984D01*
X150310330Y-124320432D01*
X150336268Y-124331314D01*
X150338916Y-124330782D01*
G36*
X156310419Y-121898161D02*
G01*
X156444558Y-121780233D01*
X156594874Y-121648141D01*
X156752378Y-121509780D01*
X156908081Y-121373045D01*
X157052994Y-121245833D01*
X157158645Y-121153129D01*
X157261518Y-121062591D01*
X157354713Y-120980001D01*
X157434958Y-120908306D01*
X157498981Y-120850450D01*
X157543507Y-120809381D01*
X157565263Y-120788044D01*
X157566860Y-120785696D01*
X157542158Y-120779417D01*
X157484805Y-120773755D01*
X157398432Y-120768855D01*
X157286669Y-120764861D01*
X157153149Y-120761917D01*
X157001502Y-120760168D01*
X156914756Y-120759774D01*
X156503727Y-120758857D01*
X156513169Y-120654536D01*
X156515929Y-120577529D01*
X156513709Y-120473168D01*
X156507184Y-120349942D01*
X156497032Y-120216338D01*
X156483927Y-120080845D01*
X156468546Y-119951952D01*
X156451565Y-119838145D01*
X156445384Y-119803527D01*
X156355496Y-119422023D01*
X156232761Y-119055251D01*
X156078050Y-118704544D01*
X155892238Y-118371235D01*
X155676197Y-118056657D01*
X155430799Y-117762142D01*
X155156919Y-117489024D01*
X154855428Y-117238634D01*
X154684742Y-117115599D01*
X154622566Y-117074220D01*
X154571046Y-117042259D01*
X154537811Y-117024342D01*
X154530528Y-117022091D01*
X154511947Y-117036637D01*
X154483367Y-117072980D01*
X154466040Y-117099198D01*
X154442563Y-117136560D01*
X154403089Y-117199001D01*
X154351121Y-117280995D01*
X154290162Y-117377021D01*
X154223713Y-117481553D01*
X154190326Y-117534024D01*
X153962216Y-117892405D01*
X154065572Y-117958223D01*
X154231456Y-118074668D01*
X154404195Y-118215350D01*
X154574750Y-118371891D01*
X154734081Y-118535908D01*
X154873147Y-118699023D01*
X154894731Y-118726857D01*
X155073332Y-118989716D01*
X155224701Y-119272622D01*
X155347505Y-119571021D01*
X155440409Y-119880360D01*
X155502077Y-120196086D01*
X155531174Y-120513645D01*
X155526366Y-120828484D01*
X155523077Y-120870186D01*
X155500667Y-121060521D01*
X155466843Y-121257875D01*
X155424347Y-121448618D01*
X155375918Y-121619118D01*
X155367320Y-121645027D01*
X155324085Y-121772142D01*
X155517494Y-121950392D01*
X155595013Y-122021838D01*
X155670768Y-122091663D01*
X155736996Y-122152710D01*
X155785931Y-122197822D01*
X155793263Y-122204582D01*
X155875624Y-122280522D01*
X156310419Y-121898161D01*
G37*
X156310419Y-121898161D02*
X156444558Y-121780233D01*
X156594874Y-121648141D01*
X156752378Y-121509780D01*
X156908081Y-121373045D01*
X157052994Y-121245833D01*
X157158645Y-121153129D01*
X157261518Y-121062591D01*
X157354713Y-120980001D01*
X157434958Y-120908306D01*
X157498981Y-120850450D01*
X157543507Y-120809381D01*
X157565263Y-120788044D01*
X157566860Y-120785696D01*
X157542158Y-120779417D01*
X157484805Y-120773755D01*
X157398432Y-120768855D01*
X157286669Y-120764861D01*
X157153149Y-120761917D01*
X157001502Y-120760168D01*
X156914756Y-120759774D01*
X156503727Y-120758857D01*
X156513169Y-120654536D01*
X156515929Y-120577529D01*
X156513709Y-120473168D01*
X156507184Y-120349942D01*
X156497032Y-120216338D01*
X156483927Y-120080845D01*
X156468546Y-119951952D01*
X156451565Y-119838145D01*
X156445384Y-119803527D01*
X156355496Y-119422023D01*
X156232761Y-119055251D01*
X156078050Y-118704544D01*
X155892238Y-118371235D01*
X155676197Y-118056657D01*
X155430799Y-117762142D01*
X155156919Y-117489024D01*
X154855428Y-117238634D01*
X154684742Y-117115599D01*
X154622566Y-117074220D01*
X154571046Y-117042259D01*
X154537811Y-117024342D01*
X154530528Y-117022091D01*
X154511947Y-117036637D01*
X154483367Y-117072980D01*
X154466040Y-117099198D01*
X154442563Y-117136560D01*
X154403089Y-117199001D01*
X154351121Y-117280995D01*
X154290162Y-117377021D01*
X154223713Y-117481553D01*
X154190326Y-117534024D01*
X153962216Y-117892405D01*
X154065572Y-117958223D01*
X154231456Y-118074668D01*
X154404195Y-118215350D01*
X154574750Y-118371891D01*
X154734081Y-118535908D01*
X154873147Y-118699023D01*
X154894731Y-118726857D01*
X155073332Y-118989716D01*
X155224701Y-119272622D01*
X155347505Y-119571021D01*
X155440409Y-119880360D01*
X155502077Y-120196086D01*
X155531174Y-120513645D01*
X155526366Y-120828484D01*
X155523077Y-120870186D01*
X155500667Y-121060521D01*
X155466843Y-121257875D01*
X155424347Y-121448618D01*
X155375918Y-121619118D01*
X155367320Y-121645027D01*
X155324085Y-121772142D01*
X155517494Y-121950392D01*
X155595013Y-122021838D01*
X155670768Y-122091663D01*
X155736996Y-122152710D01*
X155785931Y-122197822D01*
X155793263Y-122204582D01*
X155875624Y-122280522D01*
X156310419Y-121898161D01*
G36*
X149550123Y-119135394D02*
G01*
X149581633Y-119098061D01*
X149621226Y-119041912D01*
X149650901Y-118995125D01*
X149823545Y-118742417D01*
X150025105Y-118501583D01*
X150249564Y-118278569D01*
X150490906Y-118079320D01*
X150743114Y-117909784D01*
X150758072Y-117900915D01*
X151054897Y-117746630D01*
X151364789Y-117625662D01*
X151688913Y-117537645D01*
X152028432Y-117482215D01*
X152123528Y-117472733D01*
X152389844Y-117463628D01*
X152669371Y-117479678D01*
X152950675Y-117519407D01*
X153222317Y-117581342D01*
X153401863Y-117637567D01*
X153544144Y-117687916D01*
X153640084Y-117576922D01*
X153693807Y-117514212D01*
X153760437Y-117435628D01*
X153829748Y-117353257D01*
X153868917Y-117306388D01*
X154001810Y-117146847D01*
X153831004Y-116970745D01*
X153776075Y-116913969D01*
X153700594Y-116835740D01*
X153609121Y-116740796D01*
X153506218Y-116633874D01*
X153396444Y-116519712D01*
X153284362Y-116403049D01*
X153225135Y-116341356D01*
X153112712Y-116224351D01*
X152999267Y-116106512D01*
X152889545Y-115992750D01*
X152788288Y-115887977D01*
X152700239Y-115797103D01*
X152630142Y-115725038D01*
X152603006Y-115697285D01*
X152415940Y-115506500D01*
X152426446Y-115833071D01*
X152430700Y-115958080D01*
X152435556Y-116089082D01*
X152440549Y-116214219D01*
X152445212Y-116321634D01*
X152447522Y-116369940D01*
X152458092Y-116580238D01*
X152215868Y-116591493D01*
X151838236Y-116626971D01*
X151467360Y-116697298D01*
X151105512Y-116801317D01*
X150754963Y-116937868D01*
X150417987Y-117105793D01*
X150096854Y-117303934D01*
X149793838Y-117531133D01*
X149511210Y-117786231D01*
X149251242Y-118068070D01*
X149201684Y-118128143D01*
X149153492Y-118190330D01*
X149097650Y-118266602D01*
X149037922Y-118351317D01*
X148978071Y-118438831D01*
X148921862Y-118523502D01*
X148873056Y-118599687D01*
X148835418Y-118661744D01*
X148812710Y-118704030D01*
X148807714Y-118718833D01*
X148822627Y-118732411D01*
X148863778Y-118760601D01*
X148925786Y-118800218D01*
X149003268Y-118848074D01*
X149090844Y-118900982D01*
X149183132Y-118955754D01*
X149274749Y-119009205D01*
X149360316Y-119058146D01*
X149434449Y-119099391D01*
X149491768Y-119129753D01*
X149526890Y-119146044D01*
X149531658Y-119147566D01*
X149550123Y-119135394D01*
G37*
X149550123Y-119135394D02*
X149581633Y-119098061D01*
X149621226Y-119041912D01*
X149650901Y-118995125D01*
X149823545Y-118742417D01*
X150025105Y-118501583D01*
X150249564Y-118278569D01*
X150490906Y-118079320D01*
X150743114Y-117909784D01*
X150758072Y-117900915D01*
X151054897Y-117746630D01*
X151364789Y-117625662D01*
X151688913Y-117537645D01*
X152028432Y-117482215D01*
X152123528Y-117472733D01*
X152389844Y-117463628D01*
X152669371Y-117479678D01*
X152950675Y-117519407D01*
X153222317Y-117581342D01*
X153401863Y-117637567D01*
X153544144Y-117687916D01*
X153640084Y-117576922D01*
X153693807Y-117514212D01*
X153760437Y-117435628D01*
X153829748Y-117353257D01*
X153868917Y-117306388D01*
X154001810Y-117146847D01*
X153831004Y-116970745D01*
X153776075Y-116913969D01*
X153700594Y-116835740D01*
X153609121Y-116740796D01*
X153506218Y-116633874D01*
X153396444Y-116519712D01*
X153284362Y-116403049D01*
X153225135Y-116341356D01*
X153112712Y-116224351D01*
X152999267Y-116106512D01*
X152889545Y-115992750D01*
X152788288Y-115887977D01*
X152700239Y-115797103D01*
X152630142Y-115725038D01*
X152603006Y-115697285D01*
X152415940Y-115506500D01*
X152426446Y-115833071D01*
X152430700Y-115958080D01*
X152435556Y-116089082D01*
X152440549Y-116214219D01*
X152445212Y-116321634D01*
X152447522Y-116369940D01*
X152458092Y-116580238D01*
X152215868Y-116591493D01*
X151838236Y-116626971D01*
X151467360Y-116697298D01*
X151105512Y-116801317D01*
X150754963Y-116937868D01*
X150417987Y-117105793D01*
X150096854Y-117303934D01*
X149793838Y-117531133D01*
X149511210Y-117786231D01*
X149251242Y-118068070D01*
X149201684Y-118128143D01*
X149153492Y-118190330D01*
X149097650Y-118266602D01*
X149037922Y-118351317D01*
X148978071Y-118438831D01*
X148921862Y-118523502D01*
X148873056Y-118599687D01*
X148835418Y-118661744D01*
X148812710Y-118704030D01*
X148807714Y-118718833D01*
X148822627Y-118732411D01*
X148863778Y-118760601D01*
X148925786Y-118800218D01*
X149003268Y-118848074D01*
X149090844Y-118900982D01*
X149183132Y-118955754D01*
X149274749Y-119009205D01*
X149360316Y-119058146D01*
X149434449Y-119099391D01*
X149491768Y-119129753D01*
X149526890Y-119146044D01*
X149531658Y-119147566D01*
X149550123Y-119135394D01*
G36*
X163140194Y-56275794D02*
G01*
X162733485Y-56467948D01*
X162419601Y-56765900D01*
X162297862Y-56972584D01*
X162191890Y-57331108D01*
X162143222Y-57768237D01*
X162153830Y-58211264D01*
X162225682Y-58587483D01*
X162252154Y-58659506D01*
X162470448Y-58993589D01*
X162800689Y-59278159D01*
X163185491Y-59464828D01*
X163218796Y-59474607D01*
X163553373Y-59545927D01*
X163836295Y-59540061D01*
X164160543Y-59453373D01*
X164211000Y-59435830D01*
X164605177Y-59216536D01*
X164896302Y-58894138D01*
X165085489Y-58498721D01*
X165173852Y-58060372D01*
X165164728Y-57697565D01*
X164671597Y-57697565D01*
X164653727Y-58112778D01*
X164584638Y-58494800D01*
X164536859Y-58638986D01*
X164317972Y-58990995D01*
X164011884Y-59215484D01*
X163650344Y-59300057D01*
X163265100Y-59232317D01*
X163149895Y-59180567D01*
X162881031Y-58951286D01*
X162691483Y-58602269D01*
X162590968Y-58168146D01*
X162589202Y-57683551D01*
X162642305Y-57371511D01*
X162807222Y-56959409D01*
X163058096Y-56661780D01*
X163365619Y-56483925D01*
X163700483Y-56431144D01*
X164033379Y-56508738D01*
X164335000Y-56722007D01*
X164551358Y-57026271D01*
X164637668Y-57313837D01*
X164671597Y-57697565D01*
X165164728Y-57697565D01*
X165162505Y-57609177D01*
X165052561Y-57175221D01*
X164845135Y-56788592D01*
X164541339Y-56479375D01*
X164142288Y-56277657D01*
X164093561Y-56263575D01*
X163605097Y-56203111D01*
X163140194Y-56275794D01*
G37*
X163140194Y-56275794D02*
X162733485Y-56467948D01*
X162419601Y-56765900D01*
X162297862Y-56972584D01*
X162191890Y-57331108D01*
X162143222Y-57768237D01*
X162153830Y-58211264D01*
X162225682Y-58587483D01*
X162252154Y-58659506D01*
X162470448Y-58993589D01*
X162800689Y-59278159D01*
X163185491Y-59464828D01*
X163218796Y-59474607D01*
X163553373Y-59545927D01*
X163836295Y-59540061D01*
X164160543Y-59453373D01*
X164211000Y-59435830D01*
X164605177Y-59216536D01*
X164896302Y-58894138D01*
X165085489Y-58498721D01*
X165173852Y-58060372D01*
X165164728Y-57697565D01*
X164671597Y-57697565D01*
X164653727Y-58112778D01*
X164584638Y-58494800D01*
X164536859Y-58638986D01*
X164317972Y-58990995D01*
X164011884Y-59215484D01*
X163650344Y-59300057D01*
X163265100Y-59232317D01*
X163149895Y-59180567D01*
X162881031Y-58951286D01*
X162691483Y-58602269D01*
X162590968Y-58168146D01*
X162589202Y-57683551D01*
X162642305Y-57371511D01*
X162807222Y-56959409D01*
X163058096Y-56661780D01*
X163365619Y-56483925D01*
X163700483Y-56431144D01*
X164033379Y-56508738D01*
X164335000Y-56722007D01*
X164551358Y-57026271D01*
X164637668Y-57313837D01*
X164671597Y-57697565D01*
X165164728Y-57697565D01*
X165162505Y-57609177D01*
X165052561Y-57175221D01*
X164845135Y-56788592D01*
X164541339Y-56479375D01*
X164142288Y-56277657D01*
X164093561Y-56263575D01*
X163605097Y-56203111D01*
X163140194Y-56275794D01*
G36*
X159576610Y-56213843D02*
G01*
X159262167Y-56268016D01*
X158834666Y-56359698D01*
X158834666Y-56783071D01*
X158849060Y-57049509D01*
X158895404Y-57166246D01*
X158940500Y-57171693D01*
X159027219Y-57070556D01*
X159073794Y-56903687D01*
X159177699Y-56695985D01*
X159412112Y-56536814D01*
X159740721Y-56445655D01*
X159953780Y-56431581D01*
X160365610Y-56506063D01*
X160687147Y-56717961D01*
X160909244Y-57056065D01*
X161022759Y-57509170D01*
X161036000Y-57757907D01*
X160991905Y-58287452D01*
X160852872Y-58699390D01*
X160608778Y-59022678D01*
X160586517Y-59043639D01*
X160307756Y-59205038D01*
X159947907Y-59287930D01*
X159581618Y-59280288D01*
X159406166Y-59233799D01*
X159256987Y-59153709D01*
X159190037Y-59028399D01*
X159174598Y-58797917D01*
X159174630Y-58781929D01*
X159194333Y-58479023D01*
X159267785Y-58299068D01*
X159420570Y-58198037D01*
X159534015Y-58163534D01*
X159726093Y-58096814D01*
X159758908Y-58037868D01*
X159642500Y-57991415D01*
X159386910Y-57962169D01*
X159088666Y-57954333D01*
X158728539Y-57967137D01*
X158497643Y-58002459D01*
X158407110Y-58055663D01*
X158468070Y-58122117D01*
X158580470Y-58165937D01*
X158742830Y-58302214D01*
X158822474Y-58570323D01*
X158813996Y-58951441D01*
X158811553Y-58970218D01*
X158794939Y-59187965D01*
X158843185Y-59302095D01*
X158986618Y-59374766D01*
X159013608Y-59384329D01*
X159337341Y-59462696D01*
X159728863Y-59509214D01*
X160118224Y-59519739D01*
X160435474Y-59490128D01*
X160506291Y-59472749D01*
X160898967Y-59272163D01*
X161201028Y-58957617D01*
X161407425Y-58561280D01*
X161513108Y-58115317D01*
X161513026Y-57651895D01*
X161402129Y-57203182D01*
X161175365Y-56801343D01*
X160960752Y-56578251D01*
X160560115Y-56324367D01*
X160107370Y-56204475D01*
X159576610Y-56213843D01*
G37*
X159576610Y-56213843D02*
X159262167Y-56268016D01*
X158834666Y-56359698D01*
X158834666Y-56783071D01*
X158849060Y-57049509D01*
X158895404Y-57166246D01*
X158940500Y-57171693D01*
X159027219Y-57070556D01*
X159073794Y-56903687D01*
X159177699Y-56695985D01*
X159412112Y-56536814D01*
X159740721Y-56445655D01*
X159953780Y-56431581D01*
X160365610Y-56506063D01*
X160687147Y-56717961D01*
X160909244Y-57056065D01*
X161022759Y-57509170D01*
X161036000Y-57757907D01*
X160991905Y-58287452D01*
X160852872Y-58699390D01*
X160608778Y-59022678D01*
X160586517Y-59043639D01*
X160307756Y-59205038D01*
X159947907Y-59287930D01*
X159581618Y-59280288D01*
X159406166Y-59233799D01*
X159256987Y-59153709D01*
X159190037Y-59028399D01*
X159174598Y-58797917D01*
X159174630Y-58781929D01*
X159194333Y-58479023D01*
X159267785Y-58299068D01*
X159420570Y-58198037D01*
X159534015Y-58163534D01*
X159726093Y-58096814D01*
X159758908Y-58037868D01*
X159642500Y-57991415D01*
X159386910Y-57962169D01*
X159088666Y-57954333D01*
X158728539Y-57967137D01*
X158497643Y-58002459D01*
X158407110Y-58055663D01*
X158468070Y-58122117D01*
X158580470Y-58165937D01*
X158742830Y-58302214D01*
X158822474Y-58570323D01*
X158813996Y-58951441D01*
X158811553Y-58970218D01*
X158794939Y-59187965D01*
X158843185Y-59302095D01*
X158986618Y-59374766D01*
X159013608Y-59384329D01*
X159337341Y-59462696D01*
X159728863Y-59509214D01*
X160118224Y-59519739D01*
X160435474Y-59490128D01*
X160506291Y-59472749D01*
X160898967Y-59272163D01*
X161201028Y-58957617D01*
X161407425Y-58561280D01*
X161513108Y-58115317D01*
X161513026Y-57651895D01*
X161402129Y-57203182D01*
X161175365Y-56801343D01*
X160960752Y-56578251D01*
X160560115Y-56324367D01*
X160107370Y-56204475D01*
X159576610Y-56213843D01*
G36*
X134430610Y-56213843D02*
G01*
X134116167Y-56268016D01*
X133688666Y-56359698D01*
X133688666Y-56783071D01*
X133703060Y-57049509D01*
X133749404Y-57166246D01*
X133794500Y-57171693D01*
X133881219Y-57070556D01*
X133927794Y-56903687D01*
X134031699Y-56695985D01*
X134266112Y-56536814D01*
X134594721Y-56445655D01*
X134807780Y-56431581D01*
X135219610Y-56506063D01*
X135541147Y-56717961D01*
X135763244Y-57056065D01*
X135876759Y-57509170D01*
X135890000Y-57757907D01*
X135845905Y-58287452D01*
X135706872Y-58699390D01*
X135462778Y-59022678D01*
X135440517Y-59043639D01*
X135161756Y-59205038D01*
X134801907Y-59287930D01*
X134435618Y-59280288D01*
X134260166Y-59233799D01*
X134110987Y-59153709D01*
X134044037Y-59028399D01*
X134028598Y-58797917D01*
X134028630Y-58781929D01*
X134048333Y-58479023D01*
X134121785Y-58299068D01*
X134274570Y-58198037D01*
X134388015Y-58163534D01*
X134580093Y-58096814D01*
X134612908Y-58037868D01*
X134496500Y-57991415D01*
X134240910Y-57962169D01*
X133942666Y-57954333D01*
X133582539Y-57967137D01*
X133351643Y-58002459D01*
X133261110Y-58055663D01*
X133322070Y-58122117D01*
X133434470Y-58165937D01*
X133596830Y-58302214D01*
X133676474Y-58570323D01*
X133667996Y-58951441D01*
X133665553Y-58970218D01*
X133648939Y-59187965D01*
X133697185Y-59302095D01*
X133840618Y-59374766D01*
X133867608Y-59384329D01*
X134191341Y-59462696D01*
X134582863Y-59509214D01*
X134972224Y-59519739D01*
X135289474Y-59490128D01*
X135360291Y-59472749D01*
X135752967Y-59272163D01*
X136055028Y-58957617D01*
X136261425Y-58561280D01*
X136367108Y-58115317D01*
X136367026Y-57651895D01*
X136256129Y-57203182D01*
X136029365Y-56801343D01*
X135814752Y-56578251D01*
X135414115Y-56324367D01*
X134961370Y-56204475D01*
X134430610Y-56213843D01*
G37*
X134430610Y-56213843D02*
X134116167Y-56268016D01*
X133688666Y-56359698D01*
X133688666Y-56783071D01*
X133703060Y-57049509D01*
X133749404Y-57166246D01*
X133794500Y-57171693D01*
X133881219Y-57070556D01*
X133927794Y-56903687D01*
X134031699Y-56695985D01*
X134266112Y-56536814D01*
X134594721Y-56445655D01*
X134807780Y-56431581D01*
X135219610Y-56506063D01*
X135541147Y-56717961D01*
X135763244Y-57056065D01*
X135876759Y-57509170D01*
X135890000Y-57757907D01*
X135845905Y-58287452D01*
X135706872Y-58699390D01*
X135462778Y-59022678D01*
X135440517Y-59043639D01*
X135161756Y-59205038D01*
X134801907Y-59287930D01*
X134435618Y-59280288D01*
X134260166Y-59233799D01*
X134110987Y-59153709D01*
X134044037Y-59028399D01*
X134028598Y-58797917D01*
X134028630Y-58781929D01*
X134048333Y-58479023D01*
X134121785Y-58299068D01*
X134274570Y-58198037D01*
X134388015Y-58163534D01*
X134580093Y-58096814D01*
X134612908Y-58037868D01*
X134496500Y-57991415D01*
X134240910Y-57962169D01*
X133942666Y-57954333D01*
X133582539Y-57967137D01*
X133351643Y-58002459D01*
X133261110Y-58055663D01*
X133322070Y-58122117D01*
X133434470Y-58165937D01*
X133596830Y-58302214D01*
X133676474Y-58570323D01*
X133667996Y-58951441D01*
X133665553Y-58970218D01*
X133648939Y-59187965D01*
X133697185Y-59302095D01*
X133840618Y-59374766D01*
X133867608Y-59384329D01*
X134191341Y-59462696D01*
X134582863Y-59509214D01*
X134972224Y-59519739D01*
X135289474Y-59490128D01*
X135360291Y-59472749D01*
X135752967Y-59272163D01*
X136055028Y-58957617D01*
X136261425Y-58561280D01*
X136367108Y-58115317D01*
X136367026Y-57651895D01*
X136256129Y-57203182D01*
X136029365Y-56801343D01*
X135814752Y-56578251D01*
X135414115Y-56324367D01*
X134961370Y-56204475D01*
X134430610Y-56213843D01*
G36*
X170094283Y-56286593D02*
G01*
X169629344Y-56367835D01*
X169301072Y-56511422D01*
X169096752Y-56724051D01*
X169003664Y-57012417D01*
X168994666Y-57163423D01*
X169031119Y-57466170D01*
X169166000Y-57714321D01*
X169241913Y-57804831D01*
X169388667Y-57954730D01*
X169527298Y-58037487D01*
X169715021Y-58072653D01*
X170009054Y-58079783D01*
X170046247Y-58079707D01*
X170603333Y-58078081D01*
X170603333Y-58616228D01*
X170598822Y-58910338D01*
X170572995Y-59081170D01*
X170507412Y-59174753D01*
X170383631Y-59237119D01*
X170349333Y-59250250D01*
X170152822Y-59341750D01*
X170116323Y-59408898D01*
X170242115Y-59452921D01*
X170532478Y-59475047D01*
X170772666Y-59478333D01*
X171099849Y-59468684D01*
X171336178Y-59442629D01*
X171446242Y-59404513D01*
X171450000Y-59395280D01*
X171378160Y-59315028D01*
X171238333Y-59259101D01*
X171026666Y-59205976D01*
X171026666Y-57869667D01*
X171026666Y-57462235D01*
X170596968Y-57462235D01*
X170574391Y-57689049D01*
X170500518Y-57811209D01*
X170357072Y-57860732D01*
X170146469Y-57869667D01*
X169877941Y-57847790D01*
X169702365Y-57762544D01*
X169593478Y-57646582D01*
X169440785Y-57351806D01*
X169456675Y-57063841D01*
X169615126Y-56803270D01*
X169795636Y-56644834D01*
X170020560Y-56576531D01*
X170186626Y-56565715D01*
X170561000Y-56557333D01*
X170586525Y-57098749D01*
X170596968Y-57462235D01*
X171026666Y-57462235D01*
X171026667Y-56533357D01*
X171238333Y-56480232D01*
X171424336Y-56414276D01*
X171452728Y-56354526D01*
X171335223Y-56305830D01*
X171083539Y-56273039D01*
X170709391Y-56261000D01*
X170708608Y-56261000D01*
X170094283Y-56286593D01*
G37*
X170094283Y-56286593D02*
X169629344Y-56367835D01*
X169301072Y-56511422D01*
X169096752Y-56724051D01*
X169003664Y-57012417D01*
X168994666Y-57163423D01*
X169031119Y-57466170D01*
X169166000Y-57714321D01*
X169241913Y-57804831D01*
X169388667Y-57954730D01*
X169527298Y-58037487D01*
X169715021Y-58072653D01*
X170009054Y-58079783D01*
X170046247Y-58079707D01*
X170603333Y-58078081D01*
X170603333Y-58616228D01*
X170598822Y-58910338D01*
X170572995Y-59081170D01*
X170507412Y-59174753D01*
X170383631Y-59237119D01*
X170349333Y-59250250D01*
X170152822Y-59341750D01*
X170116323Y-59408898D01*
X170242115Y-59452921D01*
X170532478Y-59475047D01*
X170772666Y-59478333D01*
X171099849Y-59468684D01*
X171336178Y-59442629D01*
X171446242Y-59404513D01*
X171450000Y-59395280D01*
X171378160Y-59315028D01*
X171238333Y-59259101D01*
X171026666Y-59205976D01*
X171026666Y-57869667D01*
X171026666Y-57462235D01*
X170596968Y-57462235D01*
X170574391Y-57689049D01*
X170500518Y-57811209D01*
X170357072Y-57860732D01*
X170146469Y-57869667D01*
X169877941Y-57847790D01*
X169702365Y-57762544D01*
X169593478Y-57646582D01*
X169440785Y-57351806D01*
X169456675Y-57063841D01*
X169615126Y-56803270D01*
X169795636Y-56644834D01*
X170020560Y-56576531D01*
X170186626Y-56565715D01*
X170561000Y-56557333D01*
X170586525Y-57098749D01*
X170596968Y-57462235D01*
X171026666Y-57462235D01*
X171026667Y-56533357D01*
X171238333Y-56480232D01*
X171424336Y-56414276D01*
X171452728Y-56354526D01*
X171335223Y-56305830D01*
X171083539Y-56273039D01*
X170709391Y-56261000D01*
X170708608Y-56261000D01*
X170094283Y-56286593D01*
G36*
X167511852Y-56277005D02*
G01*
X166981227Y-56308460D01*
X166596215Y-56364101D01*
X166333524Y-56456025D01*
X166169866Y-56596330D01*
X166081950Y-56797114D01*
X166048496Y-57037137D01*
X166051195Y-57305777D01*
X166122583Y-57492932D01*
X166250541Y-57642450D01*
X166427756Y-57791273D01*
X166573669Y-57867176D01*
X166593212Y-57869667D01*
X166672179Y-57881390D01*
X166691956Y-57931719D01*
X166641633Y-58043386D01*
X166510302Y-58239126D01*
X166287054Y-58541675D01*
X166242013Y-58601597D01*
X165972207Y-58933102D01*
X165741139Y-59164259D01*
X165571400Y-59272625D01*
X165564680Y-59274480D01*
X165387366Y-59342962D01*
X165363095Y-59407867D01*
X165476014Y-59453490D01*
X165710267Y-59464127D01*
X165753791Y-59461805D01*
X165939692Y-59444438D01*
X166081274Y-59403488D01*
X166212011Y-59313230D01*
X166365377Y-59147941D01*
X166574849Y-58881897D01*
X166668793Y-58758667D01*
X166940458Y-58417457D01*
X167146355Y-58200010D01*
X167308619Y-58085355D01*
X167412002Y-58054543D01*
X167533384Y-58046822D01*
X167601576Y-58083699D01*
X167631915Y-58201265D01*
X167639738Y-58435613D01*
X167640000Y-58591064D01*
X167636043Y-58893150D01*
X167612712Y-59070534D01*
X167552814Y-59167836D01*
X167439157Y-59229673D01*
X167386000Y-59250250D01*
X167189489Y-59341750D01*
X167152990Y-59408898D01*
X167278782Y-59452921D01*
X167569145Y-59475047D01*
X167809333Y-59478333D01*
X168136515Y-59468684D01*
X168372845Y-59442629D01*
X168482909Y-59404513D01*
X168486666Y-59395280D01*
X168414827Y-59315028D01*
X168275000Y-59259101D01*
X168063333Y-59205976D01*
X168063333Y-57785000D01*
X167647418Y-57785000D01*
X167258861Y-57785000D01*
X166961202Y-57756908D01*
X166750207Y-57654996D01*
X166662485Y-57577182D01*
X166488126Y-57305464D01*
X166478751Y-57017479D01*
X166611581Y-56763311D01*
X166758527Y-56635671D01*
X166966962Y-56576137D01*
X167183081Y-56563432D01*
X167597666Y-56557333D01*
X167622542Y-57171167D01*
X167647418Y-57785000D01*
X168063333Y-57785000D01*
X168063333Y-56533357D01*
X168275000Y-56480232D01*
X168433673Y-56408553D01*
X168486666Y-56333399D01*
X168419785Y-56290885D01*
X168212293Y-56268940D01*
X167853919Y-56266972D01*
X167511852Y-56277005D01*
G37*
X167511852Y-56277005D02*
X166981227Y-56308460D01*
X166596215Y-56364101D01*
X166333524Y-56456025D01*
X166169866Y-56596330D01*
X166081950Y-56797114D01*
X166048496Y-57037137D01*
X166051195Y-57305777D01*
X166122583Y-57492932D01*
X166250541Y-57642450D01*
X166427756Y-57791273D01*
X166573669Y-57867176D01*
X166593212Y-57869667D01*
X166672179Y-57881390D01*
X166691956Y-57931719D01*
X166641633Y-58043386D01*
X166510302Y-58239126D01*
X166287054Y-58541675D01*
X166242013Y-58601597D01*
X165972207Y-58933102D01*
X165741139Y-59164259D01*
X165571400Y-59272625D01*
X165564680Y-59274480D01*
X165387366Y-59342962D01*
X165363095Y-59407867D01*
X165476014Y-59453490D01*
X165710267Y-59464127D01*
X165753791Y-59461805D01*
X165939692Y-59444438D01*
X166081274Y-59403488D01*
X166212011Y-59313230D01*
X166365377Y-59147941D01*
X166574849Y-58881897D01*
X166668793Y-58758667D01*
X166940458Y-58417457D01*
X167146355Y-58200010D01*
X167308619Y-58085355D01*
X167412002Y-58054543D01*
X167533384Y-58046822D01*
X167601576Y-58083699D01*
X167631915Y-58201265D01*
X167639738Y-58435613D01*
X167640000Y-58591064D01*
X167636043Y-58893150D01*
X167612712Y-59070534D01*
X167552814Y-59167836D01*
X167439157Y-59229673D01*
X167386000Y-59250250D01*
X167189489Y-59341750D01*
X167152990Y-59408898D01*
X167278782Y-59452921D01*
X167569145Y-59475047D01*
X167809333Y-59478333D01*
X168136515Y-59468684D01*
X168372845Y-59442629D01*
X168482909Y-59404513D01*
X168486666Y-59395280D01*
X168414827Y-59315028D01*
X168275000Y-59259101D01*
X168063333Y-59205976D01*
X168063333Y-57785000D01*
X167647418Y-57785000D01*
X167258861Y-57785000D01*
X166961202Y-57756908D01*
X166750207Y-57654996D01*
X166662485Y-57577182D01*
X166488126Y-57305464D01*
X166478751Y-57017479D01*
X166611581Y-56763311D01*
X166758527Y-56635671D01*
X166966962Y-56576137D01*
X167183081Y-56563432D01*
X167597666Y-56557333D01*
X167622542Y-57171167D01*
X167647418Y-57785000D01*
X168063333Y-57785000D01*
X168063333Y-56533357D01*
X168275000Y-56480232D01*
X168433673Y-56408553D01*
X168486666Y-56333399D01*
X168419785Y-56290885D01*
X168212293Y-56268940D01*
X167853919Y-56266972D01*
X167511852Y-56277005D01*
G36*
X153142674Y-56251135D02*
G01*
X153034089Y-56457487D01*
X152889391Y-56768306D01*
X152720143Y-57156512D01*
X152537912Y-57595022D01*
X152354263Y-58056755D01*
X152180761Y-58514629D01*
X152054840Y-58866287D01*
X151943644Y-59081804D01*
X151805562Y-59225065D01*
X151798428Y-59229099D01*
X151654687Y-59336533D01*
X151675561Y-59414937D01*
X151858568Y-59462727D01*
X152188333Y-59478333D01*
X152502012Y-59462952D01*
X152690122Y-59421688D01*
X152739492Y-59361857D01*
X152636953Y-59290776D01*
X152569333Y-59266667D01*
X152454998Y-59217574D01*
X152412232Y-59139543D01*
X152440942Y-58993480D01*
X152541035Y-58740288D01*
X152567926Y-58677282D01*
X152735853Y-58285525D01*
X153338712Y-58310429D01*
X153941570Y-58335333D01*
X154102049Y-58758667D01*
X154191261Y-58996006D01*
X154249558Y-59154947D01*
X154262598Y-59193988D01*
X154191758Y-59220714D01*
X154051000Y-59259101D01*
X153892399Y-59328081D01*
X153839333Y-59398144D01*
X153921300Y-59437246D01*
X154157887Y-59459530D01*
X154535129Y-59464043D01*
X154746751Y-59460031D01*
X155654169Y-59436000D01*
X156169753Y-58758667D01*
X156441645Y-58417424D01*
X156647719Y-58199948D01*
X156810091Y-58085297D01*
X156913335Y-58054543D01*
X157034718Y-58046822D01*
X157102909Y-58083699D01*
X157133248Y-58201265D01*
X157141072Y-58435613D01*
X157141333Y-58591064D01*
X157137377Y-58893150D01*
X157114046Y-59070534D01*
X157054148Y-59167836D01*
X156940490Y-59229673D01*
X156887333Y-59250250D01*
X156690822Y-59341750D01*
X156654323Y-59408898D01*
X156780115Y-59452921D01*
X157070478Y-59475047D01*
X157310666Y-59478333D01*
X157637849Y-59468684D01*
X157874178Y-59442629D01*
X157984242Y-59404513D01*
X157988000Y-59395280D01*
X157916160Y-59315028D01*
X157776333Y-59259101D01*
X157564666Y-59205976D01*
X157564666Y-57785000D01*
X157148752Y-57785000D01*
X156760194Y-57785000D01*
X156462535Y-57756908D01*
X156251540Y-57654996D01*
X156163818Y-57577182D01*
X155989460Y-57305464D01*
X155980084Y-57017479D01*
X156112914Y-56763311D01*
X156259861Y-56635671D01*
X156468296Y-56576137D01*
X156684414Y-56563432D01*
X157099000Y-56557333D01*
X157123876Y-57171167D01*
X157148752Y-57785000D01*
X157564666Y-57785000D01*
X157564666Y-56533357D01*
X157776333Y-56480232D01*
X157935006Y-56408553D01*
X157988000Y-56333399D01*
X157921118Y-56290885D01*
X157713626Y-56268940D01*
X157355252Y-56266972D01*
X157013185Y-56277005D01*
X156482561Y-56308460D01*
X156097548Y-56364101D01*
X155834857Y-56456025D01*
X155671199Y-56596330D01*
X155583284Y-56797114D01*
X155549829Y-57037137D01*
X155552528Y-57305777D01*
X155623917Y-57492932D01*
X155751875Y-57642450D01*
X155929090Y-57791273D01*
X156075002Y-57867176D01*
X156094545Y-57869667D01*
X156173798Y-57880921D01*
X156193600Y-57930490D01*
X156143048Y-58042087D01*
X156011233Y-58239422D01*
X155787252Y-58546205D01*
X155777042Y-58559983D01*
X155506055Y-58908332D01*
X155293726Y-59133664D01*
X155112591Y-59258758D01*
X154935185Y-59306394D01*
X154874022Y-59309000D01*
X154743471Y-59282444D01*
X154622186Y-59188457D01*
X154496606Y-59005562D01*
X154353167Y-58712282D01*
X154178309Y-58287138D01*
X154098815Y-58081333D01*
X154082328Y-58039000D01*
X153831745Y-58039000D01*
X153327539Y-58039000D01*
X153060752Y-58035771D01*
X152878101Y-58027384D01*
X152823644Y-58017833D01*
X152854728Y-57897217D01*
X152933226Y-57688750D01*
X153039755Y-57435734D01*
X153154932Y-57181468D01*
X153259375Y-56969253D01*
X153333700Y-56842388D01*
X153356912Y-56826557D01*
X153408503Y-56939334D01*
X153499579Y-57163753D01*
X153611012Y-57452592D01*
X153617950Y-57470998D01*
X153831745Y-58039000D01*
X154082328Y-58039000D01*
X153839335Y-57415111D01*
X153627287Y-56901359D01*
X153458527Y-56531261D01*
X153328911Y-56296000D01*
X153234297Y-56186759D01*
X153203580Y-56176333D01*
X153142674Y-56251135D01*
G37*
X153142674Y-56251135D02*
X153034089Y-56457487D01*
X152889391Y-56768306D01*
X152720143Y-57156512D01*
X152537912Y-57595022D01*
X152354263Y-58056755D01*
X152180761Y-58514629D01*
X152054840Y-58866287D01*
X151943644Y-59081804D01*
X151805562Y-59225065D01*
X151798428Y-59229099D01*
X151654687Y-59336533D01*
X151675561Y-59414937D01*
X151858568Y-59462727D01*
X152188333Y-59478333D01*
X152502012Y-59462952D01*
X152690122Y-59421688D01*
X152739492Y-59361857D01*
X152636953Y-59290776D01*
X152569333Y-59266667D01*
X152454998Y-59217574D01*
X152412232Y-59139543D01*
X152440942Y-58993480D01*
X152541035Y-58740288D01*
X152567926Y-58677282D01*
X152735853Y-58285525D01*
X153338712Y-58310429D01*
X153941570Y-58335333D01*
X154102049Y-58758667D01*
X154191261Y-58996006D01*
X154249558Y-59154947D01*
X154262598Y-59193988D01*
X154191758Y-59220714D01*
X154051000Y-59259101D01*
X153892399Y-59328081D01*
X153839333Y-59398144D01*
X153921300Y-59437246D01*
X154157887Y-59459530D01*
X154535129Y-59464043D01*
X154746751Y-59460031D01*
X155654169Y-59436000D01*
X156169753Y-58758667D01*
X156441645Y-58417424D01*
X156647719Y-58199948D01*
X156810091Y-58085297D01*
X156913335Y-58054543D01*
X157034718Y-58046822D01*
X157102909Y-58083699D01*
X157133248Y-58201265D01*
X157141072Y-58435613D01*
X157141333Y-58591064D01*
X157137377Y-58893150D01*
X157114046Y-59070534D01*
X157054148Y-59167836D01*
X156940490Y-59229673D01*
X156887333Y-59250250D01*
X156690822Y-59341750D01*
X156654323Y-59408898D01*
X156780115Y-59452921D01*
X157070478Y-59475047D01*
X157310666Y-59478333D01*
X157637849Y-59468684D01*
X157874178Y-59442629D01*
X157984242Y-59404513D01*
X157988000Y-59395280D01*
X157916160Y-59315028D01*
X157776333Y-59259101D01*
X157564666Y-59205976D01*
X157564666Y-57785000D01*
X157148752Y-57785000D01*
X156760194Y-57785000D01*
X156462535Y-57756908D01*
X156251540Y-57654996D01*
X156163818Y-57577182D01*
X155989460Y-57305464D01*
X155980084Y-57017479D01*
X156112914Y-56763311D01*
X156259861Y-56635671D01*
X156468296Y-56576137D01*
X156684414Y-56563432D01*
X157099000Y-56557333D01*
X157123876Y-57171167D01*
X157148752Y-57785000D01*
X157564666Y-57785000D01*
X157564666Y-56533357D01*
X157776333Y-56480232D01*
X157935006Y-56408553D01*
X157988000Y-56333399D01*
X157921118Y-56290885D01*
X157713626Y-56268940D01*
X157355252Y-56266972D01*
X157013185Y-56277005D01*
X156482561Y-56308460D01*
X156097548Y-56364101D01*
X155834857Y-56456025D01*
X155671199Y-56596330D01*
X155583284Y-56797114D01*
X155549829Y-57037137D01*
X155552528Y-57305777D01*
X155623917Y-57492932D01*
X155751875Y-57642450D01*
X155929090Y-57791273D01*
X156075002Y-57867176D01*
X156094545Y-57869667D01*
X156173798Y-57880921D01*
X156193600Y-57930490D01*
X156143048Y-58042087D01*
X156011233Y-58239422D01*
X155787252Y-58546205D01*
X155777042Y-58559983D01*
X155506055Y-58908332D01*
X155293726Y-59133664D01*
X155112591Y-59258758D01*
X154935185Y-59306394D01*
X154874022Y-59309000D01*
X154743471Y-59282444D01*
X154622186Y-59188457D01*
X154496606Y-59005562D01*
X154353167Y-58712282D01*
X154178309Y-58287138D01*
X154098815Y-58081333D01*
X154082328Y-58039000D01*
X153831745Y-58039000D01*
X153327539Y-58039000D01*
X153060752Y-58035771D01*
X152878101Y-58027384D01*
X152823644Y-58017833D01*
X152854728Y-57897217D01*
X152933226Y-57688750D01*
X153039755Y-57435734D01*
X153154932Y-57181468D01*
X153259375Y-56969253D01*
X153333700Y-56842388D01*
X153356912Y-56826557D01*
X153408503Y-56939334D01*
X153499579Y-57163753D01*
X153611012Y-57452592D01*
X153617950Y-57470998D01*
X153831745Y-58039000D01*
X154082328Y-58039000D01*
X153839335Y-57415111D01*
X153627287Y-56901359D01*
X153458527Y-56531261D01*
X153328911Y-56296000D01*
X153234297Y-56186759D01*
X153203580Y-56176333D01*
X153142674Y-56251135D01*
G36*
X150156333Y-56261387D02*
G01*
X149741617Y-57467693D01*
X149593109Y-57893428D01*
X149460480Y-58262029D01*
X149354729Y-58543802D01*
X149286857Y-58709048D01*
X149270988Y-58738230D01*
X149226226Y-58685060D01*
X149138940Y-58496518D01*
X149019536Y-58198076D01*
X148878422Y-57815208D01*
X148786747Y-57552896D01*
X148358421Y-56303333D01*
X147796877Y-56278298D01*
X147489371Y-56280349D01*
X147292620Y-56312365D01*
X147222288Y-56365306D01*
X147294037Y-56430131D01*
X147447000Y-56480232D01*
X147658666Y-56533357D01*
X147658666Y-59205976D01*
X147447000Y-59259101D01*
X147264103Y-59325605D01*
X147237550Y-59387415D01*
X147354365Y-59437812D01*
X147601571Y-59470075D01*
X147870333Y-59478333D01*
X148240788Y-59466541D01*
X148446104Y-59430185D01*
X148488893Y-59367791D01*
X148371766Y-59277889D01*
X148293666Y-59239739D01*
X148082000Y-59143297D01*
X148082000Y-57815037D01*
X148085709Y-57368309D01*
X148095956Y-56993533D01*
X148111419Y-56717562D01*
X148130778Y-56567248D01*
X148144292Y-56549070D01*
X148192180Y-56645432D01*
X148286599Y-56874363D01*
X148417047Y-57208995D01*
X148573021Y-57622456D01*
X148720691Y-58023681D01*
X148935323Y-58594700D01*
X149111352Y-59023410D01*
X149246025Y-59303673D01*
X149336588Y-59429346D01*
X149354028Y-59436000D01*
X149430857Y-59355005D01*
X149551193Y-59114477D01*
X149713444Y-58718100D01*
X149916020Y-58169558D01*
X149984130Y-57976698D01*
X150149768Y-57512932D01*
X150300010Y-57109837D01*
X150424955Y-56792588D01*
X150514702Y-56586360D01*
X150558500Y-56516198D01*
X150580243Y-56595640D01*
X150598780Y-56815673D01*
X150612720Y-57147569D01*
X150620676Y-57562594D01*
X150622000Y-57829429D01*
X150622000Y-59143858D01*
X150410333Y-59224333D01*
X150230551Y-59317929D01*
X150212193Y-59394945D01*
X150347703Y-59449712D01*
X150629524Y-59476562D01*
X150749000Y-59478333D01*
X151029841Y-59466674D01*
X151227955Y-59436138D01*
X151299333Y-59395280D01*
X151227493Y-59315028D01*
X151087666Y-59259101D01*
X150876000Y-59205976D01*
X150876000Y-56533357D01*
X151087666Y-56480232D01*
X151268560Y-56413200D01*
X151293794Y-56349773D01*
X151176981Y-56298238D01*
X150931730Y-56266878D01*
X150727833Y-56261193D01*
X150156333Y-56261387D01*
G37*
X150156333Y-56261387D02*
X149741617Y-57467693D01*
X149593109Y-57893428D01*
X149460480Y-58262029D01*
X149354729Y-58543802D01*
X149286857Y-58709048D01*
X149270988Y-58738230D01*
X149226226Y-58685060D01*
X149138940Y-58496518D01*
X149019536Y-58198076D01*
X148878422Y-57815208D01*
X148786747Y-57552896D01*
X148358421Y-56303333D01*
X147796877Y-56278298D01*
X147489371Y-56280349D01*
X147292620Y-56312365D01*
X147222288Y-56365306D01*
X147294037Y-56430131D01*
X147447000Y-56480232D01*
X147658666Y-56533357D01*
X147658666Y-59205976D01*
X147447000Y-59259101D01*
X147264103Y-59325605D01*
X147237550Y-59387415D01*
X147354365Y-59437812D01*
X147601571Y-59470075D01*
X147870333Y-59478333D01*
X148240788Y-59466541D01*
X148446104Y-59430185D01*
X148488893Y-59367791D01*
X148371766Y-59277889D01*
X148293666Y-59239739D01*
X148082000Y-59143297D01*
X148082000Y-57815037D01*
X148085709Y-57368309D01*
X148095956Y-56993533D01*
X148111419Y-56717562D01*
X148130778Y-56567248D01*
X148144292Y-56549070D01*
X148192180Y-56645432D01*
X148286599Y-56874363D01*
X148417047Y-57208995D01*
X148573021Y-57622456D01*
X148720691Y-58023681D01*
X148935323Y-58594700D01*
X149111352Y-59023410D01*
X149246025Y-59303673D01*
X149336588Y-59429346D01*
X149354028Y-59436000D01*
X149430857Y-59355005D01*
X149551193Y-59114477D01*
X149713444Y-58718100D01*
X149916020Y-58169558D01*
X149984130Y-57976698D01*
X150149768Y-57512932D01*
X150300010Y-57109837D01*
X150424955Y-56792588D01*
X150514702Y-56586360D01*
X150558500Y-56516198D01*
X150580243Y-56595640D01*
X150598780Y-56815673D01*
X150612720Y-57147569D01*
X150620676Y-57562594D01*
X150622000Y-57829429D01*
X150622000Y-59143858D01*
X150410333Y-59224333D01*
X150230551Y-59317929D01*
X150212193Y-59394945D01*
X150347703Y-59449712D01*
X150629524Y-59476562D01*
X150749000Y-59478333D01*
X151029841Y-59466674D01*
X151227955Y-59436138D01*
X151299333Y-59395280D01*
X151227493Y-59315028D01*
X151087666Y-59259101D01*
X150876000Y-59205976D01*
X150876000Y-56533357D01*
X151087666Y-56480232D01*
X151268560Y-56413200D01*
X151293794Y-56349773D01*
X151176981Y-56298238D01*
X150931730Y-56266878D01*
X150727833Y-56261193D01*
X150156333Y-56261387D01*
G36*
X145584333Y-56261387D02*
G01*
X145169617Y-57467693D01*
X145021109Y-57893428D01*
X144888480Y-58262029D01*
X144782729Y-58543802D01*
X144714857Y-58709048D01*
X144698988Y-58738230D01*
X144654226Y-58685060D01*
X144566940Y-58496518D01*
X144447536Y-58198076D01*
X144306422Y-57815208D01*
X144214747Y-57552896D01*
X143786421Y-56303333D01*
X143224877Y-56278298D01*
X142917371Y-56280349D01*
X142720620Y-56312365D01*
X142650288Y-56365306D01*
X142722037Y-56430131D01*
X142875000Y-56480232D01*
X143086666Y-56533357D01*
X143086666Y-59205976D01*
X142875000Y-59259101D01*
X142692103Y-59325605D01*
X142665550Y-59387415D01*
X142782365Y-59437812D01*
X143029571Y-59470075D01*
X143298333Y-59478333D01*
X143668788Y-59466541D01*
X143874104Y-59430185D01*
X143916893Y-59367791D01*
X143799766Y-59277889D01*
X143721666Y-59239739D01*
X143510000Y-59143297D01*
X143510000Y-57815037D01*
X143513709Y-57368309D01*
X143523956Y-56993533D01*
X143539419Y-56717562D01*
X143558778Y-56567248D01*
X143572292Y-56549070D01*
X143620180Y-56645432D01*
X143714599Y-56874363D01*
X143845047Y-57208995D01*
X144001021Y-57622456D01*
X144148691Y-58023681D01*
X144363323Y-58594700D01*
X144539352Y-59023410D01*
X144674025Y-59303673D01*
X144764588Y-59429346D01*
X144782028Y-59436000D01*
X144858857Y-59355005D01*
X144979193Y-59114477D01*
X145141444Y-58718100D01*
X145344020Y-58169558D01*
X145412130Y-57976698D01*
X145577768Y-57512932D01*
X145728010Y-57109837D01*
X145852955Y-56792588D01*
X145942702Y-56586360D01*
X145986500Y-56516198D01*
X146008243Y-56595640D01*
X146026780Y-56815673D01*
X146040720Y-57147569D01*
X146048676Y-57562594D01*
X146050000Y-57829429D01*
X146050000Y-59143858D01*
X145838333Y-59224333D01*
X145658551Y-59317929D01*
X145640193Y-59394945D01*
X145775703Y-59449712D01*
X146057524Y-59476562D01*
X146177000Y-59478333D01*
X146457841Y-59466674D01*
X146655955Y-59436138D01*
X146727333Y-59395280D01*
X146655493Y-59315028D01*
X146515666Y-59259101D01*
X146304000Y-59205976D01*
X146304000Y-56533357D01*
X146515666Y-56480232D01*
X146696560Y-56413200D01*
X146721794Y-56349773D01*
X146604981Y-56298238D01*
X146359730Y-56266878D01*
X146155833Y-56261193D01*
X145584333Y-56261387D01*
G37*
X145584333Y-56261387D02*
X145169617Y-57467693D01*
X145021109Y-57893428D01*
X144888480Y-58262029D01*
X144782729Y-58543802D01*
X144714857Y-58709048D01*
X144698988Y-58738230D01*
X144654226Y-58685060D01*
X144566940Y-58496518D01*
X144447536Y-58198076D01*
X144306422Y-57815208D01*
X144214747Y-57552896D01*
X143786421Y-56303333D01*
X143224877Y-56278298D01*
X142917371Y-56280349D01*
X142720620Y-56312365D01*
X142650288Y-56365306D01*
X142722037Y-56430131D01*
X142875000Y-56480232D01*
X143086666Y-56533357D01*
X143086666Y-59205976D01*
X142875000Y-59259101D01*
X142692103Y-59325605D01*
X142665550Y-59387415D01*
X142782365Y-59437812D01*
X143029571Y-59470075D01*
X143298333Y-59478333D01*
X143668788Y-59466541D01*
X143874104Y-59430185D01*
X143916893Y-59367791D01*
X143799766Y-59277889D01*
X143721666Y-59239739D01*
X143510000Y-59143297D01*
X143510000Y-57815037D01*
X143513709Y-57368309D01*
X143523956Y-56993533D01*
X143539419Y-56717562D01*
X143558778Y-56567248D01*
X143572292Y-56549070D01*
X143620180Y-56645432D01*
X143714599Y-56874363D01*
X143845047Y-57208995D01*
X144001021Y-57622456D01*
X144148691Y-58023681D01*
X144363323Y-58594700D01*
X144539352Y-59023410D01*
X144674025Y-59303673D01*
X144764588Y-59429346D01*
X144782028Y-59436000D01*
X144858857Y-59355005D01*
X144979193Y-59114477D01*
X145141444Y-58718100D01*
X145344020Y-58169558D01*
X145412130Y-57976698D01*
X145577768Y-57512932D01*
X145728010Y-57109837D01*
X145852955Y-56792588D01*
X145942702Y-56586360D01*
X145986500Y-56516198D01*
X146008243Y-56595640D01*
X146026780Y-56815673D01*
X146040720Y-57147569D01*
X146048676Y-57562594D01*
X146050000Y-57829429D01*
X146050000Y-59143858D01*
X145838333Y-59224333D01*
X145658551Y-59317929D01*
X145640193Y-59394945D01*
X145775703Y-59449712D01*
X146057524Y-59476562D01*
X146177000Y-59478333D01*
X146457841Y-59466674D01*
X146655955Y-59436138D01*
X146727333Y-59395280D01*
X146655493Y-59315028D01*
X146515666Y-59259101D01*
X146304000Y-59205976D01*
X146304000Y-56533357D01*
X146515666Y-56480232D01*
X146696560Y-56413200D01*
X146721794Y-56349773D01*
X146604981Y-56298238D01*
X146359730Y-56266878D01*
X146155833Y-56261193D01*
X145584333Y-56261387D01*
G36*
X141125379Y-56274057D02*
G01*
X140893799Y-56309306D01*
X140795760Y-56360861D01*
X140843759Y-56422840D01*
X141012333Y-56480232D01*
X141224000Y-56533357D01*
X141224000Y-59205976D01*
X141012333Y-59259101D01*
X140828154Y-59325345D01*
X140800809Y-59386248D01*
X140917798Y-59435927D01*
X141166623Y-59468495D01*
X141478000Y-59478333D01*
X141792547Y-59470724D01*
X142029412Y-59450502D01*
X142148532Y-59421577D01*
X142155333Y-59412229D01*
X142084826Y-59340022D01*
X141913863Y-59255059D01*
X141901333Y-59250250D01*
X141647333Y-59154375D01*
X141647333Y-56590858D01*
X141901333Y-56502313D01*
X142102550Y-56412206D01*
X142138207Y-56341619D01*
X142011131Y-56292162D01*
X141724145Y-56265445D01*
X141478000Y-56261000D01*
X141125379Y-56274057D01*
G37*
X141125379Y-56274057D02*
X140893799Y-56309306D01*
X140795760Y-56360861D01*
X140843759Y-56422840D01*
X141012333Y-56480232D01*
X141224000Y-56533357D01*
X141224000Y-59205976D01*
X141012333Y-59259101D01*
X140828154Y-59325345D01*
X140800809Y-59386248D01*
X140917798Y-59435927D01*
X141166623Y-59468495D01*
X141478000Y-59478333D01*
X141792547Y-59470724D01*
X142029412Y-59450502D01*
X142148532Y-59421577D01*
X142155333Y-59412229D01*
X142084826Y-59340022D01*
X141913863Y-59255059D01*
X141901333Y-59250250D01*
X141647333Y-59154375D01*
X141647333Y-56590858D01*
X141901333Y-56502313D01*
X142102550Y-56412206D01*
X142138207Y-56341619D01*
X142011131Y-56292162D01*
X141724145Y-56265445D01*
X141478000Y-56261000D01*
X141125379Y-56274057D01*
G36*
X138561438Y-57467500D02*
G01*
X138283406Y-57867213D01*
X138036120Y-58220481D01*
X137836817Y-58502857D01*
X137702734Y-58689893D01*
X137654025Y-58754433D01*
X137628125Y-58705647D01*
X137606486Y-58515794D01*
X137591030Y-58213125D01*
X137583680Y-57825891D01*
X137583333Y-57715451D01*
X137584290Y-57261851D01*
X137590554Y-56948356D01*
X137607213Y-56745740D01*
X137639355Y-56624776D01*
X137692068Y-56556237D01*
X137770439Y-56510895D01*
X137795000Y-56499594D01*
X137969771Y-56396913D01*
X137979024Y-56323173D01*
X137822274Y-56278031D01*
X137499036Y-56261147D01*
X137456333Y-56261000D01*
X137115946Y-56274997D01*
X136942096Y-56317217D01*
X136934300Y-56388000D01*
X137092071Y-56487689D01*
X137117666Y-56499594D01*
X137329333Y-56596036D01*
X137329333Y-57903260D01*
X137332110Y-58465075D01*
X137342230Y-58878788D01*
X137362377Y-59165569D01*
X137395236Y-59346584D01*
X137443492Y-59443003D01*
X137509830Y-59475993D01*
X137528892Y-59476821D01*
X137605958Y-59410300D01*
X137762601Y-59226064D01*
X137982013Y-58945624D01*
X138247384Y-58590490D01*
X138541903Y-58182173D01*
X138554442Y-58164488D01*
X138847889Y-57755019D01*
X139110224Y-57397817D01*
X139325204Y-57114284D01*
X139476587Y-56925819D01*
X139548131Y-56853825D01*
X139549276Y-56853667D01*
X139573401Y-56933190D01*
X139593578Y-57151214D01*
X139608028Y-57476920D01*
X139614975Y-57879490D01*
X139615333Y-57998762D01*
X139614493Y-58458174D01*
X139608695Y-58776708D01*
X139593024Y-58982821D01*
X139562567Y-59104969D01*
X139512409Y-59171609D01*
X139437635Y-59211195D01*
X139403666Y-59224333D01*
X139223884Y-59317929D01*
X139205527Y-59394945D01*
X139341037Y-59449712D01*
X139622858Y-59476562D01*
X139742333Y-59478333D01*
X140023174Y-59466674D01*
X140221289Y-59436138D01*
X140292666Y-59395280D01*
X140220827Y-59315028D01*
X140081000Y-59259101D01*
X139869333Y-59205976D01*
X139869333Y-56533357D01*
X140081000Y-56480232D01*
X140259020Y-56411182D01*
X140281963Y-56343219D01*
X140163672Y-56289227D01*
X139917992Y-56262089D01*
X139845413Y-56261000D01*
X139398159Y-56261000D01*
X138561438Y-57467500D01*
G37*
X138561438Y-57467500D02*
X138283406Y-57867213D01*
X138036120Y-58220481D01*
X137836817Y-58502857D01*
X137702734Y-58689893D01*
X137654025Y-58754433D01*
X137628125Y-58705647D01*
X137606486Y-58515794D01*
X137591030Y-58213125D01*
X137583680Y-57825891D01*
X137583333Y-57715451D01*
X137584290Y-57261851D01*
X137590554Y-56948356D01*
X137607213Y-56745740D01*
X137639355Y-56624776D01*
X137692068Y-56556237D01*
X137770439Y-56510895D01*
X137795000Y-56499594D01*
X137969771Y-56396913D01*
X137979024Y-56323173D01*
X137822274Y-56278031D01*
X137499036Y-56261147D01*
X137456333Y-56261000D01*
X137115946Y-56274997D01*
X136942096Y-56317217D01*
X136934300Y-56388000D01*
X137092071Y-56487689D01*
X137117666Y-56499594D01*
X137329333Y-56596036D01*
X137329333Y-57903260D01*
X137332110Y-58465075D01*
X137342230Y-58878788D01*
X137362377Y-59165569D01*
X137395236Y-59346584D01*
X137443492Y-59443003D01*
X137509830Y-59475993D01*
X137528892Y-59476821D01*
X137605958Y-59410300D01*
X137762601Y-59226064D01*
X137982013Y-58945624D01*
X138247384Y-58590490D01*
X138541903Y-58182173D01*
X138554442Y-58164488D01*
X138847889Y-57755019D01*
X139110224Y-57397817D01*
X139325204Y-57114284D01*
X139476587Y-56925819D01*
X139548131Y-56853825D01*
X139549276Y-56853667D01*
X139573401Y-56933190D01*
X139593578Y-57151214D01*
X139608028Y-57476920D01*
X139614975Y-57879490D01*
X139615333Y-57998762D01*
X139614493Y-58458174D01*
X139608695Y-58776708D01*
X139593024Y-58982821D01*
X139562567Y-59104969D01*
X139512409Y-59171609D01*
X139437635Y-59211195D01*
X139403666Y-59224333D01*
X139223884Y-59317929D01*
X139205527Y-59394945D01*
X139341037Y-59449712D01*
X139622858Y-59476562D01*
X139742333Y-59478333D01*
X140023174Y-59466674D01*
X140221289Y-59436138D01*
X140292666Y-59395280D01*
X140220827Y-59315028D01*
X140081000Y-59259101D01*
X139869333Y-59205976D01*
X139869333Y-56533357D01*
X140081000Y-56480232D01*
X140259020Y-56411182D01*
X140281963Y-56343219D01*
X140163672Y-56289227D01*
X139917992Y-56262089D01*
X139845413Y-56261000D01*
X139398159Y-56261000D01*
X138561438Y-57467500D01*
G36*
X151248972Y-51075990D02*
G01*
X150939500Y-51148886D01*
X150846535Y-51216575D01*
X150801543Y-51375699D01*
X150791333Y-51617094D01*
X150805660Y-51884048D01*
X150851805Y-52001344D01*
X150897166Y-52007026D01*
X150984727Y-51905718D01*
X151029865Y-51745198D01*
X151131309Y-51519637D01*
X151343916Y-51367585D01*
X151622073Y-51298557D01*
X151920167Y-51322069D01*
X152192587Y-51447633D01*
X152246278Y-51491461D01*
X152388060Y-51703832D01*
X152370611Y-51926267D01*
X152202418Y-52145522D01*
X151891972Y-52348353D01*
X151623502Y-52463082D01*
X151175467Y-52651271D01*
X150874388Y-52844273D01*
X150698660Y-53063075D01*
X150626680Y-53328666D01*
X150622000Y-53436041D01*
X150689220Y-53806230D01*
X150894273Y-54082845D01*
X151242250Y-54271955D01*
X151352019Y-54306229D01*
X151643077Y-54372234D01*
X151896606Y-54383027D01*
X152189153Y-54337108D01*
X152400000Y-54285686D01*
X152781000Y-54186667D01*
X152806890Y-53733536D01*
X152812096Y-53463482D01*
X152784214Y-53333914D01*
X152722224Y-53316732D01*
X152631688Y-53419216D01*
X152584398Y-53584318D01*
X152479098Y-53821779D01*
X152255556Y-54003664D01*
X151960560Y-54112334D01*
X151640898Y-54130146D01*
X151357267Y-54046992D01*
X151144762Y-53892648D01*
X151057041Y-53687150D01*
X151046630Y-53533798D01*
X151108287Y-53290232D01*
X151305385Y-53086956D01*
X151651581Y-52912328D01*
X151860650Y-52839673D01*
X152292153Y-52663326D01*
X152571216Y-52447429D01*
X152712972Y-52176792D01*
X152738666Y-51958266D01*
X152667060Y-51589290D01*
X152464259Y-51308464D01*
X152148292Y-51123898D01*
X151737187Y-51043704D01*
X151248972Y-51075990D01*
G37*
X151248972Y-51075990D02*
X150939500Y-51148886D01*
X150846535Y-51216575D01*
X150801543Y-51375699D01*
X150791333Y-51617094D01*
X150805660Y-51884048D01*
X150851805Y-52001344D01*
X150897166Y-52007026D01*
X150984727Y-51905718D01*
X151029865Y-51745198D01*
X151131309Y-51519637D01*
X151343916Y-51367585D01*
X151622073Y-51298557D01*
X151920167Y-51322069D01*
X152192587Y-51447633D01*
X152246278Y-51491461D01*
X152388060Y-51703832D01*
X152370611Y-51926267D01*
X152202418Y-52145522D01*
X151891972Y-52348353D01*
X151623502Y-52463082D01*
X151175467Y-52651271D01*
X150874388Y-52844273D01*
X150698660Y-53063075D01*
X150626680Y-53328666D01*
X150622000Y-53436041D01*
X150689220Y-53806230D01*
X150894273Y-54082845D01*
X151242250Y-54271955D01*
X151352019Y-54306229D01*
X151643077Y-54372234D01*
X151896606Y-54383027D01*
X152189153Y-54337108D01*
X152400000Y-54285686D01*
X152781000Y-54186667D01*
X152806890Y-53733536D01*
X152812096Y-53463482D01*
X152784214Y-53333914D01*
X152722224Y-53316732D01*
X152631688Y-53419216D01*
X152584398Y-53584318D01*
X152479098Y-53821779D01*
X152255556Y-54003664D01*
X151960560Y-54112334D01*
X151640898Y-54130146D01*
X151357267Y-54046992D01*
X151144762Y-53892648D01*
X151057041Y-53687150D01*
X151046630Y-53533798D01*
X151108287Y-53290232D01*
X151305385Y-53086956D01*
X151651581Y-52912328D01*
X151860650Y-52839673D01*
X152292153Y-52663326D01*
X152571216Y-52447429D01*
X152712972Y-52176792D01*
X152738666Y-51958266D01*
X152667060Y-51589290D01*
X152464259Y-51308464D01*
X152148292Y-51123898D01*
X151737187Y-51043704D01*
X151248972Y-51075990D01*
G36*
X146311685Y-51050002D02*
G01*
X145950932Y-51112113D01*
X145724823Y-51163296D01*
X145602064Y-51226361D01*
X145551360Y-51324122D01*
X145541418Y-51479388D01*
X145542000Y-51611060D01*
X145563271Y-51874808D01*
X145616246Y-52007850D01*
X145684664Y-51998707D01*
X145752264Y-51835899D01*
X145767102Y-51769987D01*
X145898119Y-51517813D01*
X146155538Y-51343834D01*
X146506597Y-51268450D01*
X146574962Y-51266915D01*
X146987557Y-51341292D01*
X147309519Y-51552988D01*
X147531812Y-51890944D01*
X147645401Y-52344102D01*
X147658666Y-52593240D01*
X147639042Y-52933406D01*
X147588318Y-53251107D01*
X147536761Y-53425532D01*
X147321108Y-53739941D01*
X147003293Y-53952277D01*
X146622881Y-54053128D01*
X146219440Y-54033084D01*
X145832536Y-53882735D01*
X145773321Y-53844948D01*
X145579930Y-53718670D01*
X145487658Y-53684792D01*
X145459243Y-53738118D01*
X145457333Y-53800893D01*
X145535359Y-53971544D01*
X145742984Y-54125088D01*
X146040526Y-54248709D01*
X146388307Y-54329591D01*
X146746644Y-54354917D01*
X147055602Y-54317126D01*
X147495652Y-54128162D01*
X147828688Y-53810939D01*
X148048835Y-53373009D01*
X148141863Y-52920859D01*
X148123262Y-52401732D01*
X147970643Y-51935216D01*
X147705406Y-51543186D01*
X147348951Y-51247518D01*
X146922679Y-51070088D01*
X146447988Y-51032771D01*
X146311685Y-51050002D01*
G37*
X146311685Y-51050002D02*
X145950932Y-51112113D01*
X145724823Y-51163296D01*
X145602064Y-51226361D01*
X145551360Y-51324122D01*
X145541418Y-51479388D01*
X145542000Y-51611060D01*
X145563271Y-51874808D01*
X145616246Y-52007850D01*
X145684664Y-51998707D01*
X145752264Y-51835899D01*
X145767102Y-51769987D01*
X145898119Y-51517813D01*
X146155538Y-51343834D01*
X146506597Y-51268450D01*
X146574962Y-51266915D01*
X146987557Y-51341292D01*
X147309519Y-51552988D01*
X147531812Y-51890944D01*
X147645401Y-52344102D01*
X147658666Y-52593240D01*
X147639042Y-52933406D01*
X147588318Y-53251107D01*
X147536761Y-53425532D01*
X147321108Y-53739941D01*
X147003293Y-53952277D01*
X146622881Y-54053128D01*
X146219440Y-54033084D01*
X145832536Y-53882735D01*
X145773321Y-53844948D01*
X145579930Y-53718670D01*
X145487658Y-53684792D01*
X145459243Y-53738118D01*
X145457333Y-53800893D01*
X145535359Y-53971544D01*
X145742984Y-54125088D01*
X146040526Y-54248709D01*
X146388307Y-54329591D01*
X146746644Y-54354917D01*
X147055602Y-54317126D01*
X147495652Y-54128162D01*
X147828688Y-53810939D01*
X148048835Y-53373009D01*
X148141863Y-52920859D01*
X148123262Y-52401732D01*
X147970643Y-51935216D01*
X147705406Y-51543186D01*
X147348951Y-51247518D01*
X146922679Y-51070088D01*
X146447988Y-51032771D01*
X146311685Y-51050002D01*
G36*
X158406506Y-51103062D02*
G01*
X158038077Y-51130047D01*
X157691808Y-51170002D01*
X157405659Y-51220730D01*
X157217588Y-51280037D01*
X157194705Y-51292982D01*
X156982604Y-51518782D01*
X156902818Y-51799316D01*
X156951333Y-52088873D01*
X157124136Y-52341745D01*
X157297427Y-52462878D01*
X157570437Y-52601757D01*
X157297883Y-52696769D01*
X156972424Y-52851334D01*
X156788822Y-53054799D01*
X156720299Y-53340703D01*
X156718000Y-53423030D01*
X156789389Y-53776808D01*
X157003316Y-54039336D01*
X157359418Y-54210214D01*
X157450650Y-54234051D01*
X157689086Y-54271182D01*
X158004477Y-54295992D01*
X158356955Y-54308551D01*
X158706650Y-54308932D01*
X159013692Y-54297209D01*
X159238213Y-54273452D01*
X159340343Y-54237736D01*
X159342666Y-54230613D01*
X159270827Y-54150362D01*
X159131000Y-54094434D01*
X158919333Y-54041309D01*
X158919333Y-53689230D01*
X158490852Y-53689230D01*
X158464404Y-53909398D01*
X158376743Y-54021184D01*
X158204549Y-54054752D01*
X157930277Y-54040742D01*
X157610021Y-53995107D01*
X157406228Y-53911236D01*
X157296601Y-53809321D01*
X157157714Y-53523397D01*
X157184610Y-53229930D01*
X157294368Y-53042769D01*
X157418636Y-52930187D01*
X157593677Y-52869685D01*
X157872721Y-52845047D01*
X157950535Y-52842890D01*
X158453666Y-52832000D01*
X158479407Y-53330520D01*
X158490852Y-53689230D01*
X158919333Y-53689230D01*
X158919333Y-52535667D01*
X158503737Y-52535667D01*
X158115020Y-52535667D01*
X157820668Y-52508537D01*
X157610713Y-52408369D01*
X157510376Y-52319739D01*
X157362076Y-52127918D01*
X157337497Y-51941581D01*
X157350462Y-51875239D01*
X157460319Y-51610244D01*
X157650911Y-51460049D01*
X157956528Y-51401237D01*
X158049050Y-51398141D01*
X158453666Y-51392667D01*
X158478702Y-51964167D01*
X158503737Y-52535667D01*
X158919333Y-52535667D01*
X158919333Y-51368690D01*
X159131000Y-51315565D01*
X159289673Y-51243886D01*
X159342666Y-51168733D01*
X159265177Y-51121882D01*
X159058015Y-51096784D01*
X158759139Y-51091243D01*
X158406506Y-51103062D01*
G37*
X158406506Y-51103062D02*
X158038077Y-51130047D01*
X157691808Y-51170002D01*
X157405659Y-51220730D01*
X157217588Y-51280037D01*
X157194705Y-51292982D01*
X156982604Y-51518782D01*
X156902818Y-51799316D01*
X156951333Y-52088873D01*
X157124136Y-52341745D01*
X157297427Y-52462878D01*
X157570437Y-52601757D01*
X157297883Y-52696769D01*
X156972424Y-52851334D01*
X156788822Y-53054799D01*
X156720299Y-53340703D01*
X156718000Y-53423030D01*
X156789389Y-53776808D01*
X157003316Y-54039336D01*
X157359418Y-54210214D01*
X157450650Y-54234051D01*
X157689086Y-54271182D01*
X158004477Y-54295992D01*
X158356955Y-54308551D01*
X158706650Y-54308932D01*
X159013692Y-54297209D01*
X159238213Y-54273452D01*
X159340343Y-54237736D01*
X159342666Y-54230613D01*
X159270827Y-54150362D01*
X159131000Y-54094434D01*
X158919333Y-54041309D01*
X158919333Y-53689230D01*
X158490852Y-53689230D01*
X158464404Y-53909398D01*
X158376743Y-54021184D01*
X158204549Y-54054752D01*
X157930277Y-54040742D01*
X157610021Y-53995107D01*
X157406228Y-53911236D01*
X157296601Y-53809321D01*
X157157714Y-53523397D01*
X157184610Y-53229930D01*
X157294368Y-53042769D01*
X157418636Y-52930187D01*
X157593677Y-52869685D01*
X157872721Y-52845047D01*
X157950535Y-52842890D01*
X158453666Y-52832000D01*
X158479407Y-53330520D01*
X158490852Y-53689230D01*
X158919333Y-53689230D01*
X158919333Y-52535667D01*
X158503737Y-52535667D01*
X158115020Y-52535667D01*
X157820668Y-52508537D01*
X157610713Y-52408369D01*
X157510376Y-52319739D01*
X157362076Y-52127918D01*
X157337497Y-51941581D01*
X157350462Y-51875239D01*
X157460319Y-51610244D01*
X157650911Y-51460049D01*
X157956528Y-51401237D01*
X158049050Y-51398141D01*
X158453666Y-51392667D01*
X158478702Y-51964167D01*
X158503737Y-52535667D01*
X158919333Y-52535667D01*
X158919333Y-51368690D01*
X159131000Y-51315565D01*
X159289673Y-51243886D01*
X159342666Y-51168733D01*
X159265177Y-51121882D01*
X159058015Y-51096784D01*
X158759139Y-51091243D01*
X158406506Y-51103062D01*
G36*
X154751341Y-51086469D02*
G01*
X154642756Y-51292820D01*
X154498057Y-51603640D01*
X154328810Y-51991845D01*
X154146579Y-52430356D01*
X153962930Y-52892089D01*
X153789428Y-53349962D01*
X153663507Y-53701620D01*
X153552310Y-53917137D01*
X153414229Y-54060398D01*
X153407094Y-54064433D01*
X153263354Y-54171866D01*
X153284227Y-54250271D01*
X153467235Y-54298061D01*
X153797000Y-54313667D01*
X154110679Y-54298286D01*
X154298789Y-54257021D01*
X154348159Y-54197190D01*
X154245620Y-54126109D01*
X154178000Y-54102000D01*
X154063665Y-54052907D01*
X154020899Y-53974877D01*
X154049609Y-53828813D01*
X154149701Y-53575621D01*
X154176593Y-53512615D01*
X154344520Y-53120858D01*
X154947378Y-53145762D01*
X155550237Y-53170667D01*
X155710716Y-53594000D01*
X155799928Y-53831340D01*
X155858225Y-53990280D01*
X155871264Y-54029321D01*
X155800425Y-54056047D01*
X155659666Y-54094434D01*
X155480440Y-54162308D01*
X155456435Y-54227807D01*
X155573724Y-54280627D01*
X155818380Y-54310466D01*
X155956000Y-54313667D01*
X156223962Y-54306640D01*
X156408040Y-54288377D01*
X156464000Y-54267272D01*
X156407976Y-54184100D01*
X156271957Y-54045123D01*
X156260369Y-54034439D01*
X156143529Y-53874509D01*
X155992411Y-53590748D01*
X155825461Y-53220242D01*
X155704329Y-52916667D01*
X155687960Y-52874333D01*
X155440411Y-52874333D01*
X154936206Y-52874333D01*
X154669419Y-52871104D01*
X154486768Y-52862718D01*
X154432311Y-52853167D01*
X154463394Y-52732550D01*
X154541892Y-52524083D01*
X154648421Y-52271067D01*
X154763599Y-52016801D01*
X154868042Y-51804586D01*
X154942367Y-51677722D01*
X154965579Y-51661890D01*
X155017170Y-51774668D01*
X155108245Y-51999087D01*
X155219678Y-52287925D01*
X155226616Y-52306332D01*
X155440411Y-52874333D01*
X155687960Y-52874333D01*
X155444179Y-52243868D01*
X155230753Y-51725174D01*
X155060494Y-51352992D01*
X154929848Y-51119728D01*
X154835258Y-51017791D01*
X154812247Y-51011667D01*
X154751341Y-51086469D01*
G37*
X154751341Y-51086469D02*
X154642756Y-51292820D01*
X154498057Y-51603640D01*
X154328810Y-51991845D01*
X154146579Y-52430356D01*
X153962930Y-52892089D01*
X153789428Y-53349962D01*
X153663507Y-53701620D01*
X153552310Y-53917137D01*
X153414229Y-54060398D01*
X153407094Y-54064433D01*
X153263354Y-54171866D01*
X153284227Y-54250271D01*
X153467235Y-54298061D01*
X153797000Y-54313667D01*
X154110679Y-54298286D01*
X154298789Y-54257021D01*
X154348159Y-54197190D01*
X154245620Y-54126109D01*
X154178000Y-54102000D01*
X154063665Y-54052907D01*
X154020899Y-53974877D01*
X154049609Y-53828813D01*
X154149701Y-53575621D01*
X154176593Y-53512615D01*
X154344520Y-53120858D01*
X154947378Y-53145762D01*
X155550237Y-53170667D01*
X155710716Y-53594000D01*
X155799928Y-53831340D01*
X155858225Y-53990280D01*
X155871264Y-54029321D01*
X155800425Y-54056047D01*
X155659666Y-54094434D01*
X155480440Y-54162308D01*
X155456435Y-54227807D01*
X155573724Y-54280627D01*
X155818380Y-54310466D01*
X155956000Y-54313667D01*
X156223962Y-54306640D01*
X156408040Y-54288377D01*
X156464000Y-54267272D01*
X156407976Y-54184100D01*
X156271957Y-54045123D01*
X156260369Y-54034439D01*
X156143529Y-53874509D01*
X155992411Y-53590748D01*
X155825461Y-53220242D01*
X155704329Y-52916667D01*
X155687960Y-52874333D01*
X155440411Y-52874333D01*
X154936206Y-52874333D01*
X154669419Y-52871104D01*
X154486768Y-52862718D01*
X154432311Y-52853167D01*
X154463394Y-52732550D01*
X154541892Y-52524083D01*
X154648421Y-52271067D01*
X154763599Y-52016801D01*
X154868042Y-51804586D01*
X154942367Y-51677722D01*
X154965579Y-51661890D01*
X155017170Y-51774668D01*
X155108245Y-51999087D01*
X155219678Y-52287925D01*
X155226616Y-52306332D01*
X155440411Y-52874333D01*
X155687960Y-52874333D01*
X155444179Y-52243868D01*
X155230753Y-51725174D01*
X155060494Y-51352992D01*
X154929848Y-51119728D01*
X154835258Y-51017791D01*
X154812247Y-51011667D01*
X154751341Y-51086469D01*
G36*
X148999379Y-51109390D02*
G01*
X148767799Y-51144639D01*
X148669760Y-51196195D01*
X148717759Y-51258173D01*
X148886333Y-51315565D01*
X149098000Y-51368690D01*
X149098000Y-54041309D01*
X148886333Y-54094434D01*
X148702154Y-54160678D01*
X148674809Y-54221582D01*
X148791798Y-54271260D01*
X149040623Y-54303828D01*
X149352000Y-54313667D01*
X149666547Y-54306057D01*
X149903412Y-54285835D01*
X150022532Y-54256911D01*
X150029333Y-54247562D01*
X149958826Y-54175355D01*
X149787863Y-54090393D01*
X149775333Y-54085583D01*
X149521333Y-53989709D01*
X149521333Y-51426191D01*
X149775333Y-51337646D01*
X149976550Y-51247540D01*
X150012207Y-51176953D01*
X149885131Y-51127496D01*
X149598145Y-51100779D01*
X149352000Y-51096333D01*
X148999379Y-51109390D01*
G37*
X148999379Y-51109390D02*
X148767799Y-51144639D01*
X148669760Y-51196195D01*
X148717759Y-51258173D01*
X148886333Y-51315565D01*
X149098000Y-51368690D01*
X149098000Y-54041309D01*
X148886333Y-54094434D01*
X148702154Y-54160678D01*
X148674809Y-54221582D01*
X148791798Y-54271260D01*
X149040623Y-54303828D01*
X149352000Y-54313667D01*
X149666547Y-54306057D01*
X149903412Y-54285835D01*
X150022532Y-54256911D01*
X150029333Y-54247562D01*
X149958826Y-54175355D01*
X149787863Y-54090393D01*
X149775333Y-54085583D01*
X149521333Y-53989709D01*
X149521333Y-51426191D01*
X149775333Y-51337646D01*
X149976550Y-51247540D01*
X150012207Y-51176953D01*
X149885131Y-51127496D01*
X149598145Y-51100779D01*
X149352000Y-51096333D01*
X148999379Y-51109390D01*
M02*
