%TF.GenerationSoftware,KiCad,Pcbnew,(5.1.8)-1*%
%TF.CreationDate,2021-02-21T21:54:25+01:00*%
%TF.ProjectId,A2600 Faceplate Basic,41323630-3020-4466-9163-65706c617465,rev?*%
%TF.SameCoordinates,Original*%
%TF.FileFunction,Legend,Top*%
%TF.FilePolarity,Positive*%
%FSLAX46Y46*%
G04 Gerber Fmt 4.6, Leading zero omitted, Abs format (unit mm)*
G04 Created by KiCad (PCBNEW (5.1.8)-1) date 2021-02-21 21:54:25*
%MOMM*%
%LPD*%
G01*
G04 APERTURE LIST*
%ADD10C,0.150000*%
%ADD11C,0.100000*%
%ADD12C,0.300000*%
%ADD13C,0.500000*%
%ADD14C,0.010000*%
G04 APERTURE END LIST*
D10*
X164330476Y-114117380D02*
X164330476Y-113117380D01*
X164901904Y-114117380D01*
X164901904Y-113117380D01*
X165378095Y-113593571D02*
X165711428Y-113593571D01*
X165854285Y-114117380D02*
X165378095Y-114117380D01*
X165378095Y-113117380D01*
X165854285Y-113117380D01*
X166187619Y-113117380D02*
X166425714Y-114117380D01*
X166616190Y-113403095D01*
X166806666Y-114117380D01*
X167044761Y-113117380D01*
X168663809Y-114117380D02*
X168187619Y-114117380D01*
X168187619Y-113117380D01*
X168997142Y-114117380D02*
X168997142Y-113117380D01*
X169473333Y-114117380D02*
X169473333Y-113117380D01*
X170044761Y-114117380D01*
X170044761Y-113117380D01*
X170520952Y-113593571D02*
X170854285Y-113593571D01*
X170997142Y-114117380D02*
X170520952Y-114117380D01*
X170520952Y-113117380D01*
X170997142Y-113117380D01*
X149519047Y-113593571D02*
X149185714Y-113593571D01*
X149185714Y-114117380D02*
X149185714Y-113117380D01*
X149661904Y-113117380D01*
X150233333Y-113117380D02*
X150423809Y-113117380D01*
X150519047Y-113165000D01*
X150614285Y-113260238D01*
X150661904Y-113450714D01*
X150661904Y-113784047D01*
X150614285Y-113974523D01*
X150519047Y-114069761D01*
X150423809Y-114117380D01*
X150233333Y-114117380D01*
X150138095Y-114069761D01*
X150042857Y-113974523D01*
X149995238Y-113784047D01*
X149995238Y-113450714D01*
X150042857Y-113260238D01*
X150138095Y-113165000D01*
X150233333Y-113117380D01*
X151661904Y-114117380D02*
X151328571Y-113641190D01*
X151090476Y-114117380D02*
X151090476Y-113117380D01*
X151471428Y-113117380D01*
X151566666Y-113165000D01*
X151614285Y-113212619D01*
X151661904Y-113307857D01*
X151661904Y-113450714D01*
X151614285Y-113545952D01*
X151566666Y-113593571D01*
X151471428Y-113641190D01*
X151090476Y-113641190D01*
X151995238Y-113117380D02*
X152233333Y-114117380D01*
X152423809Y-113403095D01*
X152614285Y-114117380D01*
X152852380Y-113117380D01*
X153185714Y-113831666D02*
X153661904Y-113831666D01*
X153090476Y-114117380D02*
X153423809Y-113117380D01*
X153757142Y-114117380D01*
X154661904Y-114117380D02*
X154328571Y-113641190D01*
X154090476Y-114117380D02*
X154090476Y-113117380D01*
X154471428Y-113117380D01*
X154566666Y-113165000D01*
X154614285Y-113212619D01*
X154661904Y-113307857D01*
X154661904Y-113450714D01*
X154614285Y-113545952D01*
X154566666Y-113593571D01*
X154471428Y-113641190D01*
X154090476Y-113641190D01*
X155090476Y-114117380D02*
X155090476Y-113117380D01*
X155328571Y-113117380D01*
X155471428Y-113165000D01*
X155566666Y-113260238D01*
X155614285Y-113355476D01*
X155661904Y-113545952D01*
X155661904Y-113688809D01*
X155614285Y-113879285D01*
X155566666Y-113974523D01*
X155471428Y-114069761D01*
X155328571Y-114117380D01*
X155090476Y-114117380D01*
X133802857Y-113593571D02*
X133945714Y-113641190D01*
X133993333Y-113688809D01*
X134040952Y-113784047D01*
X134040952Y-113926904D01*
X133993333Y-114022142D01*
X133945714Y-114069761D01*
X133850476Y-114117380D01*
X133469523Y-114117380D01*
X133469523Y-113117380D01*
X133802857Y-113117380D01*
X133898095Y-113165000D01*
X133945714Y-113212619D01*
X133993333Y-113307857D01*
X133993333Y-113403095D01*
X133945714Y-113498333D01*
X133898095Y-113545952D01*
X133802857Y-113593571D01*
X133469523Y-113593571D01*
X134421904Y-113831666D02*
X134898095Y-113831666D01*
X134326666Y-114117380D02*
X134660000Y-113117380D01*
X134993333Y-114117380D01*
X135898095Y-114022142D02*
X135850476Y-114069761D01*
X135707619Y-114117380D01*
X135612380Y-114117380D01*
X135469523Y-114069761D01*
X135374285Y-113974523D01*
X135326666Y-113879285D01*
X135279047Y-113688809D01*
X135279047Y-113545952D01*
X135326666Y-113355476D01*
X135374285Y-113260238D01*
X135469523Y-113165000D01*
X135612380Y-113117380D01*
X135707619Y-113117380D01*
X135850476Y-113165000D01*
X135898095Y-113212619D01*
X136326666Y-114117380D02*
X136326666Y-113117380D01*
X136898095Y-114117380D02*
X136469523Y-113545952D01*
X136898095Y-113117380D02*
X136326666Y-113688809D01*
X137231428Y-113117380D02*
X137469523Y-114117380D01*
X137660000Y-113403095D01*
X137850476Y-114117380D01*
X138088571Y-113117380D01*
X138421904Y-113831666D02*
X138898095Y-113831666D01*
X138326666Y-114117380D02*
X138660000Y-113117380D01*
X138993333Y-114117380D01*
X139898095Y-114117380D02*
X139564761Y-113641190D01*
X139326666Y-114117380D02*
X139326666Y-113117380D01*
X139707619Y-113117380D01*
X139802857Y-113165000D01*
X139850476Y-113212619D01*
X139898095Y-113307857D01*
X139898095Y-113450714D01*
X139850476Y-113545952D01*
X139802857Y-113593571D01*
X139707619Y-113641190D01*
X139326666Y-113641190D01*
X140326666Y-114117380D02*
X140326666Y-113117380D01*
X140564761Y-113117380D01*
X140707619Y-113165000D01*
X140802857Y-113260238D01*
X140850476Y-113355476D01*
X140898095Y-113545952D01*
X140898095Y-113688809D01*
X140850476Y-113879285D01*
X140802857Y-113974523D01*
X140707619Y-114069761D01*
X140564761Y-114117380D01*
X140326666Y-114117380D01*
X171195952Y-116625714D02*
X170434047Y-116911428D01*
X171195952Y-117197142D01*
X164417380Y-116292380D02*
X164512619Y-116292380D01*
X164607857Y-116340000D01*
X164655476Y-116387619D01*
X164703095Y-116482857D01*
X164750714Y-116673333D01*
X164750714Y-116911428D01*
X164703095Y-117101904D01*
X164655476Y-117197142D01*
X164607857Y-117244761D01*
X164512619Y-117292380D01*
X164417380Y-117292380D01*
X164322142Y-117244761D01*
X164274523Y-117197142D01*
X164226904Y-117101904D01*
X164179285Y-116911428D01*
X164179285Y-116673333D01*
X164226904Y-116482857D01*
X164274523Y-116387619D01*
X164322142Y-116340000D01*
X164417380Y-116292380D01*
X155194047Y-116625714D02*
X155955952Y-116911428D01*
X155194047Y-117197142D01*
X147939285Y-116292380D02*
X148272619Y-117292380D01*
X148605952Y-116292380D01*
X148939285Y-116768571D02*
X149272619Y-116768571D01*
X149415476Y-117292380D02*
X148939285Y-117292380D01*
X148939285Y-116292380D01*
X149415476Y-116292380D01*
X150415476Y-117292380D02*
X150082142Y-116816190D01*
X149844047Y-117292380D02*
X149844047Y-116292380D01*
X150225000Y-116292380D01*
X150320238Y-116340000D01*
X150367857Y-116387619D01*
X150415476Y-116482857D01*
X150415476Y-116625714D01*
X150367857Y-116720952D01*
X150320238Y-116768571D01*
X150225000Y-116816190D01*
X149844047Y-116816190D01*
X132199285Y-117292380D02*
X132199285Y-116292380D01*
X132199285Y-116768571D02*
X132770714Y-116768571D01*
X132770714Y-117292380D02*
X132770714Y-116292380D01*
X133437380Y-116292380D02*
X133627857Y-116292380D01*
X133723095Y-116340000D01*
X133818333Y-116435238D01*
X133865952Y-116625714D01*
X133865952Y-116959047D01*
X133818333Y-117149523D01*
X133723095Y-117244761D01*
X133627857Y-117292380D01*
X133437380Y-117292380D01*
X133342142Y-117244761D01*
X133246904Y-117149523D01*
X133199285Y-116959047D01*
X133199285Y-116625714D01*
X133246904Y-116435238D01*
X133342142Y-116340000D01*
X133437380Y-116292380D01*
X134865952Y-117292380D02*
X134532619Y-116816190D01*
X134294523Y-117292380D02*
X134294523Y-116292380D01*
X134675476Y-116292380D01*
X134770714Y-116340000D01*
X134818333Y-116387619D01*
X134865952Y-116482857D01*
X134865952Y-116625714D01*
X134818333Y-116720952D01*
X134770714Y-116768571D01*
X134675476Y-116816190D01*
X134294523Y-116816190D01*
X135246904Y-116387619D02*
X135294523Y-116340000D01*
X135389761Y-116292380D01*
X135627857Y-116292380D01*
X135723095Y-116340000D01*
X135770714Y-116387619D01*
X135818333Y-116482857D01*
X135818333Y-116578095D01*
X135770714Y-116720952D01*
X135199285Y-117292380D01*
X135818333Y-117292380D01*
X139954047Y-116768571D02*
X140715952Y-116768571D01*
X140715952Y-117054285D02*
X139954047Y-117054285D01*
X164131666Y-70572380D02*
X164750714Y-70572380D01*
X164417380Y-70953333D01*
X164560238Y-70953333D01*
X164655476Y-71000952D01*
X164703095Y-71048571D01*
X164750714Y-71143809D01*
X164750714Y-71381904D01*
X164703095Y-71477142D01*
X164655476Y-71524761D01*
X164560238Y-71572380D01*
X164274523Y-71572380D01*
X164179285Y-71524761D01*
X164131666Y-71477142D01*
X164655476Y-85177380D02*
X164465000Y-85177380D01*
X164369761Y-85225000D01*
X164322142Y-85272619D01*
X164226904Y-85415476D01*
X164179285Y-85605952D01*
X164179285Y-85986904D01*
X164226904Y-86082142D01*
X164274523Y-86129761D01*
X164369761Y-86177380D01*
X164560238Y-86177380D01*
X164655476Y-86129761D01*
X164703095Y-86082142D01*
X164750714Y-85986904D01*
X164750714Y-85748809D01*
X164703095Y-85653571D01*
X164655476Y-85605952D01*
X164560238Y-85558333D01*
X164369761Y-85558333D01*
X164274523Y-85605952D01*
X164226904Y-85653571D01*
X164179285Y-85748809D01*
X149463095Y-85177380D02*
X148986904Y-85177380D01*
X148939285Y-85653571D01*
X148986904Y-85605952D01*
X149082142Y-85558333D01*
X149320238Y-85558333D01*
X149415476Y-85605952D01*
X149463095Y-85653571D01*
X149510714Y-85748809D01*
X149510714Y-85986904D01*
X149463095Y-86082142D01*
X149415476Y-86129761D01*
X149320238Y-86177380D01*
X149082142Y-86177380D01*
X148986904Y-86129761D01*
X148939285Y-86082142D01*
X148939285Y-70667619D02*
X148986904Y-70620000D01*
X149082142Y-70572380D01*
X149320238Y-70572380D01*
X149415476Y-70620000D01*
X149463095Y-70667619D01*
X149510714Y-70762857D01*
X149510714Y-70858095D01*
X149463095Y-71000952D01*
X148891666Y-71572380D01*
X149510714Y-71572380D01*
X134270714Y-71572380D02*
X133699285Y-71572380D01*
X133985000Y-71572380D02*
X133985000Y-70572380D01*
X133889761Y-70715238D01*
X133794523Y-70810476D01*
X133699285Y-70858095D01*
X134175476Y-86145714D02*
X134175476Y-86812380D01*
X133937380Y-85764761D02*
X133699285Y-86479047D01*
X134318333Y-86479047D01*
X133651666Y-101052380D02*
X134318333Y-101052380D01*
X133889761Y-102052380D01*
X149129761Y-101480952D02*
X149034523Y-101433333D01*
X148986904Y-101385714D01*
X148939285Y-101290476D01*
X148939285Y-101242857D01*
X148986904Y-101147619D01*
X149034523Y-101100000D01*
X149129761Y-101052380D01*
X149320238Y-101052380D01*
X149415476Y-101100000D01*
X149463095Y-101147619D01*
X149510714Y-101242857D01*
X149510714Y-101290476D01*
X149463095Y-101385714D01*
X149415476Y-101433333D01*
X149320238Y-101480952D01*
X149129761Y-101480952D01*
X149034523Y-101528571D01*
X148986904Y-101576190D01*
X148939285Y-101671428D01*
X148939285Y-101861904D01*
X148986904Y-101957142D01*
X149034523Y-102004761D01*
X149129761Y-102052380D01*
X149320238Y-102052380D01*
X149415476Y-102004761D01*
X149463095Y-101957142D01*
X149510714Y-101861904D01*
X149510714Y-101671428D01*
X149463095Y-101576190D01*
X149415476Y-101528571D01*
X149320238Y-101480952D01*
X164274523Y-102052380D02*
X164465000Y-102052380D01*
X164560238Y-102004761D01*
X164607857Y-101957142D01*
X164703095Y-101814285D01*
X164750714Y-101623809D01*
X164750714Y-101242857D01*
X164703095Y-101147619D01*
X164655476Y-101100000D01*
X164560238Y-101052380D01*
X164369761Y-101052380D01*
X164274523Y-101100000D01*
X164226904Y-101147619D01*
X164179285Y-101242857D01*
X164179285Y-101480952D01*
X164226904Y-101576190D01*
X164274523Y-101623809D01*
X164369761Y-101671428D01*
X164560238Y-101671428D01*
X164655476Y-101623809D01*
X164703095Y-101576190D01*
X164750714Y-101480952D01*
X169910238Y-102052380D02*
X169910238Y-101052380D01*
X169910238Y-101528571D02*
X170481666Y-101528571D01*
X170481666Y-102052380D02*
X170481666Y-101052380D01*
X170957857Y-102052380D02*
X170957857Y-101052380D01*
X171291190Y-101052380D02*
X171862619Y-101052380D01*
X171576904Y-102052380D02*
X171576904Y-101052380D01*
X154217857Y-102052380D02*
X154217857Y-101052380D01*
X154551190Y-101766666D01*
X154884523Y-101052380D01*
X154884523Y-102052380D01*
X155551190Y-101052380D02*
X155741666Y-101052380D01*
X155836904Y-101100000D01*
X155932142Y-101195238D01*
X155979761Y-101385714D01*
X155979761Y-101719047D01*
X155932142Y-101909523D01*
X155836904Y-102004761D01*
X155741666Y-102052380D01*
X155551190Y-102052380D01*
X155455952Y-102004761D01*
X155360714Y-101909523D01*
X155313095Y-101719047D01*
X155313095Y-101385714D01*
X155360714Y-101195238D01*
X155455952Y-101100000D01*
X155551190Y-101052380D01*
X156408333Y-102052380D02*
X156408333Y-101052380D01*
X156646428Y-101052380D01*
X156789285Y-101100000D01*
X156884523Y-101195238D01*
X156932142Y-101290476D01*
X156979761Y-101480952D01*
X156979761Y-101623809D01*
X156932142Y-101814285D01*
X156884523Y-101909523D01*
X156789285Y-102004761D01*
X156646428Y-102052380D01*
X156408333Y-102052380D01*
D11*
X138858809Y-101957142D02*
X138811190Y-102004761D01*
X138668333Y-102052380D01*
X138573095Y-102052380D01*
X138430238Y-102004761D01*
X138335000Y-101909523D01*
X138287380Y-101814285D01*
X138239761Y-101623809D01*
X138239761Y-101480952D01*
X138287380Y-101290476D01*
X138335000Y-101195238D01*
X138430238Y-101100000D01*
X138573095Y-101052380D01*
X138668333Y-101052380D01*
X138811190Y-101100000D01*
X138858809Y-101147619D01*
X139763571Y-102052380D02*
X139287380Y-102052380D01*
X139287380Y-101052380D01*
X140096904Y-101528571D02*
X140430238Y-101528571D01*
X140573095Y-102052380D02*
X140096904Y-102052380D01*
X140096904Y-101052380D01*
X140573095Y-101052380D01*
X140954047Y-101766666D02*
X141430238Y-101766666D01*
X140858809Y-102052380D02*
X141192142Y-101052380D01*
X141525476Y-102052380D01*
X142430238Y-102052380D02*
X142096904Y-101576190D01*
X141858809Y-102052380D02*
X141858809Y-101052380D01*
X142239761Y-101052380D01*
X142335000Y-101100000D01*
X142382619Y-101147619D01*
X142430238Y-101242857D01*
X142430238Y-101385714D01*
X142382619Y-101480952D01*
X142335000Y-101528571D01*
X142239761Y-101576190D01*
X141858809Y-101576190D01*
D10*
X140001666Y-85812380D02*
X140668333Y-86812380D01*
X140668333Y-85812380D02*
X140001666Y-86812380D01*
X155575000Y-85701190D02*
X155575000Y-86177380D01*
X155241666Y-85177380D02*
X155575000Y-85701190D01*
X155908333Y-85177380D01*
X170481666Y-85177380D02*
X171148333Y-85177380D01*
X170481666Y-86177380D01*
X171148333Y-86177380D01*
X170386428Y-70572380D02*
X170624523Y-71572380D01*
X170815000Y-70858095D01*
X171005476Y-71572380D01*
X171243571Y-70572380D01*
X155241666Y-70572380D02*
X155575000Y-71572380D01*
X155908333Y-70572380D01*
X140049285Y-70572380D02*
X140049285Y-71381904D01*
X140096904Y-71477142D01*
X140144523Y-71524761D01*
X140239761Y-71572380D01*
X140430238Y-71572380D01*
X140525476Y-71524761D01*
X140573095Y-71477142D01*
X140620714Y-71381904D01*
X140620714Y-70572380D01*
D11*
X165906666Y-115893809D02*
X166020952Y-115931904D01*
X166211428Y-115931904D01*
X166287619Y-115893809D01*
X166325714Y-115855714D01*
X166363809Y-115779523D01*
X166363809Y-115703333D01*
X166325714Y-115627142D01*
X166287619Y-115589047D01*
X166211428Y-115550952D01*
X166059047Y-115512857D01*
X165982857Y-115474761D01*
X165944761Y-115436666D01*
X165906666Y-115360476D01*
X165906666Y-115284285D01*
X165944761Y-115208095D01*
X165982857Y-115170000D01*
X166059047Y-115131904D01*
X166249523Y-115131904D01*
X166363809Y-115170000D01*
X166706666Y-115931904D02*
X166706666Y-115131904D01*
X167011428Y-115131904D01*
X167087619Y-115170000D01*
X167125714Y-115208095D01*
X167163809Y-115284285D01*
X167163809Y-115398571D01*
X167125714Y-115474761D01*
X167087619Y-115512857D01*
X167011428Y-115550952D01*
X166706666Y-115550952D01*
X167468571Y-115703333D02*
X167849523Y-115703333D01*
X167392380Y-115931904D02*
X167659047Y-115131904D01*
X167925714Y-115931904D01*
X168649523Y-115855714D02*
X168611428Y-115893809D01*
X168497142Y-115931904D01*
X168420952Y-115931904D01*
X168306666Y-115893809D01*
X168230476Y-115817619D01*
X168192380Y-115741428D01*
X168154285Y-115589047D01*
X168154285Y-115474761D01*
X168192380Y-115322380D01*
X168230476Y-115246190D01*
X168306666Y-115170000D01*
X168420952Y-115131904D01*
X168497142Y-115131904D01*
X168611428Y-115170000D01*
X168649523Y-115208095D01*
X168992380Y-115512857D02*
X169259047Y-115512857D01*
X169373333Y-115931904D02*
X168992380Y-115931904D01*
X168992380Y-115131904D01*
X169373333Y-115131904D01*
D10*
X152114285Y-115022380D02*
X152685714Y-115022380D01*
X152400000Y-116022380D02*
X152400000Y-115022380D01*
X136874285Y-115974761D02*
X137017142Y-116022380D01*
X137255238Y-116022380D01*
X137350476Y-115974761D01*
X137398095Y-115927142D01*
X137445714Y-115831904D01*
X137445714Y-115736666D01*
X137398095Y-115641428D01*
X137350476Y-115593809D01*
X137255238Y-115546190D01*
X137064761Y-115498571D01*
X136969523Y-115450952D01*
X136921904Y-115403333D01*
X136874285Y-115308095D01*
X136874285Y-115212857D01*
X136921904Y-115117619D01*
X136969523Y-115070000D01*
X137064761Y-115022380D01*
X137302857Y-115022380D01*
X137445714Y-115070000D01*
X167949523Y-100782380D02*
X167616190Y-100306190D01*
X167378095Y-100782380D02*
X167378095Y-99782380D01*
X167759047Y-99782380D01*
X167854285Y-99830000D01*
X167901904Y-99877619D01*
X167949523Y-99972857D01*
X167949523Y-100115714D01*
X167901904Y-100210952D01*
X167854285Y-100258571D01*
X167759047Y-100306190D01*
X167378095Y-100306190D01*
X152780952Y-100877619D02*
X152685714Y-100830000D01*
X152590476Y-100734761D01*
X152447619Y-100591904D01*
X152352380Y-100544285D01*
X152257142Y-100544285D01*
X152304761Y-100782380D02*
X152209523Y-100734761D01*
X152114285Y-100639523D01*
X152066666Y-100449047D01*
X152066666Y-100115714D01*
X152114285Y-99925238D01*
X152209523Y-99830000D01*
X152304761Y-99782380D01*
X152495238Y-99782380D01*
X152590476Y-99830000D01*
X152685714Y-99925238D01*
X152733333Y-100115714D01*
X152733333Y-100449047D01*
X152685714Y-100639523D01*
X152590476Y-100734761D01*
X152495238Y-100782380D01*
X152304761Y-100782380D01*
X136898095Y-100782380D02*
X136898095Y-99782380D01*
X137279047Y-99782380D01*
X137374285Y-99830000D01*
X137421904Y-99877619D01*
X137469523Y-99972857D01*
X137469523Y-100115714D01*
X137421904Y-100210952D01*
X137374285Y-100258571D01*
X137279047Y-100306190D01*
X136898095Y-100306190D01*
X136826666Y-84907380D02*
X136826666Y-83907380D01*
X137160000Y-84621666D01*
X137493333Y-83907380D01*
X137493333Y-84907380D01*
X152114285Y-84907380D02*
X152114285Y-83907380D01*
X152685714Y-84907380D01*
X152685714Y-83907380D01*
X167544761Y-83907380D02*
X167735238Y-83907380D01*
X167830476Y-83955000D01*
X167925714Y-84050238D01*
X167973333Y-84240714D01*
X167973333Y-84574047D01*
X167925714Y-84764523D01*
X167830476Y-84859761D01*
X167735238Y-84907380D01*
X167544761Y-84907380D01*
X167449523Y-84859761D01*
X167354285Y-84764523D01*
X167306666Y-84574047D01*
X167306666Y-84240714D01*
X167354285Y-84050238D01*
X167449523Y-83955000D01*
X167544761Y-83907380D01*
X167949523Y-69667380D02*
X167473333Y-69667380D01*
X167473333Y-68667380D01*
X152138095Y-69667380D02*
X152138095Y-68667380D01*
X152709523Y-69667380D02*
X152280952Y-69095952D01*
X152709523Y-68667380D02*
X152138095Y-69238809D01*
X137302857Y-68667380D02*
X137302857Y-69381666D01*
X137255238Y-69524523D01*
X137160000Y-69619761D01*
X137017142Y-69667380D01*
X136921904Y-69667380D01*
D12*
X142757142Y-62273571D02*
X142257142Y-61559285D01*
X141900000Y-62273571D02*
X141900000Y-60773571D01*
X142471428Y-60773571D01*
X142614285Y-60845000D01*
X142685714Y-60916428D01*
X142757142Y-61059285D01*
X142757142Y-61273571D01*
X142685714Y-61416428D01*
X142614285Y-61487857D01*
X142471428Y-61559285D01*
X141900000Y-61559285D01*
X143400000Y-62273571D02*
X143400000Y-60773571D01*
X144900000Y-60845000D02*
X144757142Y-60773571D01*
X144542857Y-60773571D01*
X144328571Y-60845000D01*
X144185714Y-60987857D01*
X144114285Y-61130714D01*
X144042857Y-61416428D01*
X144042857Y-61630714D01*
X144114285Y-61916428D01*
X144185714Y-62059285D01*
X144328571Y-62202142D01*
X144542857Y-62273571D01*
X144685714Y-62273571D01*
X144900000Y-62202142D01*
X144971428Y-62130714D01*
X144971428Y-61630714D01*
X144685714Y-61630714D01*
X145614285Y-62273571D02*
X145614285Y-60773571D01*
X145614285Y-61487857D02*
X146471428Y-61487857D01*
X146471428Y-62273571D02*
X146471428Y-60773571D01*
X146971428Y-60773571D02*
X147828571Y-60773571D01*
X147400000Y-62273571D02*
X147400000Y-60773571D01*
X150328571Y-62130714D02*
X150257142Y-62202142D01*
X150042857Y-62273571D01*
X149900000Y-62273571D01*
X149685714Y-62202142D01*
X149542857Y-62059285D01*
X149471428Y-61916428D01*
X149400000Y-61630714D01*
X149400000Y-61416428D01*
X149471428Y-61130714D01*
X149542857Y-60987857D01*
X149685714Y-60845000D01*
X149900000Y-60773571D01*
X150042857Y-60773571D01*
X150257142Y-60845000D01*
X150328571Y-60916428D01*
X151257142Y-60773571D02*
X151542857Y-60773571D01*
X151685714Y-60845000D01*
X151828571Y-60987857D01*
X151900000Y-61273571D01*
X151900000Y-61773571D01*
X151828571Y-62059285D01*
X151685714Y-62202142D01*
X151542857Y-62273571D01*
X151257142Y-62273571D01*
X151114285Y-62202142D01*
X150971428Y-62059285D01*
X150900000Y-61773571D01*
X150900000Y-61273571D01*
X150971428Y-60987857D01*
X151114285Y-60845000D01*
X151257142Y-60773571D01*
X152542857Y-62273571D02*
X152542857Y-60773571D01*
X153400000Y-62273571D01*
X153400000Y-60773571D01*
X153900000Y-60773571D02*
X154757142Y-60773571D01*
X154328571Y-62273571D02*
X154328571Y-60773571D01*
X156114285Y-62273571D02*
X155614285Y-61559285D01*
X155257142Y-62273571D02*
X155257142Y-60773571D01*
X155828571Y-60773571D01*
X155971428Y-60845000D01*
X156042857Y-60916428D01*
X156114285Y-61059285D01*
X156114285Y-61273571D01*
X156042857Y-61416428D01*
X155971428Y-61487857D01*
X155828571Y-61559285D01*
X155257142Y-61559285D01*
X157042857Y-60773571D02*
X157328571Y-60773571D01*
X157471428Y-60845000D01*
X157614285Y-60987857D01*
X157685714Y-61273571D01*
X157685714Y-61773571D01*
X157614285Y-62059285D01*
X157471428Y-62202142D01*
X157328571Y-62273571D01*
X157042857Y-62273571D01*
X156900000Y-62202142D01*
X156757142Y-62059285D01*
X156685714Y-61773571D01*
X156685714Y-61273571D01*
X156757142Y-60987857D01*
X156900000Y-60845000D01*
X157042857Y-60773571D01*
X159042857Y-62273571D02*
X158328571Y-62273571D01*
X158328571Y-60773571D01*
X160257142Y-62273571D02*
X159542857Y-62273571D01*
X159542857Y-60773571D01*
X160757142Y-61487857D02*
X161257142Y-61487857D01*
X161471428Y-62273571D02*
X160757142Y-62273571D01*
X160757142Y-60773571D01*
X161471428Y-60773571D01*
X162971428Y-62273571D02*
X162471428Y-61559285D01*
X162114285Y-62273571D02*
X162114285Y-60773571D01*
X162685714Y-60773571D01*
X162828571Y-60845000D01*
X162900000Y-60916428D01*
X162971428Y-61059285D01*
X162971428Y-61273571D01*
X162900000Y-61416428D01*
X162828571Y-61487857D01*
X162685714Y-61559285D01*
X162114285Y-61559285D01*
D13*
X122555000Y-136525000D02*
X122555000Y-43180000D01*
X179705000Y-139065000D02*
X125095000Y-139065000D01*
X182245000Y-43180000D02*
X182245000Y-136525000D01*
X125095000Y-40640000D02*
X179705000Y-40640000D01*
X125095000Y-139065000D02*
G75*
G02*
X122555000Y-136525000I0J2540000D01*
G01*
X182245000Y-136525000D02*
G75*
G02*
X179705000Y-139065000I-2540000J0D01*
G01*
X179705000Y-40640000D02*
G75*
G02*
X182245000Y-43180000I0J-2540000D01*
G01*
X122555000Y-43180000D02*
G75*
G02*
X125095000Y-40640000I2540000J0D01*
G01*
D14*
%TO.C,G\u002A\u002A\u002A*%
G36*
X141659806Y-56275794D02*
G01*
X142066515Y-56467948D01*
X142380399Y-56765900D01*
X142502138Y-56972584D01*
X142608110Y-57331108D01*
X142656778Y-57768237D01*
X142646170Y-58211264D01*
X142574318Y-58587483D01*
X142547846Y-58659506D01*
X142329552Y-58993589D01*
X141999311Y-59278159D01*
X141614509Y-59464828D01*
X141581204Y-59474607D01*
X141246627Y-59545927D01*
X140963705Y-59540061D01*
X140639457Y-59453373D01*
X140589000Y-59435830D01*
X140194823Y-59216536D01*
X139903698Y-58894138D01*
X139714511Y-58498721D01*
X139626148Y-58060372D01*
X139635272Y-57697565D01*
X140128403Y-57697565D01*
X140146273Y-58112778D01*
X140215362Y-58494800D01*
X140263141Y-58638986D01*
X140482028Y-58990995D01*
X140788116Y-59215484D01*
X141149656Y-59300057D01*
X141534900Y-59232317D01*
X141650105Y-59180567D01*
X141918969Y-58951286D01*
X142108517Y-58602269D01*
X142209032Y-58168146D01*
X142210798Y-57683551D01*
X142157695Y-57371511D01*
X141992778Y-56959409D01*
X141741904Y-56661780D01*
X141434381Y-56483925D01*
X141099517Y-56431144D01*
X140766621Y-56508738D01*
X140465000Y-56722007D01*
X140248642Y-57026271D01*
X140162332Y-57313837D01*
X140128403Y-57697565D01*
X139635272Y-57697565D01*
X139637495Y-57609177D01*
X139747439Y-57175221D01*
X139954865Y-56788592D01*
X140258661Y-56479375D01*
X140657712Y-56277657D01*
X140706439Y-56263575D01*
X141194903Y-56203111D01*
X141659806Y-56275794D01*
G37*
X141659806Y-56275794D02*
X142066515Y-56467948D01*
X142380399Y-56765900D01*
X142502138Y-56972584D01*
X142608110Y-57331108D01*
X142656778Y-57768237D01*
X142646170Y-58211264D01*
X142574318Y-58587483D01*
X142547846Y-58659506D01*
X142329552Y-58993589D01*
X141999311Y-59278159D01*
X141614509Y-59464828D01*
X141581204Y-59474607D01*
X141246627Y-59545927D01*
X140963705Y-59540061D01*
X140639457Y-59453373D01*
X140589000Y-59435830D01*
X140194823Y-59216536D01*
X139903698Y-58894138D01*
X139714511Y-58498721D01*
X139626148Y-58060372D01*
X139635272Y-57697565D01*
X140128403Y-57697565D01*
X140146273Y-58112778D01*
X140215362Y-58494800D01*
X140263141Y-58638986D01*
X140482028Y-58990995D01*
X140788116Y-59215484D01*
X141149656Y-59300057D01*
X141534900Y-59232317D01*
X141650105Y-59180567D01*
X141918969Y-58951286D01*
X142108517Y-58602269D01*
X142209032Y-58168146D01*
X142210798Y-57683551D01*
X142157695Y-57371511D01*
X141992778Y-56959409D01*
X141741904Y-56661780D01*
X141434381Y-56483925D01*
X141099517Y-56431144D01*
X140766621Y-56508738D01*
X140465000Y-56722007D01*
X140248642Y-57026271D01*
X140162332Y-57313837D01*
X140128403Y-57697565D01*
X139635272Y-57697565D01*
X139637495Y-57609177D01*
X139747439Y-57175221D01*
X139954865Y-56788592D01*
X140258661Y-56479375D01*
X140657712Y-56277657D01*
X140706439Y-56263575D01*
X141194903Y-56203111D01*
X141659806Y-56275794D01*
G36*
X145223390Y-56213843D02*
G01*
X145537833Y-56268016D01*
X145965334Y-56359698D01*
X145965334Y-56783071D01*
X145950940Y-57049509D01*
X145904596Y-57166246D01*
X145859500Y-57171693D01*
X145772781Y-57070556D01*
X145726206Y-56903687D01*
X145622301Y-56695985D01*
X145387888Y-56536814D01*
X145059279Y-56445655D01*
X144846220Y-56431581D01*
X144434390Y-56506063D01*
X144112853Y-56717961D01*
X143890756Y-57056065D01*
X143777241Y-57509170D01*
X143764000Y-57757907D01*
X143808095Y-58287452D01*
X143947128Y-58699390D01*
X144191222Y-59022678D01*
X144213483Y-59043639D01*
X144492244Y-59205038D01*
X144852093Y-59287930D01*
X145218382Y-59280288D01*
X145393834Y-59233799D01*
X145543013Y-59153709D01*
X145609963Y-59028399D01*
X145625402Y-58797917D01*
X145625370Y-58781929D01*
X145605667Y-58479023D01*
X145532215Y-58299068D01*
X145379430Y-58198037D01*
X145265985Y-58163534D01*
X145073907Y-58096814D01*
X145041092Y-58037868D01*
X145157500Y-57991415D01*
X145413090Y-57962169D01*
X145711334Y-57954333D01*
X146071461Y-57967137D01*
X146302357Y-58002459D01*
X146392890Y-58055663D01*
X146331930Y-58122117D01*
X146219530Y-58165937D01*
X146057170Y-58302214D01*
X145977526Y-58570323D01*
X145986004Y-58951441D01*
X145988447Y-58970218D01*
X146005061Y-59187965D01*
X145956815Y-59302095D01*
X145813382Y-59374766D01*
X145786392Y-59384329D01*
X145462659Y-59462696D01*
X145071137Y-59509214D01*
X144681776Y-59519739D01*
X144364526Y-59490128D01*
X144293709Y-59472749D01*
X143901033Y-59272163D01*
X143598972Y-58957617D01*
X143392575Y-58561280D01*
X143286892Y-58115317D01*
X143286974Y-57651895D01*
X143397871Y-57203182D01*
X143624635Y-56801343D01*
X143839248Y-56578251D01*
X144239885Y-56324367D01*
X144692630Y-56204475D01*
X145223390Y-56213843D01*
G37*
X145223390Y-56213843D02*
X145537833Y-56268016D01*
X145965334Y-56359698D01*
X145965334Y-56783071D01*
X145950940Y-57049509D01*
X145904596Y-57166246D01*
X145859500Y-57171693D01*
X145772781Y-57070556D01*
X145726206Y-56903687D01*
X145622301Y-56695985D01*
X145387888Y-56536814D01*
X145059279Y-56445655D01*
X144846220Y-56431581D01*
X144434390Y-56506063D01*
X144112853Y-56717961D01*
X143890756Y-57056065D01*
X143777241Y-57509170D01*
X143764000Y-57757907D01*
X143808095Y-58287452D01*
X143947128Y-58699390D01*
X144191222Y-59022678D01*
X144213483Y-59043639D01*
X144492244Y-59205038D01*
X144852093Y-59287930D01*
X145218382Y-59280288D01*
X145393834Y-59233799D01*
X145543013Y-59153709D01*
X145609963Y-59028399D01*
X145625402Y-58797917D01*
X145625370Y-58781929D01*
X145605667Y-58479023D01*
X145532215Y-58299068D01*
X145379430Y-58198037D01*
X145265985Y-58163534D01*
X145073907Y-58096814D01*
X145041092Y-58037868D01*
X145157500Y-57991415D01*
X145413090Y-57962169D01*
X145711334Y-57954333D01*
X146071461Y-57967137D01*
X146302357Y-58002459D01*
X146392890Y-58055663D01*
X146331930Y-58122117D01*
X146219530Y-58165937D01*
X146057170Y-58302214D01*
X145977526Y-58570323D01*
X145986004Y-58951441D01*
X145988447Y-58970218D01*
X146005061Y-59187965D01*
X145956815Y-59302095D01*
X145813382Y-59374766D01*
X145786392Y-59384329D01*
X145462659Y-59462696D01*
X145071137Y-59509214D01*
X144681776Y-59519739D01*
X144364526Y-59490128D01*
X144293709Y-59472749D01*
X143901033Y-59272163D01*
X143598972Y-58957617D01*
X143392575Y-58561280D01*
X143286892Y-58115317D01*
X143286974Y-57651895D01*
X143397871Y-57203182D01*
X143624635Y-56801343D01*
X143839248Y-56578251D01*
X144239885Y-56324367D01*
X144692630Y-56204475D01*
X145223390Y-56213843D01*
G36*
X170369390Y-56213843D02*
G01*
X170683833Y-56268016D01*
X171111334Y-56359698D01*
X171111334Y-56783071D01*
X171096940Y-57049509D01*
X171050596Y-57166246D01*
X171005500Y-57171693D01*
X170918781Y-57070556D01*
X170872206Y-56903687D01*
X170768301Y-56695985D01*
X170533888Y-56536814D01*
X170205279Y-56445655D01*
X169992220Y-56431581D01*
X169580390Y-56506063D01*
X169258853Y-56717961D01*
X169036756Y-57056065D01*
X168923241Y-57509170D01*
X168910000Y-57757907D01*
X168954095Y-58287452D01*
X169093128Y-58699390D01*
X169337222Y-59022678D01*
X169359483Y-59043639D01*
X169638244Y-59205038D01*
X169998093Y-59287930D01*
X170364382Y-59280288D01*
X170539834Y-59233799D01*
X170689013Y-59153709D01*
X170755963Y-59028399D01*
X170771402Y-58797917D01*
X170771370Y-58781929D01*
X170751667Y-58479023D01*
X170678215Y-58299068D01*
X170525430Y-58198037D01*
X170411985Y-58163534D01*
X170219907Y-58096814D01*
X170187092Y-58037868D01*
X170303500Y-57991415D01*
X170559090Y-57962169D01*
X170857334Y-57954333D01*
X171217461Y-57967137D01*
X171448357Y-58002459D01*
X171538890Y-58055663D01*
X171477930Y-58122117D01*
X171365530Y-58165937D01*
X171203170Y-58302214D01*
X171123526Y-58570323D01*
X171132004Y-58951441D01*
X171134447Y-58970218D01*
X171151061Y-59187965D01*
X171102815Y-59302095D01*
X170959382Y-59374766D01*
X170932392Y-59384329D01*
X170608659Y-59462696D01*
X170217137Y-59509214D01*
X169827776Y-59519739D01*
X169510526Y-59490128D01*
X169439709Y-59472749D01*
X169047033Y-59272163D01*
X168744972Y-58957617D01*
X168538575Y-58561280D01*
X168432892Y-58115317D01*
X168432974Y-57651895D01*
X168543871Y-57203182D01*
X168770635Y-56801343D01*
X168985248Y-56578251D01*
X169385885Y-56324367D01*
X169838630Y-56204475D01*
X170369390Y-56213843D01*
G37*
X170369390Y-56213843D02*
X170683833Y-56268016D01*
X171111334Y-56359698D01*
X171111334Y-56783071D01*
X171096940Y-57049509D01*
X171050596Y-57166246D01*
X171005500Y-57171693D01*
X170918781Y-57070556D01*
X170872206Y-56903687D01*
X170768301Y-56695985D01*
X170533888Y-56536814D01*
X170205279Y-56445655D01*
X169992220Y-56431581D01*
X169580390Y-56506063D01*
X169258853Y-56717961D01*
X169036756Y-57056065D01*
X168923241Y-57509170D01*
X168910000Y-57757907D01*
X168954095Y-58287452D01*
X169093128Y-58699390D01*
X169337222Y-59022678D01*
X169359483Y-59043639D01*
X169638244Y-59205038D01*
X169998093Y-59287930D01*
X170364382Y-59280288D01*
X170539834Y-59233799D01*
X170689013Y-59153709D01*
X170755963Y-59028399D01*
X170771402Y-58797917D01*
X170771370Y-58781929D01*
X170751667Y-58479023D01*
X170678215Y-58299068D01*
X170525430Y-58198037D01*
X170411985Y-58163534D01*
X170219907Y-58096814D01*
X170187092Y-58037868D01*
X170303500Y-57991415D01*
X170559090Y-57962169D01*
X170857334Y-57954333D01*
X171217461Y-57967137D01*
X171448357Y-58002459D01*
X171538890Y-58055663D01*
X171477930Y-58122117D01*
X171365530Y-58165937D01*
X171203170Y-58302214D01*
X171123526Y-58570323D01*
X171132004Y-58951441D01*
X171134447Y-58970218D01*
X171151061Y-59187965D01*
X171102815Y-59302095D01*
X170959382Y-59374766D01*
X170932392Y-59384329D01*
X170608659Y-59462696D01*
X170217137Y-59509214D01*
X169827776Y-59519739D01*
X169510526Y-59490128D01*
X169439709Y-59472749D01*
X169047033Y-59272163D01*
X168744972Y-58957617D01*
X168538575Y-58561280D01*
X168432892Y-58115317D01*
X168432974Y-57651895D01*
X168543871Y-57203182D01*
X168770635Y-56801343D01*
X168985248Y-56578251D01*
X169385885Y-56324367D01*
X169838630Y-56204475D01*
X170369390Y-56213843D01*
G36*
X134705717Y-56286593D02*
G01*
X135170656Y-56367835D01*
X135498928Y-56511422D01*
X135703248Y-56724051D01*
X135796336Y-57012417D01*
X135805334Y-57163423D01*
X135768881Y-57466170D01*
X135634000Y-57714321D01*
X135558087Y-57804831D01*
X135411333Y-57954730D01*
X135272702Y-58037487D01*
X135084979Y-58072653D01*
X134790946Y-58079783D01*
X134753753Y-58079707D01*
X134196667Y-58078081D01*
X134196667Y-58616228D01*
X134201178Y-58910338D01*
X134227005Y-59081170D01*
X134292588Y-59174753D01*
X134416369Y-59237119D01*
X134450667Y-59250250D01*
X134647178Y-59341750D01*
X134683677Y-59408898D01*
X134557885Y-59452921D01*
X134267522Y-59475047D01*
X134027334Y-59478333D01*
X133700151Y-59468684D01*
X133463822Y-59442629D01*
X133353758Y-59404513D01*
X133350000Y-59395280D01*
X133421840Y-59315028D01*
X133561667Y-59259101D01*
X133773334Y-59205976D01*
X133773334Y-57869667D01*
X133773334Y-57462235D01*
X134203032Y-57462235D01*
X134225609Y-57689049D01*
X134299482Y-57811209D01*
X134442928Y-57860732D01*
X134653531Y-57869667D01*
X134922059Y-57847790D01*
X135097635Y-57762544D01*
X135206522Y-57646582D01*
X135359215Y-57351806D01*
X135343325Y-57063841D01*
X135184874Y-56803270D01*
X135004364Y-56644834D01*
X134779440Y-56576531D01*
X134613374Y-56565715D01*
X134239000Y-56557333D01*
X134213475Y-57098749D01*
X134203032Y-57462235D01*
X133773334Y-57462235D01*
X133773333Y-56533357D01*
X133561667Y-56480232D01*
X133375664Y-56414276D01*
X133347272Y-56354526D01*
X133464777Y-56305830D01*
X133716461Y-56273039D01*
X134090609Y-56261000D01*
X134091392Y-56261000D01*
X134705717Y-56286593D01*
G37*
X134705717Y-56286593D02*
X135170656Y-56367835D01*
X135498928Y-56511422D01*
X135703248Y-56724051D01*
X135796336Y-57012417D01*
X135805334Y-57163423D01*
X135768881Y-57466170D01*
X135634000Y-57714321D01*
X135558087Y-57804831D01*
X135411333Y-57954730D01*
X135272702Y-58037487D01*
X135084979Y-58072653D01*
X134790946Y-58079783D01*
X134753753Y-58079707D01*
X134196667Y-58078081D01*
X134196667Y-58616228D01*
X134201178Y-58910338D01*
X134227005Y-59081170D01*
X134292588Y-59174753D01*
X134416369Y-59237119D01*
X134450667Y-59250250D01*
X134647178Y-59341750D01*
X134683677Y-59408898D01*
X134557885Y-59452921D01*
X134267522Y-59475047D01*
X134027334Y-59478333D01*
X133700151Y-59468684D01*
X133463822Y-59442629D01*
X133353758Y-59404513D01*
X133350000Y-59395280D01*
X133421840Y-59315028D01*
X133561667Y-59259101D01*
X133773334Y-59205976D01*
X133773334Y-57869667D01*
X133773334Y-57462235D01*
X134203032Y-57462235D01*
X134225609Y-57689049D01*
X134299482Y-57811209D01*
X134442928Y-57860732D01*
X134653531Y-57869667D01*
X134922059Y-57847790D01*
X135097635Y-57762544D01*
X135206522Y-57646582D01*
X135359215Y-57351806D01*
X135343325Y-57063841D01*
X135184874Y-56803270D01*
X135004364Y-56644834D01*
X134779440Y-56576531D01*
X134613374Y-56565715D01*
X134239000Y-56557333D01*
X134213475Y-57098749D01*
X134203032Y-57462235D01*
X133773334Y-57462235D01*
X133773333Y-56533357D01*
X133561667Y-56480232D01*
X133375664Y-56414276D01*
X133347272Y-56354526D01*
X133464777Y-56305830D01*
X133716461Y-56273039D01*
X134090609Y-56261000D01*
X134091392Y-56261000D01*
X134705717Y-56286593D01*
G36*
X137288148Y-56277005D02*
G01*
X137818773Y-56308460D01*
X138203785Y-56364101D01*
X138466476Y-56456025D01*
X138630134Y-56596330D01*
X138718050Y-56797114D01*
X138751504Y-57037137D01*
X138748805Y-57305777D01*
X138677417Y-57492932D01*
X138549459Y-57642450D01*
X138372244Y-57791273D01*
X138226331Y-57867176D01*
X138206788Y-57869667D01*
X138127821Y-57881390D01*
X138108044Y-57931719D01*
X138158367Y-58043386D01*
X138289698Y-58239126D01*
X138512946Y-58541675D01*
X138557987Y-58601597D01*
X138827793Y-58933102D01*
X139058861Y-59164259D01*
X139228600Y-59272625D01*
X139235320Y-59274480D01*
X139412634Y-59342962D01*
X139436905Y-59407867D01*
X139323986Y-59453490D01*
X139089733Y-59464127D01*
X139046209Y-59461805D01*
X138860308Y-59444438D01*
X138718726Y-59403488D01*
X138587989Y-59313230D01*
X138434623Y-59147941D01*
X138225151Y-58881897D01*
X138131207Y-58758667D01*
X137859542Y-58417457D01*
X137653645Y-58200010D01*
X137491381Y-58085355D01*
X137387998Y-58054543D01*
X137266616Y-58046822D01*
X137198424Y-58083699D01*
X137168085Y-58201265D01*
X137160262Y-58435613D01*
X137160000Y-58591064D01*
X137163957Y-58893150D01*
X137187288Y-59070534D01*
X137247186Y-59167836D01*
X137360843Y-59229673D01*
X137414000Y-59250250D01*
X137610511Y-59341750D01*
X137647010Y-59408898D01*
X137521218Y-59452921D01*
X137230855Y-59475047D01*
X136990667Y-59478333D01*
X136663485Y-59468684D01*
X136427155Y-59442629D01*
X136317091Y-59404513D01*
X136313334Y-59395280D01*
X136385173Y-59315028D01*
X136525000Y-59259101D01*
X136736667Y-59205976D01*
X136736667Y-57785000D01*
X137152582Y-57785000D01*
X137541139Y-57785000D01*
X137838798Y-57756908D01*
X138049793Y-57654996D01*
X138137515Y-57577182D01*
X138311874Y-57305464D01*
X138321249Y-57017479D01*
X138188419Y-56763311D01*
X138041473Y-56635671D01*
X137833038Y-56576137D01*
X137616919Y-56563432D01*
X137202334Y-56557333D01*
X137177458Y-57171167D01*
X137152582Y-57785000D01*
X136736667Y-57785000D01*
X136736667Y-56533357D01*
X136525000Y-56480232D01*
X136366327Y-56408553D01*
X136313334Y-56333399D01*
X136380215Y-56290885D01*
X136587707Y-56268940D01*
X136946081Y-56266972D01*
X137288148Y-56277005D01*
G37*
X137288148Y-56277005D02*
X137818773Y-56308460D01*
X138203785Y-56364101D01*
X138466476Y-56456025D01*
X138630134Y-56596330D01*
X138718050Y-56797114D01*
X138751504Y-57037137D01*
X138748805Y-57305777D01*
X138677417Y-57492932D01*
X138549459Y-57642450D01*
X138372244Y-57791273D01*
X138226331Y-57867176D01*
X138206788Y-57869667D01*
X138127821Y-57881390D01*
X138108044Y-57931719D01*
X138158367Y-58043386D01*
X138289698Y-58239126D01*
X138512946Y-58541675D01*
X138557987Y-58601597D01*
X138827793Y-58933102D01*
X139058861Y-59164259D01*
X139228600Y-59272625D01*
X139235320Y-59274480D01*
X139412634Y-59342962D01*
X139436905Y-59407867D01*
X139323986Y-59453490D01*
X139089733Y-59464127D01*
X139046209Y-59461805D01*
X138860308Y-59444438D01*
X138718726Y-59403488D01*
X138587989Y-59313230D01*
X138434623Y-59147941D01*
X138225151Y-58881897D01*
X138131207Y-58758667D01*
X137859542Y-58417457D01*
X137653645Y-58200010D01*
X137491381Y-58085355D01*
X137387998Y-58054543D01*
X137266616Y-58046822D01*
X137198424Y-58083699D01*
X137168085Y-58201265D01*
X137160262Y-58435613D01*
X137160000Y-58591064D01*
X137163957Y-58893150D01*
X137187288Y-59070534D01*
X137247186Y-59167836D01*
X137360843Y-59229673D01*
X137414000Y-59250250D01*
X137610511Y-59341750D01*
X137647010Y-59408898D01*
X137521218Y-59452921D01*
X137230855Y-59475047D01*
X136990667Y-59478333D01*
X136663485Y-59468684D01*
X136427155Y-59442629D01*
X136317091Y-59404513D01*
X136313334Y-59395280D01*
X136385173Y-59315028D01*
X136525000Y-59259101D01*
X136736667Y-59205976D01*
X136736667Y-57785000D01*
X137152582Y-57785000D01*
X137541139Y-57785000D01*
X137838798Y-57756908D01*
X138049793Y-57654996D01*
X138137515Y-57577182D01*
X138311874Y-57305464D01*
X138321249Y-57017479D01*
X138188419Y-56763311D01*
X138041473Y-56635671D01*
X137833038Y-56576137D01*
X137616919Y-56563432D01*
X137202334Y-56557333D01*
X137177458Y-57171167D01*
X137152582Y-57785000D01*
X136736667Y-57785000D01*
X136736667Y-56533357D01*
X136525000Y-56480232D01*
X136366327Y-56408553D01*
X136313334Y-56333399D01*
X136380215Y-56290885D01*
X136587707Y-56268940D01*
X136946081Y-56266972D01*
X137288148Y-56277005D01*
G36*
X151657326Y-56251135D02*
G01*
X151765911Y-56457487D01*
X151910609Y-56768306D01*
X152079857Y-57156512D01*
X152262088Y-57595022D01*
X152445737Y-58056755D01*
X152619239Y-58514629D01*
X152745160Y-58866287D01*
X152856356Y-59081804D01*
X152994438Y-59225065D01*
X153001572Y-59229099D01*
X153145313Y-59336533D01*
X153124439Y-59414937D01*
X152941432Y-59462727D01*
X152611667Y-59478333D01*
X152297988Y-59462952D01*
X152109878Y-59421688D01*
X152060508Y-59361857D01*
X152163047Y-59290776D01*
X152230667Y-59266667D01*
X152345002Y-59217574D01*
X152387768Y-59139543D01*
X152359058Y-58993480D01*
X152258965Y-58740288D01*
X152232074Y-58677282D01*
X152064147Y-58285525D01*
X151461288Y-58310429D01*
X150858430Y-58335333D01*
X150697951Y-58758667D01*
X150608739Y-58996006D01*
X150550442Y-59154947D01*
X150537402Y-59193988D01*
X150608242Y-59220714D01*
X150749000Y-59259101D01*
X150907601Y-59328081D01*
X150960667Y-59398144D01*
X150878700Y-59437246D01*
X150642113Y-59459530D01*
X150264871Y-59464043D01*
X150053249Y-59460031D01*
X149145831Y-59436000D01*
X148630247Y-58758667D01*
X148358355Y-58417424D01*
X148152281Y-58199948D01*
X147989909Y-58085297D01*
X147886665Y-58054543D01*
X147765282Y-58046822D01*
X147697091Y-58083699D01*
X147666752Y-58201265D01*
X147658928Y-58435613D01*
X147658667Y-58591064D01*
X147662623Y-58893150D01*
X147685954Y-59070534D01*
X147745852Y-59167836D01*
X147859510Y-59229673D01*
X147912667Y-59250250D01*
X148109178Y-59341750D01*
X148145677Y-59408898D01*
X148019885Y-59452921D01*
X147729522Y-59475047D01*
X147489334Y-59478333D01*
X147162151Y-59468684D01*
X146925822Y-59442629D01*
X146815758Y-59404513D01*
X146812000Y-59395280D01*
X146883840Y-59315028D01*
X147023667Y-59259101D01*
X147235334Y-59205976D01*
X147235334Y-57785000D01*
X147651248Y-57785000D01*
X148039806Y-57785000D01*
X148337465Y-57756908D01*
X148548460Y-57654996D01*
X148636182Y-57577182D01*
X148810540Y-57305464D01*
X148819916Y-57017479D01*
X148687086Y-56763311D01*
X148540139Y-56635671D01*
X148331704Y-56576137D01*
X148115586Y-56563432D01*
X147701000Y-56557333D01*
X147676124Y-57171167D01*
X147651248Y-57785000D01*
X147235334Y-57785000D01*
X147235334Y-56533357D01*
X147023667Y-56480232D01*
X146864994Y-56408553D01*
X146812000Y-56333399D01*
X146878882Y-56290885D01*
X147086374Y-56268940D01*
X147444748Y-56266972D01*
X147786815Y-56277005D01*
X148317439Y-56308460D01*
X148702452Y-56364101D01*
X148965143Y-56456025D01*
X149128801Y-56596330D01*
X149216716Y-56797114D01*
X149250171Y-57037137D01*
X149247472Y-57305777D01*
X149176083Y-57492932D01*
X149048125Y-57642450D01*
X148870910Y-57791273D01*
X148724998Y-57867176D01*
X148705455Y-57869667D01*
X148626202Y-57880921D01*
X148606400Y-57930490D01*
X148656952Y-58042087D01*
X148788767Y-58239422D01*
X149012748Y-58546205D01*
X149022958Y-58559983D01*
X149293945Y-58908332D01*
X149506274Y-59133664D01*
X149687409Y-59258758D01*
X149864815Y-59306394D01*
X149925978Y-59309000D01*
X150056529Y-59282444D01*
X150177814Y-59188457D01*
X150303394Y-59005562D01*
X150446833Y-58712282D01*
X150621691Y-58287138D01*
X150701185Y-58081333D01*
X150717672Y-58039000D01*
X150968255Y-58039000D01*
X151472461Y-58039000D01*
X151739248Y-58035771D01*
X151921899Y-58027384D01*
X151976356Y-58017833D01*
X151945272Y-57897217D01*
X151866774Y-57688750D01*
X151760245Y-57435734D01*
X151645068Y-57181468D01*
X151540625Y-56969253D01*
X151466300Y-56842388D01*
X151443088Y-56826557D01*
X151391497Y-56939334D01*
X151300421Y-57163753D01*
X151188988Y-57452592D01*
X151182050Y-57470998D01*
X150968255Y-58039000D01*
X150717672Y-58039000D01*
X150960665Y-57415111D01*
X151172713Y-56901359D01*
X151341473Y-56531261D01*
X151471089Y-56296000D01*
X151565703Y-56186759D01*
X151596420Y-56176333D01*
X151657326Y-56251135D01*
G37*
X151657326Y-56251135D02*
X151765911Y-56457487D01*
X151910609Y-56768306D01*
X152079857Y-57156512D01*
X152262088Y-57595022D01*
X152445737Y-58056755D01*
X152619239Y-58514629D01*
X152745160Y-58866287D01*
X152856356Y-59081804D01*
X152994438Y-59225065D01*
X153001572Y-59229099D01*
X153145313Y-59336533D01*
X153124439Y-59414937D01*
X152941432Y-59462727D01*
X152611667Y-59478333D01*
X152297988Y-59462952D01*
X152109878Y-59421688D01*
X152060508Y-59361857D01*
X152163047Y-59290776D01*
X152230667Y-59266667D01*
X152345002Y-59217574D01*
X152387768Y-59139543D01*
X152359058Y-58993480D01*
X152258965Y-58740288D01*
X152232074Y-58677282D01*
X152064147Y-58285525D01*
X151461288Y-58310429D01*
X150858430Y-58335333D01*
X150697951Y-58758667D01*
X150608739Y-58996006D01*
X150550442Y-59154947D01*
X150537402Y-59193988D01*
X150608242Y-59220714D01*
X150749000Y-59259101D01*
X150907601Y-59328081D01*
X150960667Y-59398144D01*
X150878700Y-59437246D01*
X150642113Y-59459530D01*
X150264871Y-59464043D01*
X150053249Y-59460031D01*
X149145831Y-59436000D01*
X148630247Y-58758667D01*
X148358355Y-58417424D01*
X148152281Y-58199948D01*
X147989909Y-58085297D01*
X147886665Y-58054543D01*
X147765282Y-58046822D01*
X147697091Y-58083699D01*
X147666752Y-58201265D01*
X147658928Y-58435613D01*
X147658667Y-58591064D01*
X147662623Y-58893150D01*
X147685954Y-59070534D01*
X147745852Y-59167836D01*
X147859510Y-59229673D01*
X147912667Y-59250250D01*
X148109178Y-59341750D01*
X148145677Y-59408898D01*
X148019885Y-59452921D01*
X147729522Y-59475047D01*
X147489334Y-59478333D01*
X147162151Y-59468684D01*
X146925822Y-59442629D01*
X146815758Y-59404513D01*
X146812000Y-59395280D01*
X146883840Y-59315028D01*
X147023667Y-59259101D01*
X147235334Y-59205976D01*
X147235334Y-57785000D01*
X147651248Y-57785000D01*
X148039806Y-57785000D01*
X148337465Y-57756908D01*
X148548460Y-57654996D01*
X148636182Y-57577182D01*
X148810540Y-57305464D01*
X148819916Y-57017479D01*
X148687086Y-56763311D01*
X148540139Y-56635671D01*
X148331704Y-56576137D01*
X148115586Y-56563432D01*
X147701000Y-56557333D01*
X147676124Y-57171167D01*
X147651248Y-57785000D01*
X147235334Y-57785000D01*
X147235334Y-56533357D01*
X147023667Y-56480232D01*
X146864994Y-56408553D01*
X146812000Y-56333399D01*
X146878882Y-56290885D01*
X147086374Y-56268940D01*
X147444748Y-56266972D01*
X147786815Y-56277005D01*
X148317439Y-56308460D01*
X148702452Y-56364101D01*
X148965143Y-56456025D01*
X149128801Y-56596330D01*
X149216716Y-56797114D01*
X149250171Y-57037137D01*
X149247472Y-57305777D01*
X149176083Y-57492932D01*
X149048125Y-57642450D01*
X148870910Y-57791273D01*
X148724998Y-57867176D01*
X148705455Y-57869667D01*
X148626202Y-57880921D01*
X148606400Y-57930490D01*
X148656952Y-58042087D01*
X148788767Y-58239422D01*
X149012748Y-58546205D01*
X149022958Y-58559983D01*
X149293945Y-58908332D01*
X149506274Y-59133664D01*
X149687409Y-59258758D01*
X149864815Y-59306394D01*
X149925978Y-59309000D01*
X150056529Y-59282444D01*
X150177814Y-59188457D01*
X150303394Y-59005562D01*
X150446833Y-58712282D01*
X150621691Y-58287138D01*
X150701185Y-58081333D01*
X150717672Y-58039000D01*
X150968255Y-58039000D01*
X151472461Y-58039000D01*
X151739248Y-58035771D01*
X151921899Y-58027384D01*
X151976356Y-58017833D01*
X151945272Y-57897217D01*
X151866774Y-57688750D01*
X151760245Y-57435734D01*
X151645068Y-57181468D01*
X151540625Y-56969253D01*
X151466300Y-56842388D01*
X151443088Y-56826557D01*
X151391497Y-56939334D01*
X151300421Y-57163753D01*
X151188988Y-57452592D01*
X151182050Y-57470998D01*
X150968255Y-58039000D01*
X150717672Y-58039000D01*
X150960665Y-57415111D01*
X151172713Y-56901359D01*
X151341473Y-56531261D01*
X151471089Y-56296000D01*
X151565703Y-56186759D01*
X151596420Y-56176333D01*
X151657326Y-56251135D01*
G36*
X154643667Y-56261387D02*
G01*
X155058383Y-57467693D01*
X155206891Y-57893428D01*
X155339520Y-58262029D01*
X155445271Y-58543802D01*
X155513143Y-58709048D01*
X155529012Y-58738230D01*
X155573774Y-58685060D01*
X155661060Y-58496518D01*
X155780464Y-58198076D01*
X155921578Y-57815208D01*
X156013253Y-57552896D01*
X156441579Y-56303333D01*
X157003123Y-56278298D01*
X157310629Y-56280349D01*
X157507380Y-56312365D01*
X157577712Y-56365306D01*
X157505963Y-56430131D01*
X157353000Y-56480232D01*
X157141334Y-56533357D01*
X157141334Y-59205976D01*
X157353000Y-59259101D01*
X157535897Y-59325605D01*
X157562450Y-59387415D01*
X157445635Y-59437812D01*
X157198429Y-59470075D01*
X156929667Y-59478333D01*
X156559212Y-59466541D01*
X156353896Y-59430185D01*
X156311107Y-59367791D01*
X156428234Y-59277889D01*
X156506334Y-59239739D01*
X156718000Y-59143297D01*
X156718000Y-57815037D01*
X156714291Y-57368309D01*
X156704044Y-56993533D01*
X156688581Y-56717562D01*
X156669222Y-56567248D01*
X156655708Y-56549070D01*
X156607820Y-56645432D01*
X156513401Y-56874363D01*
X156382953Y-57208995D01*
X156226979Y-57622456D01*
X156079309Y-58023681D01*
X155864677Y-58594700D01*
X155688648Y-59023410D01*
X155553975Y-59303673D01*
X155463412Y-59429346D01*
X155445972Y-59436000D01*
X155369143Y-59355005D01*
X155248807Y-59114477D01*
X155086556Y-58718100D01*
X154883980Y-58169558D01*
X154815870Y-57976698D01*
X154650232Y-57512932D01*
X154499990Y-57109837D01*
X154375045Y-56792588D01*
X154285298Y-56586360D01*
X154241500Y-56516198D01*
X154219757Y-56595640D01*
X154201220Y-56815673D01*
X154187280Y-57147569D01*
X154179324Y-57562594D01*
X154178000Y-57829429D01*
X154178000Y-59143858D01*
X154389667Y-59224333D01*
X154569449Y-59317929D01*
X154587807Y-59394945D01*
X154452297Y-59449712D01*
X154170476Y-59476562D01*
X154051000Y-59478333D01*
X153770159Y-59466674D01*
X153572045Y-59436138D01*
X153500667Y-59395280D01*
X153572507Y-59315028D01*
X153712334Y-59259101D01*
X153924000Y-59205976D01*
X153924000Y-56533357D01*
X153712334Y-56480232D01*
X153531440Y-56413200D01*
X153506206Y-56349773D01*
X153623019Y-56298238D01*
X153868270Y-56266878D01*
X154072167Y-56261193D01*
X154643667Y-56261387D01*
G37*
X154643667Y-56261387D02*
X155058383Y-57467693D01*
X155206891Y-57893428D01*
X155339520Y-58262029D01*
X155445271Y-58543802D01*
X155513143Y-58709048D01*
X155529012Y-58738230D01*
X155573774Y-58685060D01*
X155661060Y-58496518D01*
X155780464Y-58198076D01*
X155921578Y-57815208D01*
X156013253Y-57552896D01*
X156441579Y-56303333D01*
X157003123Y-56278298D01*
X157310629Y-56280349D01*
X157507380Y-56312365D01*
X157577712Y-56365306D01*
X157505963Y-56430131D01*
X157353000Y-56480232D01*
X157141334Y-56533357D01*
X157141334Y-59205976D01*
X157353000Y-59259101D01*
X157535897Y-59325605D01*
X157562450Y-59387415D01*
X157445635Y-59437812D01*
X157198429Y-59470075D01*
X156929667Y-59478333D01*
X156559212Y-59466541D01*
X156353896Y-59430185D01*
X156311107Y-59367791D01*
X156428234Y-59277889D01*
X156506334Y-59239739D01*
X156718000Y-59143297D01*
X156718000Y-57815037D01*
X156714291Y-57368309D01*
X156704044Y-56993533D01*
X156688581Y-56717562D01*
X156669222Y-56567248D01*
X156655708Y-56549070D01*
X156607820Y-56645432D01*
X156513401Y-56874363D01*
X156382953Y-57208995D01*
X156226979Y-57622456D01*
X156079309Y-58023681D01*
X155864677Y-58594700D01*
X155688648Y-59023410D01*
X155553975Y-59303673D01*
X155463412Y-59429346D01*
X155445972Y-59436000D01*
X155369143Y-59355005D01*
X155248807Y-59114477D01*
X155086556Y-58718100D01*
X154883980Y-58169558D01*
X154815870Y-57976698D01*
X154650232Y-57512932D01*
X154499990Y-57109837D01*
X154375045Y-56792588D01*
X154285298Y-56586360D01*
X154241500Y-56516198D01*
X154219757Y-56595640D01*
X154201220Y-56815673D01*
X154187280Y-57147569D01*
X154179324Y-57562594D01*
X154178000Y-57829429D01*
X154178000Y-59143858D01*
X154389667Y-59224333D01*
X154569449Y-59317929D01*
X154587807Y-59394945D01*
X154452297Y-59449712D01*
X154170476Y-59476562D01*
X154051000Y-59478333D01*
X153770159Y-59466674D01*
X153572045Y-59436138D01*
X153500667Y-59395280D01*
X153572507Y-59315028D01*
X153712334Y-59259101D01*
X153924000Y-59205976D01*
X153924000Y-56533357D01*
X153712334Y-56480232D01*
X153531440Y-56413200D01*
X153506206Y-56349773D01*
X153623019Y-56298238D01*
X153868270Y-56266878D01*
X154072167Y-56261193D01*
X154643667Y-56261387D01*
G36*
X159215667Y-56261387D02*
G01*
X159630383Y-57467693D01*
X159778891Y-57893428D01*
X159911520Y-58262029D01*
X160017271Y-58543802D01*
X160085143Y-58709048D01*
X160101012Y-58738230D01*
X160145774Y-58685060D01*
X160233060Y-58496518D01*
X160352464Y-58198076D01*
X160493578Y-57815208D01*
X160585253Y-57552896D01*
X161013579Y-56303333D01*
X161575123Y-56278298D01*
X161882629Y-56280349D01*
X162079380Y-56312365D01*
X162149712Y-56365306D01*
X162077963Y-56430131D01*
X161925000Y-56480232D01*
X161713334Y-56533357D01*
X161713334Y-59205976D01*
X161925000Y-59259101D01*
X162107897Y-59325605D01*
X162134450Y-59387415D01*
X162017635Y-59437812D01*
X161770429Y-59470075D01*
X161501667Y-59478333D01*
X161131212Y-59466541D01*
X160925896Y-59430185D01*
X160883107Y-59367791D01*
X161000234Y-59277889D01*
X161078334Y-59239739D01*
X161290000Y-59143297D01*
X161290000Y-57815037D01*
X161286291Y-57368309D01*
X161276044Y-56993533D01*
X161260581Y-56717562D01*
X161241222Y-56567248D01*
X161227708Y-56549070D01*
X161179820Y-56645432D01*
X161085401Y-56874363D01*
X160954953Y-57208995D01*
X160798979Y-57622456D01*
X160651309Y-58023681D01*
X160436677Y-58594700D01*
X160260648Y-59023410D01*
X160125975Y-59303673D01*
X160035412Y-59429346D01*
X160017972Y-59436000D01*
X159941143Y-59355005D01*
X159820807Y-59114477D01*
X159658556Y-58718100D01*
X159455980Y-58169558D01*
X159387870Y-57976698D01*
X159222232Y-57512932D01*
X159071990Y-57109837D01*
X158947045Y-56792588D01*
X158857298Y-56586360D01*
X158813500Y-56516198D01*
X158791757Y-56595640D01*
X158773220Y-56815673D01*
X158759280Y-57147569D01*
X158751324Y-57562594D01*
X158750000Y-57829429D01*
X158750000Y-59143858D01*
X158961667Y-59224333D01*
X159141449Y-59317929D01*
X159159807Y-59394945D01*
X159024297Y-59449712D01*
X158742476Y-59476562D01*
X158623000Y-59478333D01*
X158342159Y-59466674D01*
X158144045Y-59436138D01*
X158072667Y-59395280D01*
X158144507Y-59315028D01*
X158284334Y-59259101D01*
X158496000Y-59205976D01*
X158496000Y-56533357D01*
X158284334Y-56480232D01*
X158103440Y-56413200D01*
X158078206Y-56349773D01*
X158195019Y-56298238D01*
X158440270Y-56266878D01*
X158644167Y-56261193D01*
X159215667Y-56261387D01*
G37*
X159215667Y-56261387D02*
X159630383Y-57467693D01*
X159778891Y-57893428D01*
X159911520Y-58262029D01*
X160017271Y-58543802D01*
X160085143Y-58709048D01*
X160101012Y-58738230D01*
X160145774Y-58685060D01*
X160233060Y-58496518D01*
X160352464Y-58198076D01*
X160493578Y-57815208D01*
X160585253Y-57552896D01*
X161013579Y-56303333D01*
X161575123Y-56278298D01*
X161882629Y-56280349D01*
X162079380Y-56312365D01*
X162149712Y-56365306D01*
X162077963Y-56430131D01*
X161925000Y-56480232D01*
X161713334Y-56533357D01*
X161713334Y-59205976D01*
X161925000Y-59259101D01*
X162107897Y-59325605D01*
X162134450Y-59387415D01*
X162017635Y-59437812D01*
X161770429Y-59470075D01*
X161501667Y-59478333D01*
X161131212Y-59466541D01*
X160925896Y-59430185D01*
X160883107Y-59367791D01*
X161000234Y-59277889D01*
X161078334Y-59239739D01*
X161290000Y-59143297D01*
X161290000Y-57815037D01*
X161286291Y-57368309D01*
X161276044Y-56993533D01*
X161260581Y-56717562D01*
X161241222Y-56567248D01*
X161227708Y-56549070D01*
X161179820Y-56645432D01*
X161085401Y-56874363D01*
X160954953Y-57208995D01*
X160798979Y-57622456D01*
X160651309Y-58023681D01*
X160436677Y-58594700D01*
X160260648Y-59023410D01*
X160125975Y-59303673D01*
X160035412Y-59429346D01*
X160017972Y-59436000D01*
X159941143Y-59355005D01*
X159820807Y-59114477D01*
X159658556Y-58718100D01*
X159455980Y-58169558D01*
X159387870Y-57976698D01*
X159222232Y-57512932D01*
X159071990Y-57109837D01*
X158947045Y-56792588D01*
X158857298Y-56586360D01*
X158813500Y-56516198D01*
X158791757Y-56595640D01*
X158773220Y-56815673D01*
X158759280Y-57147569D01*
X158751324Y-57562594D01*
X158750000Y-57829429D01*
X158750000Y-59143858D01*
X158961667Y-59224333D01*
X159141449Y-59317929D01*
X159159807Y-59394945D01*
X159024297Y-59449712D01*
X158742476Y-59476562D01*
X158623000Y-59478333D01*
X158342159Y-59466674D01*
X158144045Y-59436138D01*
X158072667Y-59395280D01*
X158144507Y-59315028D01*
X158284334Y-59259101D01*
X158496000Y-59205976D01*
X158496000Y-56533357D01*
X158284334Y-56480232D01*
X158103440Y-56413200D01*
X158078206Y-56349773D01*
X158195019Y-56298238D01*
X158440270Y-56266878D01*
X158644167Y-56261193D01*
X159215667Y-56261387D01*
G36*
X163674621Y-56274057D02*
G01*
X163906201Y-56309306D01*
X164004240Y-56360861D01*
X163956241Y-56422840D01*
X163787667Y-56480232D01*
X163576000Y-56533357D01*
X163576000Y-59205976D01*
X163787667Y-59259101D01*
X163971846Y-59325345D01*
X163999191Y-59386248D01*
X163882202Y-59435927D01*
X163633377Y-59468495D01*
X163322000Y-59478333D01*
X163007453Y-59470724D01*
X162770588Y-59450502D01*
X162651468Y-59421577D01*
X162644667Y-59412229D01*
X162715174Y-59340022D01*
X162886137Y-59255059D01*
X162898667Y-59250250D01*
X163152667Y-59154375D01*
X163152667Y-56590858D01*
X162898667Y-56502313D01*
X162697450Y-56412206D01*
X162661793Y-56341619D01*
X162788869Y-56292162D01*
X163075855Y-56265445D01*
X163322000Y-56261000D01*
X163674621Y-56274057D01*
G37*
X163674621Y-56274057D02*
X163906201Y-56309306D01*
X164004240Y-56360861D01*
X163956241Y-56422840D01*
X163787667Y-56480232D01*
X163576000Y-56533357D01*
X163576000Y-59205976D01*
X163787667Y-59259101D01*
X163971846Y-59325345D01*
X163999191Y-59386248D01*
X163882202Y-59435927D01*
X163633377Y-59468495D01*
X163322000Y-59478333D01*
X163007453Y-59470724D01*
X162770588Y-59450502D01*
X162651468Y-59421577D01*
X162644667Y-59412229D01*
X162715174Y-59340022D01*
X162886137Y-59255059D01*
X162898667Y-59250250D01*
X163152667Y-59154375D01*
X163152667Y-56590858D01*
X162898667Y-56502313D01*
X162697450Y-56412206D01*
X162661793Y-56341619D01*
X162788869Y-56292162D01*
X163075855Y-56265445D01*
X163322000Y-56261000D01*
X163674621Y-56274057D01*
G36*
X166238562Y-57467500D02*
G01*
X166516594Y-57867213D01*
X166763880Y-58220481D01*
X166963183Y-58502857D01*
X167097266Y-58689893D01*
X167145975Y-58754433D01*
X167171875Y-58705647D01*
X167193514Y-58515794D01*
X167208970Y-58213125D01*
X167216320Y-57825891D01*
X167216667Y-57715451D01*
X167215710Y-57261851D01*
X167209446Y-56948356D01*
X167192787Y-56745740D01*
X167160645Y-56624776D01*
X167107932Y-56556237D01*
X167029561Y-56510895D01*
X167005000Y-56499594D01*
X166830229Y-56396913D01*
X166820976Y-56323173D01*
X166977726Y-56278031D01*
X167300964Y-56261147D01*
X167343667Y-56261000D01*
X167684054Y-56274997D01*
X167857904Y-56317217D01*
X167865700Y-56388000D01*
X167707929Y-56487689D01*
X167682334Y-56499594D01*
X167470667Y-56596036D01*
X167470667Y-57903260D01*
X167467890Y-58465075D01*
X167457770Y-58878788D01*
X167437623Y-59165569D01*
X167404764Y-59346584D01*
X167356508Y-59443003D01*
X167290170Y-59475993D01*
X167271108Y-59476821D01*
X167194042Y-59410300D01*
X167037399Y-59226064D01*
X166817987Y-58945624D01*
X166552616Y-58590490D01*
X166258097Y-58182173D01*
X166245558Y-58164488D01*
X165952111Y-57755019D01*
X165689776Y-57397817D01*
X165474796Y-57114284D01*
X165323413Y-56925819D01*
X165251869Y-56853825D01*
X165250724Y-56853667D01*
X165226599Y-56933190D01*
X165206422Y-57151214D01*
X165191972Y-57476920D01*
X165185025Y-57879490D01*
X165184667Y-57998762D01*
X165185507Y-58458174D01*
X165191305Y-58776708D01*
X165206976Y-58982821D01*
X165237433Y-59104969D01*
X165287591Y-59171609D01*
X165362365Y-59211195D01*
X165396334Y-59224333D01*
X165576116Y-59317929D01*
X165594473Y-59394945D01*
X165458963Y-59449712D01*
X165177142Y-59476562D01*
X165057667Y-59478333D01*
X164776826Y-59466674D01*
X164578711Y-59436138D01*
X164507334Y-59395280D01*
X164579173Y-59315028D01*
X164719000Y-59259101D01*
X164930667Y-59205976D01*
X164930667Y-56533357D01*
X164719000Y-56480232D01*
X164540980Y-56411182D01*
X164518037Y-56343219D01*
X164636328Y-56289227D01*
X164882008Y-56262089D01*
X164954587Y-56261000D01*
X165401841Y-56261000D01*
X166238562Y-57467500D01*
G37*
X166238562Y-57467500D02*
X166516594Y-57867213D01*
X166763880Y-58220481D01*
X166963183Y-58502857D01*
X167097266Y-58689893D01*
X167145975Y-58754433D01*
X167171875Y-58705647D01*
X167193514Y-58515794D01*
X167208970Y-58213125D01*
X167216320Y-57825891D01*
X167216667Y-57715451D01*
X167215710Y-57261851D01*
X167209446Y-56948356D01*
X167192787Y-56745740D01*
X167160645Y-56624776D01*
X167107932Y-56556237D01*
X167029561Y-56510895D01*
X167005000Y-56499594D01*
X166830229Y-56396913D01*
X166820976Y-56323173D01*
X166977726Y-56278031D01*
X167300964Y-56261147D01*
X167343667Y-56261000D01*
X167684054Y-56274997D01*
X167857904Y-56317217D01*
X167865700Y-56388000D01*
X167707929Y-56487689D01*
X167682334Y-56499594D01*
X167470667Y-56596036D01*
X167470667Y-57903260D01*
X167467890Y-58465075D01*
X167457770Y-58878788D01*
X167437623Y-59165569D01*
X167404764Y-59346584D01*
X167356508Y-59443003D01*
X167290170Y-59475993D01*
X167271108Y-59476821D01*
X167194042Y-59410300D01*
X167037399Y-59226064D01*
X166817987Y-58945624D01*
X166552616Y-58590490D01*
X166258097Y-58182173D01*
X166245558Y-58164488D01*
X165952111Y-57755019D01*
X165689776Y-57397817D01*
X165474796Y-57114284D01*
X165323413Y-56925819D01*
X165251869Y-56853825D01*
X165250724Y-56853667D01*
X165226599Y-56933190D01*
X165206422Y-57151214D01*
X165191972Y-57476920D01*
X165185025Y-57879490D01*
X165184667Y-57998762D01*
X165185507Y-58458174D01*
X165191305Y-58776708D01*
X165206976Y-58982821D01*
X165237433Y-59104969D01*
X165287591Y-59171609D01*
X165362365Y-59211195D01*
X165396334Y-59224333D01*
X165576116Y-59317929D01*
X165594473Y-59394945D01*
X165458963Y-59449712D01*
X165177142Y-59476562D01*
X165057667Y-59478333D01*
X164776826Y-59466674D01*
X164578711Y-59436138D01*
X164507334Y-59395280D01*
X164579173Y-59315028D01*
X164719000Y-59259101D01*
X164930667Y-59205976D01*
X164930667Y-56533357D01*
X164719000Y-56480232D01*
X164540980Y-56411182D01*
X164518037Y-56343219D01*
X164636328Y-56289227D01*
X164882008Y-56262089D01*
X164954587Y-56261000D01*
X165401841Y-56261000D01*
X166238562Y-57467500D01*
G36*
X153551028Y-51075990D02*
G01*
X153860500Y-51148886D01*
X153953465Y-51216575D01*
X153998457Y-51375699D01*
X154008667Y-51617094D01*
X153994340Y-51884048D01*
X153948195Y-52001344D01*
X153902834Y-52007026D01*
X153815273Y-51905718D01*
X153770135Y-51745198D01*
X153668691Y-51519637D01*
X153456084Y-51367585D01*
X153177927Y-51298557D01*
X152879833Y-51322069D01*
X152607413Y-51447633D01*
X152553722Y-51491461D01*
X152411940Y-51703832D01*
X152429389Y-51926267D01*
X152597582Y-52145522D01*
X152908028Y-52348353D01*
X153176498Y-52463082D01*
X153624533Y-52651271D01*
X153925612Y-52844273D01*
X154101340Y-53063075D01*
X154173320Y-53328666D01*
X154178000Y-53436041D01*
X154110780Y-53806230D01*
X153905727Y-54082845D01*
X153557750Y-54271955D01*
X153447981Y-54306229D01*
X153156923Y-54372234D01*
X152903394Y-54383027D01*
X152610847Y-54337108D01*
X152400000Y-54285686D01*
X152019000Y-54186667D01*
X151993110Y-53733536D01*
X151987904Y-53463482D01*
X152015786Y-53333914D01*
X152077776Y-53316732D01*
X152168312Y-53419216D01*
X152215602Y-53584318D01*
X152320902Y-53821779D01*
X152544444Y-54003664D01*
X152839440Y-54112334D01*
X153159102Y-54130146D01*
X153442733Y-54046992D01*
X153655238Y-53892648D01*
X153742959Y-53687150D01*
X153753370Y-53533798D01*
X153691713Y-53290232D01*
X153494615Y-53086956D01*
X153148419Y-52912328D01*
X152939350Y-52839673D01*
X152507847Y-52663326D01*
X152228784Y-52447429D01*
X152087028Y-52176792D01*
X152061334Y-51958266D01*
X152132940Y-51589290D01*
X152335741Y-51308464D01*
X152651708Y-51123898D01*
X153062813Y-51043704D01*
X153551028Y-51075990D01*
G37*
X153551028Y-51075990D02*
X153860500Y-51148886D01*
X153953465Y-51216575D01*
X153998457Y-51375699D01*
X154008667Y-51617094D01*
X153994340Y-51884048D01*
X153948195Y-52001344D01*
X153902834Y-52007026D01*
X153815273Y-51905718D01*
X153770135Y-51745198D01*
X153668691Y-51519637D01*
X153456084Y-51367585D01*
X153177927Y-51298557D01*
X152879833Y-51322069D01*
X152607413Y-51447633D01*
X152553722Y-51491461D01*
X152411940Y-51703832D01*
X152429389Y-51926267D01*
X152597582Y-52145522D01*
X152908028Y-52348353D01*
X153176498Y-52463082D01*
X153624533Y-52651271D01*
X153925612Y-52844273D01*
X154101340Y-53063075D01*
X154173320Y-53328666D01*
X154178000Y-53436041D01*
X154110780Y-53806230D01*
X153905727Y-54082845D01*
X153557750Y-54271955D01*
X153447981Y-54306229D01*
X153156923Y-54372234D01*
X152903394Y-54383027D01*
X152610847Y-54337108D01*
X152400000Y-54285686D01*
X152019000Y-54186667D01*
X151993110Y-53733536D01*
X151987904Y-53463482D01*
X152015786Y-53333914D01*
X152077776Y-53316732D01*
X152168312Y-53419216D01*
X152215602Y-53584318D01*
X152320902Y-53821779D01*
X152544444Y-54003664D01*
X152839440Y-54112334D01*
X153159102Y-54130146D01*
X153442733Y-54046992D01*
X153655238Y-53892648D01*
X153742959Y-53687150D01*
X153753370Y-53533798D01*
X153691713Y-53290232D01*
X153494615Y-53086956D01*
X153148419Y-52912328D01*
X152939350Y-52839673D01*
X152507847Y-52663326D01*
X152228784Y-52447429D01*
X152087028Y-52176792D01*
X152061334Y-51958266D01*
X152132940Y-51589290D01*
X152335741Y-51308464D01*
X152651708Y-51123898D01*
X153062813Y-51043704D01*
X153551028Y-51075990D01*
G36*
X158488315Y-51050002D02*
G01*
X158849068Y-51112113D01*
X159075177Y-51163296D01*
X159197936Y-51226361D01*
X159248640Y-51324122D01*
X159258582Y-51479388D01*
X159258000Y-51611060D01*
X159236729Y-51874808D01*
X159183754Y-52007850D01*
X159115336Y-51998707D01*
X159047736Y-51835899D01*
X159032898Y-51769987D01*
X158901881Y-51517813D01*
X158644462Y-51343834D01*
X158293403Y-51268450D01*
X158225038Y-51266915D01*
X157812443Y-51341292D01*
X157490481Y-51552988D01*
X157268188Y-51890944D01*
X157154599Y-52344102D01*
X157141334Y-52593240D01*
X157160958Y-52933406D01*
X157211682Y-53251107D01*
X157263239Y-53425532D01*
X157478892Y-53739941D01*
X157796707Y-53952277D01*
X158177119Y-54053128D01*
X158580560Y-54033084D01*
X158967464Y-53882735D01*
X159026679Y-53844948D01*
X159220070Y-53718670D01*
X159312342Y-53684792D01*
X159340757Y-53738118D01*
X159342667Y-53800893D01*
X159264641Y-53971544D01*
X159057016Y-54125088D01*
X158759474Y-54248709D01*
X158411693Y-54329591D01*
X158053356Y-54354917D01*
X157744398Y-54317126D01*
X157304348Y-54128162D01*
X156971312Y-53810939D01*
X156751165Y-53373009D01*
X156658137Y-52920859D01*
X156676738Y-52401732D01*
X156829357Y-51935216D01*
X157094594Y-51543186D01*
X157451049Y-51247518D01*
X157877321Y-51070088D01*
X158352012Y-51032771D01*
X158488315Y-51050002D01*
G37*
X158488315Y-51050002D02*
X158849068Y-51112113D01*
X159075177Y-51163296D01*
X159197936Y-51226361D01*
X159248640Y-51324122D01*
X159258582Y-51479388D01*
X159258000Y-51611060D01*
X159236729Y-51874808D01*
X159183754Y-52007850D01*
X159115336Y-51998707D01*
X159047736Y-51835899D01*
X159032898Y-51769987D01*
X158901881Y-51517813D01*
X158644462Y-51343834D01*
X158293403Y-51268450D01*
X158225038Y-51266915D01*
X157812443Y-51341292D01*
X157490481Y-51552988D01*
X157268188Y-51890944D01*
X157154599Y-52344102D01*
X157141334Y-52593240D01*
X157160958Y-52933406D01*
X157211682Y-53251107D01*
X157263239Y-53425532D01*
X157478892Y-53739941D01*
X157796707Y-53952277D01*
X158177119Y-54053128D01*
X158580560Y-54033084D01*
X158967464Y-53882735D01*
X159026679Y-53844948D01*
X159220070Y-53718670D01*
X159312342Y-53684792D01*
X159340757Y-53738118D01*
X159342667Y-53800893D01*
X159264641Y-53971544D01*
X159057016Y-54125088D01*
X158759474Y-54248709D01*
X158411693Y-54329591D01*
X158053356Y-54354917D01*
X157744398Y-54317126D01*
X157304348Y-54128162D01*
X156971312Y-53810939D01*
X156751165Y-53373009D01*
X156658137Y-52920859D01*
X156676738Y-52401732D01*
X156829357Y-51935216D01*
X157094594Y-51543186D01*
X157451049Y-51247518D01*
X157877321Y-51070088D01*
X158352012Y-51032771D01*
X158488315Y-51050002D01*
G36*
X146393494Y-51103062D02*
G01*
X146761923Y-51130047D01*
X147108192Y-51170002D01*
X147394341Y-51220730D01*
X147582412Y-51280037D01*
X147605295Y-51292982D01*
X147817396Y-51518782D01*
X147897182Y-51799316D01*
X147848667Y-52088873D01*
X147675864Y-52341745D01*
X147502573Y-52462878D01*
X147229563Y-52601757D01*
X147502117Y-52696769D01*
X147827576Y-52851334D01*
X148011178Y-53054799D01*
X148079701Y-53340703D01*
X148082000Y-53423030D01*
X148010611Y-53776808D01*
X147796684Y-54039336D01*
X147440582Y-54210214D01*
X147349350Y-54234051D01*
X147110914Y-54271182D01*
X146795523Y-54295992D01*
X146443045Y-54308551D01*
X146093350Y-54308932D01*
X145786308Y-54297209D01*
X145561787Y-54273452D01*
X145459657Y-54237736D01*
X145457334Y-54230613D01*
X145529173Y-54150362D01*
X145669000Y-54094434D01*
X145880667Y-54041309D01*
X145880667Y-53689230D01*
X146309148Y-53689230D01*
X146335596Y-53909398D01*
X146423257Y-54021184D01*
X146595451Y-54054752D01*
X146869723Y-54040742D01*
X147189979Y-53995107D01*
X147393772Y-53911236D01*
X147503399Y-53809321D01*
X147642286Y-53523397D01*
X147615390Y-53229930D01*
X147505632Y-53042769D01*
X147381364Y-52930187D01*
X147206323Y-52869685D01*
X146927279Y-52845047D01*
X146849465Y-52842890D01*
X146346334Y-52832000D01*
X146320593Y-53330520D01*
X146309148Y-53689230D01*
X145880667Y-53689230D01*
X145880667Y-52535667D01*
X146296263Y-52535667D01*
X146684980Y-52535667D01*
X146979332Y-52508537D01*
X147189287Y-52408369D01*
X147289624Y-52319739D01*
X147437924Y-52127918D01*
X147462503Y-51941581D01*
X147449538Y-51875239D01*
X147339681Y-51610244D01*
X147149089Y-51460049D01*
X146843472Y-51401237D01*
X146750950Y-51398141D01*
X146346334Y-51392667D01*
X146321298Y-51964167D01*
X146296263Y-52535667D01*
X145880667Y-52535667D01*
X145880667Y-51368690D01*
X145669000Y-51315565D01*
X145510327Y-51243886D01*
X145457334Y-51168733D01*
X145534823Y-51121882D01*
X145741985Y-51096784D01*
X146040861Y-51091243D01*
X146393494Y-51103062D01*
G37*
X146393494Y-51103062D02*
X146761923Y-51130047D01*
X147108192Y-51170002D01*
X147394341Y-51220730D01*
X147582412Y-51280037D01*
X147605295Y-51292982D01*
X147817396Y-51518782D01*
X147897182Y-51799316D01*
X147848667Y-52088873D01*
X147675864Y-52341745D01*
X147502573Y-52462878D01*
X147229563Y-52601757D01*
X147502117Y-52696769D01*
X147827576Y-52851334D01*
X148011178Y-53054799D01*
X148079701Y-53340703D01*
X148082000Y-53423030D01*
X148010611Y-53776808D01*
X147796684Y-54039336D01*
X147440582Y-54210214D01*
X147349350Y-54234051D01*
X147110914Y-54271182D01*
X146795523Y-54295992D01*
X146443045Y-54308551D01*
X146093350Y-54308932D01*
X145786308Y-54297209D01*
X145561787Y-54273452D01*
X145459657Y-54237736D01*
X145457334Y-54230613D01*
X145529173Y-54150362D01*
X145669000Y-54094434D01*
X145880667Y-54041309D01*
X145880667Y-53689230D01*
X146309148Y-53689230D01*
X146335596Y-53909398D01*
X146423257Y-54021184D01*
X146595451Y-54054752D01*
X146869723Y-54040742D01*
X147189979Y-53995107D01*
X147393772Y-53911236D01*
X147503399Y-53809321D01*
X147642286Y-53523397D01*
X147615390Y-53229930D01*
X147505632Y-53042769D01*
X147381364Y-52930187D01*
X147206323Y-52869685D01*
X146927279Y-52845047D01*
X146849465Y-52842890D01*
X146346334Y-52832000D01*
X146320593Y-53330520D01*
X146309148Y-53689230D01*
X145880667Y-53689230D01*
X145880667Y-52535667D01*
X146296263Y-52535667D01*
X146684980Y-52535667D01*
X146979332Y-52508537D01*
X147189287Y-52408369D01*
X147289624Y-52319739D01*
X147437924Y-52127918D01*
X147462503Y-51941581D01*
X147449538Y-51875239D01*
X147339681Y-51610244D01*
X147149089Y-51460049D01*
X146843472Y-51401237D01*
X146750950Y-51398141D01*
X146346334Y-51392667D01*
X146321298Y-51964167D01*
X146296263Y-52535667D01*
X145880667Y-52535667D01*
X145880667Y-51368690D01*
X145669000Y-51315565D01*
X145510327Y-51243886D01*
X145457334Y-51168733D01*
X145534823Y-51121882D01*
X145741985Y-51096784D01*
X146040861Y-51091243D01*
X146393494Y-51103062D01*
G36*
X150048659Y-51086469D02*
G01*
X150157244Y-51292820D01*
X150301943Y-51603640D01*
X150471190Y-51991845D01*
X150653421Y-52430356D01*
X150837070Y-52892089D01*
X151010572Y-53349962D01*
X151136493Y-53701620D01*
X151247690Y-53917137D01*
X151385771Y-54060398D01*
X151392906Y-54064433D01*
X151536646Y-54171866D01*
X151515773Y-54250271D01*
X151332765Y-54298061D01*
X151003000Y-54313667D01*
X150689321Y-54298286D01*
X150501211Y-54257021D01*
X150451841Y-54197190D01*
X150554380Y-54126109D01*
X150622000Y-54102000D01*
X150736335Y-54052907D01*
X150779101Y-53974877D01*
X150750391Y-53828813D01*
X150650299Y-53575621D01*
X150623407Y-53512615D01*
X150455480Y-53120858D01*
X149852622Y-53145762D01*
X149249763Y-53170667D01*
X149089284Y-53594000D01*
X149000072Y-53831340D01*
X148941775Y-53990280D01*
X148928736Y-54029321D01*
X148999575Y-54056047D01*
X149140334Y-54094434D01*
X149319560Y-54162308D01*
X149343565Y-54227807D01*
X149226276Y-54280627D01*
X148981620Y-54310466D01*
X148844000Y-54313667D01*
X148576038Y-54306640D01*
X148391960Y-54288377D01*
X148336000Y-54267272D01*
X148392024Y-54184100D01*
X148528043Y-54045123D01*
X148539631Y-54034439D01*
X148656471Y-53874509D01*
X148807589Y-53590748D01*
X148974539Y-53220242D01*
X149095671Y-52916667D01*
X149112040Y-52874333D01*
X149359589Y-52874333D01*
X149863794Y-52874333D01*
X150130581Y-52871104D01*
X150313232Y-52862718D01*
X150367689Y-52853167D01*
X150336606Y-52732550D01*
X150258108Y-52524083D01*
X150151579Y-52271067D01*
X150036401Y-52016801D01*
X149931958Y-51804586D01*
X149857633Y-51677722D01*
X149834421Y-51661890D01*
X149782830Y-51774668D01*
X149691755Y-51999087D01*
X149580322Y-52287925D01*
X149573384Y-52306332D01*
X149359589Y-52874333D01*
X149112040Y-52874333D01*
X149355821Y-52243868D01*
X149569247Y-51725174D01*
X149739506Y-51352992D01*
X149870152Y-51119728D01*
X149964742Y-51017791D01*
X149987753Y-51011667D01*
X150048659Y-51086469D01*
G37*
X150048659Y-51086469D02*
X150157244Y-51292820D01*
X150301943Y-51603640D01*
X150471190Y-51991845D01*
X150653421Y-52430356D01*
X150837070Y-52892089D01*
X151010572Y-53349962D01*
X151136493Y-53701620D01*
X151247690Y-53917137D01*
X151385771Y-54060398D01*
X151392906Y-54064433D01*
X151536646Y-54171866D01*
X151515773Y-54250271D01*
X151332765Y-54298061D01*
X151003000Y-54313667D01*
X150689321Y-54298286D01*
X150501211Y-54257021D01*
X150451841Y-54197190D01*
X150554380Y-54126109D01*
X150622000Y-54102000D01*
X150736335Y-54052907D01*
X150779101Y-53974877D01*
X150750391Y-53828813D01*
X150650299Y-53575621D01*
X150623407Y-53512615D01*
X150455480Y-53120858D01*
X149852622Y-53145762D01*
X149249763Y-53170667D01*
X149089284Y-53594000D01*
X149000072Y-53831340D01*
X148941775Y-53990280D01*
X148928736Y-54029321D01*
X148999575Y-54056047D01*
X149140334Y-54094434D01*
X149319560Y-54162308D01*
X149343565Y-54227807D01*
X149226276Y-54280627D01*
X148981620Y-54310466D01*
X148844000Y-54313667D01*
X148576038Y-54306640D01*
X148391960Y-54288377D01*
X148336000Y-54267272D01*
X148392024Y-54184100D01*
X148528043Y-54045123D01*
X148539631Y-54034439D01*
X148656471Y-53874509D01*
X148807589Y-53590748D01*
X148974539Y-53220242D01*
X149095671Y-52916667D01*
X149112040Y-52874333D01*
X149359589Y-52874333D01*
X149863794Y-52874333D01*
X150130581Y-52871104D01*
X150313232Y-52862718D01*
X150367689Y-52853167D01*
X150336606Y-52732550D01*
X150258108Y-52524083D01*
X150151579Y-52271067D01*
X150036401Y-52016801D01*
X149931958Y-51804586D01*
X149857633Y-51677722D01*
X149834421Y-51661890D01*
X149782830Y-51774668D01*
X149691755Y-51999087D01*
X149580322Y-52287925D01*
X149573384Y-52306332D01*
X149359589Y-52874333D01*
X149112040Y-52874333D01*
X149355821Y-52243868D01*
X149569247Y-51725174D01*
X149739506Y-51352992D01*
X149870152Y-51119728D01*
X149964742Y-51017791D01*
X149987753Y-51011667D01*
X150048659Y-51086469D01*
G36*
X155800621Y-51109390D02*
G01*
X156032201Y-51144639D01*
X156130240Y-51196195D01*
X156082241Y-51258173D01*
X155913667Y-51315565D01*
X155702000Y-51368690D01*
X155702000Y-54041309D01*
X155913667Y-54094434D01*
X156097846Y-54160678D01*
X156125191Y-54221582D01*
X156008202Y-54271260D01*
X155759377Y-54303828D01*
X155448000Y-54313667D01*
X155133453Y-54306057D01*
X154896588Y-54285835D01*
X154777468Y-54256911D01*
X154770667Y-54247562D01*
X154841174Y-54175355D01*
X155012137Y-54090393D01*
X155024667Y-54085583D01*
X155278667Y-53989709D01*
X155278667Y-51426191D01*
X155024667Y-51337646D01*
X154823450Y-51247540D01*
X154787793Y-51176953D01*
X154914869Y-51127496D01*
X155201855Y-51100779D01*
X155448000Y-51096333D01*
X155800621Y-51109390D01*
G37*
X155800621Y-51109390D02*
X156032201Y-51144639D01*
X156130240Y-51196195D01*
X156082241Y-51258173D01*
X155913667Y-51315565D01*
X155702000Y-51368690D01*
X155702000Y-54041309D01*
X155913667Y-54094434D01*
X156097846Y-54160678D01*
X156125191Y-54221582D01*
X156008202Y-54271260D01*
X155759377Y-54303828D01*
X155448000Y-54313667D01*
X155133453Y-54306057D01*
X154896588Y-54285835D01*
X154777468Y-54256911D01*
X154770667Y-54247562D01*
X154841174Y-54175355D01*
X155012137Y-54090393D01*
X155024667Y-54085583D01*
X155278667Y-53989709D01*
X155278667Y-51426191D01*
X155024667Y-51337646D01*
X154823450Y-51247540D01*
X154787793Y-51176953D01*
X154914869Y-51127496D01*
X155201855Y-51100779D01*
X155448000Y-51096333D01*
X155800621Y-51109390D01*
%TD*%
M02*
