M48
INCH,TZ
T1C0.0157
T2C0.0315
T3C0.0400
T4C0.0433
T5C0.1200
%
G90
G05
T1
X51689Y-16750
X52250Y-16189
X52311Y-18500
T2
X50000Y-30500
X50000Y-34500
X50000Y-37250
X50000Y-41250
T3
X58000Y-17250
X58000Y-18250
X59000Y-17250
X59000Y-18250
X60000Y-17250
X60000Y-18250
X61000Y-17250
X61000Y-18250
X62000Y-17250
X62000Y-18250
T4
X52720Y-46614
X52720Y-48386
X55280Y-46614
X55280Y-48386
X64720Y-40614
X64720Y-42386
X67280Y-40614
X67280Y-42386
X64720Y-28614
X64720Y-30386
X67280Y-28614
X67280Y-30386
X58720Y-40614
X58720Y-42386
X61280Y-40614
X61280Y-42386
X52720Y-28614
X52720Y-30386
X55280Y-28614
X55280Y-30386
X64720Y-46614
X64720Y-48386
X67280Y-46614
X67280Y-48386
X58720Y-34614
X58720Y-36386
X61280Y-34614
X61280Y-36386
X58720Y-46614
X58720Y-48386
X61280Y-46614
X61280Y-48386
X64720Y-34614
X64720Y-36386
X67280Y-34614
X67280Y-36386
X58720Y-28614
X58720Y-30386
X61280Y-28614
X61280Y-30386
X52720Y-34614
X52720Y-36386
X55280Y-34614
X55280Y-36386
X52720Y-40614
X52720Y-42386
X55280Y-40614
X55280Y-42386
T5
X70750Y-17000
X49250Y-17000
X49250Y-53750
X70750Y-53750
T0
M30
