%TF.GenerationSoftware,KiCad,Pcbnew,(5.1.8)-1*%
%TF.CreationDate,2021-02-21T20:34:45+01:00*%
%TF.ProjectId,A2600 Faceplate,41323630-3020-4466-9163-65706c617465,rev?*%
%TF.SameCoordinates,Original*%
%TF.FileFunction,Legend,Bot*%
%TF.FilePolarity,Positive*%
%FSLAX46Y46*%
G04 Gerber Fmt 4.6, Leading zero omitted, Abs format (unit mm)*
G04 Created by KiCad (PCBNEW (5.1.8)-1) date 2021-02-21 20:34:45*
%MOMM*%
%LPD*%
G01*
G04 APERTURE LIST*
%ADD10C,0.150000*%
G04 APERTURE END LIST*
D10*
X157400000Y-136152380D02*
X157876190Y-136152380D01*
X157876190Y-135152380D01*
X157066666Y-136152380D02*
X157066666Y-135485714D01*
X157066666Y-135152380D02*
X157114285Y-135200000D01*
X157066666Y-135247619D01*
X157019047Y-135200000D01*
X157066666Y-135152380D01*
X157066666Y-135247619D01*
X156161904Y-136104761D02*
X156257142Y-136152380D01*
X156447619Y-136152380D01*
X156542857Y-136104761D01*
X156590476Y-136057142D01*
X156638095Y-135961904D01*
X156638095Y-135676190D01*
X156590476Y-135580952D01*
X156542857Y-135533333D01*
X156447619Y-135485714D01*
X156257142Y-135485714D01*
X156161904Y-135533333D01*
X155352380Y-136104761D02*
X155447619Y-136152380D01*
X155638095Y-136152380D01*
X155733333Y-136104761D01*
X155780952Y-136009523D01*
X155780952Y-135628571D01*
X155733333Y-135533333D01*
X155638095Y-135485714D01*
X155447619Y-135485714D01*
X155352380Y-135533333D01*
X155304761Y-135628571D01*
X155304761Y-135723809D01*
X155780952Y-135819047D01*
X154876190Y-135485714D02*
X154876190Y-136152380D01*
X154876190Y-135580952D02*
X154828571Y-135533333D01*
X154733333Y-135485714D01*
X154590476Y-135485714D01*
X154495238Y-135533333D01*
X154447619Y-135628571D01*
X154447619Y-136152380D01*
X154019047Y-136104761D02*
X153923809Y-136152380D01*
X153733333Y-136152380D01*
X153638095Y-136104761D01*
X153590476Y-136009523D01*
X153590476Y-135961904D01*
X153638095Y-135866666D01*
X153733333Y-135819047D01*
X153876190Y-135819047D01*
X153971428Y-135771428D01*
X154019047Y-135676190D01*
X154019047Y-135628571D01*
X153971428Y-135533333D01*
X153876190Y-135485714D01*
X153733333Y-135485714D01*
X153638095Y-135533333D01*
X152780952Y-136104761D02*
X152876190Y-136152380D01*
X153066666Y-136152380D01*
X153161904Y-136104761D01*
X153209523Y-136009523D01*
X153209523Y-135628571D01*
X153161904Y-135533333D01*
X153066666Y-135485714D01*
X152876190Y-135485714D01*
X152780952Y-135533333D01*
X152733333Y-135628571D01*
X152733333Y-135723809D01*
X153209523Y-135819047D01*
X151876190Y-136152380D02*
X151876190Y-135152380D01*
X151876190Y-136104761D02*
X151971428Y-136152380D01*
X152161904Y-136152380D01*
X152257142Y-136104761D01*
X152304761Y-136057142D01*
X152352380Y-135961904D01*
X152352380Y-135676190D01*
X152304761Y-135580952D01*
X152257142Y-135533333D01*
X152161904Y-135485714D01*
X151971428Y-135485714D01*
X151876190Y-135533333D01*
X150209523Y-135485714D02*
X150209523Y-136152380D01*
X150638095Y-135485714D02*
X150638095Y-136009523D01*
X150590476Y-136104761D01*
X150495238Y-136152380D01*
X150352380Y-136152380D01*
X150257142Y-136104761D01*
X150209523Y-136057142D01*
X149733333Y-135485714D02*
X149733333Y-136152380D01*
X149733333Y-135580952D02*
X149685714Y-135533333D01*
X149590476Y-135485714D01*
X149447619Y-135485714D01*
X149352380Y-135533333D01*
X149304761Y-135628571D01*
X149304761Y-136152380D01*
X148400000Y-136152380D02*
X148400000Y-135152380D01*
X148400000Y-136104761D02*
X148495238Y-136152380D01*
X148685714Y-136152380D01*
X148780952Y-136104761D01*
X148828571Y-136057142D01*
X148876190Y-135961904D01*
X148876190Y-135676190D01*
X148828571Y-135580952D01*
X148780952Y-135533333D01*
X148685714Y-135485714D01*
X148495238Y-135485714D01*
X148400000Y-135533333D01*
X147542857Y-136104761D02*
X147638095Y-136152380D01*
X147828571Y-136152380D01*
X147923809Y-136104761D01*
X147971428Y-136009523D01*
X147971428Y-135628571D01*
X147923809Y-135533333D01*
X147828571Y-135485714D01*
X147638095Y-135485714D01*
X147542857Y-135533333D01*
X147495238Y-135628571D01*
X147495238Y-135723809D01*
X147971428Y-135819047D01*
X147066666Y-136152380D02*
X147066666Y-135485714D01*
X147066666Y-135676190D02*
X147019047Y-135580952D01*
X146971428Y-135533333D01*
X146876190Y-135485714D01*
X146780952Y-135485714D01*
X157352380Y-137707142D02*
X157400000Y-137754761D01*
X157542857Y-137802380D01*
X157638095Y-137802380D01*
X157780952Y-137754761D01*
X157876190Y-137659523D01*
X157923809Y-137564285D01*
X157971428Y-137373809D01*
X157971428Y-137230952D01*
X157923809Y-137040476D01*
X157876190Y-136945238D01*
X157780952Y-136850000D01*
X157638095Y-136802380D01*
X157542857Y-136802380D01*
X157400000Y-136850000D01*
X157352380Y-136897619D01*
X156923809Y-137278571D02*
X156590476Y-137278571D01*
X156447619Y-137802380D02*
X156923809Y-137802380D01*
X156923809Y-136802380D01*
X156447619Y-136802380D01*
X155447619Y-137802380D02*
X155780952Y-137326190D01*
X156019047Y-137802380D02*
X156019047Y-136802380D01*
X155638095Y-136802380D01*
X155542857Y-136850000D01*
X155495238Y-136897619D01*
X155447619Y-136992857D01*
X155447619Y-137135714D01*
X155495238Y-137230952D01*
X155542857Y-137278571D01*
X155638095Y-137326190D01*
X156019047Y-137326190D01*
X155019047Y-137802380D02*
X155019047Y-136802380D01*
X154447619Y-137802380D01*
X154447619Y-136802380D01*
X153019047Y-136802380D02*
X152828571Y-136802380D01*
X152733333Y-136850000D01*
X152638095Y-136945238D01*
X152590476Y-137135714D01*
X152590476Y-137469047D01*
X152638095Y-137659523D01*
X152733333Y-137754761D01*
X152828571Y-137802380D01*
X153019047Y-137802380D01*
X153114285Y-137754761D01*
X153209523Y-137659523D01*
X153257142Y-137469047D01*
X153257142Y-137135714D01*
X153209523Y-136945238D01*
X153114285Y-136850000D01*
X153019047Y-136802380D01*
X152161904Y-137802380D02*
X152161904Y-136802380D01*
X152161904Y-137278571D02*
X151590476Y-137278571D01*
X151590476Y-137802380D02*
X151590476Y-136802380D01*
X150638095Y-137802380D02*
X151114285Y-137802380D01*
X151114285Y-136802380D01*
X149638095Y-137135714D02*
X149400000Y-137802380D01*
X149161904Y-137135714D01*
X148257142Y-137802380D02*
X148828571Y-137802380D01*
X148542857Y-137802380D02*
X148542857Y-136802380D01*
X148638095Y-136945238D01*
X148733333Y-137040476D01*
X148828571Y-137088095D01*
X147828571Y-137707142D02*
X147780952Y-137754761D01*
X147828571Y-137802380D01*
X147876190Y-137754761D01*
X147828571Y-137707142D01*
X147828571Y-137802380D01*
X147400000Y-136897619D02*
X147352380Y-136850000D01*
X147257142Y-136802380D01*
X147019047Y-136802380D01*
X146923809Y-136850000D01*
X146876190Y-136897619D01*
X146828571Y-136992857D01*
X146828571Y-137088095D01*
X146876190Y-137230952D01*
X147447619Y-137802380D01*
X146828571Y-137802380D01*
X160019047Y-132056666D02*
X159542857Y-132056666D01*
X160114285Y-132342380D02*
X159780952Y-131342380D01*
X159447619Y-132342380D01*
X159257142Y-131675714D02*
X158876190Y-131675714D01*
X159114285Y-131342380D02*
X159114285Y-132199523D01*
X159066666Y-132294761D01*
X158971428Y-132342380D01*
X158876190Y-132342380D01*
X158114285Y-132342380D02*
X158114285Y-131818571D01*
X158161904Y-131723333D01*
X158257142Y-131675714D01*
X158447619Y-131675714D01*
X158542857Y-131723333D01*
X158114285Y-132294761D02*
X158209523Y-132342380D01*
X158447619Y-132342380D01*
X158542857Y-132294761D01*
X158590476Y-132199523D01*
X158590476Y-132104285D01*
X158542857Y-132009047D01*
X158447619Y-131961428D01*
X158209523Y-131961428D01*
X158114285Y-131913809D01*
X157638095Y-132342380D02*
X157638095Y-131675714D01*
X157638095Y-131866190D02*
X157590476Y-131770952D01*
X157542857Y-131723333D01*
X157447619Y-131675714D01*
X157352380Y-131675714D01*
X157019047Y-132342380D02*
X157019047Y-131675714D01*
X157019047Y-131342380D02*
X157066666Y-131390000D01*
X157019047Y-131437619D01*
X156971428Y-131390000D01*
X157019047Y-131342380D01*
X157019047Y-131437619D01*
X155828571Y-131437619D02*
X155780952Y-131390000D01*
X155685714Y-131342380D01*
X155447619Y-131342380D01*
X155352380Y-131390000D01*
X155304761Y-131437619D01*
X155257142Y-131532857D01*
X155257142Y-131628095D01*
X155304761Y-131770952D01*
X155876190Y-132342380D01*
X155257142Y-132342380D01*
X154400000Y-131342380D02*
X154590476Y-131342380D01*
X154685714Y-131390000D01*
X154733333Y-131437619D01*
X154828571Y-131580476D01*
X154876190Y-131770952D01*
X154876190Y-132151904D01*
X154828571Y-132247142D01*
X154780952Y-132294761D01*
X154685714Y-132342380D01*
X154495238Y-132342380D01*
X154400000Y-132294761D01*
X154352380Y-132247142D01*
X154304761Y-132151904D01*
X154304761Y-131913809D01*
X154352380Y-131818571D01*
X154400000Y-131770952D01*
X154495238Y-131723333D01*
X154685714Y-131723333D01*
X154780952Y-131770952D01*
X154828571Y-131818571D01*
X154876190Y-131913809D01*
X153685714Y-131342380D02*
X153590476Y-131342380D01*
X153495238Y-131390000D01*
X153447619Y-131437619D01*
X153400000Y-131532857D01*
X153352380Y-131723333D01*
X153352380Y-131961428D01*
X153400000Y-132151904D01*
X153447619Y-132247142D01*
X153495238Y-132294761D01*
X153590476Y-132342380D01*
X153685714Y-132342380D01*
X153780952Y-132294761D01*
X153828571Y-132247142D01*
X153876190Y-132151904D01*
X153923809Y-131961428D01*
X153923809Y-131723333D01*
X153876190Y-131532857D01*
X153828571Y-131437619D01*
X153780952Y-131390000D01*
X153685714Y-131342380D01*
X152733333Y-131342380D02*
X152638095Y-131342380D01*
X152542857Y-131390000D01*
X152495238Y-131437619D01*
X152447619Y-131532857D01*
X152400000Y-131723333D01*
X152400000Y-131961428D01*
X152447619Y-132151904D01*
X152495238Y-132247142D01*
X152542857Y-132294761D01*
X152638095Y-132342380D01*
X152733333Y-132342380D01*
X152828571Y-132294761D01*
X152876190Y-132247142D01*
X152923809Y-132151904D01*
X152971428Y-131961428D01*
X152971428Y-131723333D01*
X152923809Y-131532857D01*
X152876190Y-131437619D01*
X152828571Y-131390000D01*
X152733333Y-131342380D01*
X151209523Y-132342380D02*
X151209523Y-131342380D01*
X150638095Y-132342380D02*
X151066666Y-131770952D01*
X150638095Y-131342380D02*
X151209523Y-131913809D01*
X149828571Y-132294761D02*
X149923809Y-132342380D01*
X150114285Y-132342380D01*
X150209523Y-132294761D01*
X150257142Y-132199523D01*
X150257142Y-131818571D01*
X150209523Y-131723333D01*
X150114285Y-131675714D01*
X149923809Y-131675714D01*
X149828571Y-131723333D01*
X149780952Y-131818571D01*
X149780952Y-131913809D01*
X150257142Y-132009047D01*
X149447619Y-131675714D02*
X149209523Y-132342380D01*
X148971428Y-131675714D02*
X149209523Y-132342380D01*
X149304761Y-132580476D01*
X149352380Y-132628095D01*
X149447619Y-132675714D01*
X148590476Y-132342380D02*
X148590476Y-131342380D01*
X148590476Y-131723333D02*
X148495238Y-131675714D01*
X148304761Y-131675714D01*
X148209523Y-131723333D01*
X148161904Y-131770952D01*
X148114285Y-131866190D01*
X148114285Y-132151904D01*
X148161904Y-132247142D01*
X148209523Y-132294761D01*
X148304761Y-132342380D01*
X148495238Y-132342380D01*
X148590476Y-132294761D01*
X147542857Y-132342380D02*
X147638095Y-132294761D01*
X147685714Y-132247142D01*
X147733333Y-132151904D01*
X147733333Y-131866190D01*
X147685714Y-131770952D01*
X147638095Y-131723333D01*
X147542857Y-131675714D01*
X147400000Y-131675714D01*
X147304761Y-131723333D01*
X147257142Y-131770952D01*
X147209523Y-131866190D01*
X147209523Y-132151904D01*
X147257142Y-132247142D01*
X147304761Y-132294761D01*
X147400000Y-132342380D01*
X147542857Y-132342380D01*
X146352380Y-132342380D02*
X146352380Y-131818571D01*
X146400000Y-131723333D01*
X146495238Y-131675714D01*
X146685714Y-131675714D01*
X146780952Y-131723333D01*
X146352380Y-132294761D02*
X146447619Y-132342380D01*
X146685714Y-132342380D01*
X146780952Y-132294761D01*
X146828571Y-132199523D01*
X146828571Y-132104285D01*
X146780952Y-132009047D01*
X146685714Y-131961428D01*
X146447619Y-131961428D01*
X146352380Y-131913809D01*
X145876190Y-132342380D02*
X145876190Y-131675714D01*
X145876190Y-131866190D02*
X145828571Y-131770952D01*
X145780952Y-131723333D01*
X145685714Y-131675714D01*
X145590476Y-131675714D01*
X144828571Y-132342380D02*
X144828571Y-131342380D01*
X144828571Y-132294761D02*
X144923809Y-132342380D01*
X145114285Y-132342380D01*
X145209523Y-132294761D01*
X145257142Y-132247142D01*
X145304761Y-132151904D01*
X145304761Y-131866190D01*
X145257142Y-131770952D01*
X145209523Y-131723333D01*
X145114285Y-131675714D01*
X144923809Y-131675714D01*
X144828571Y-131723333D01*
X157804761Y-133325714D02*
X157804761Y-134135238D01*
X157852380Y-134230476D01*
X157900000Y-134278095D01*
X157995238Y-134325714D01*
X158138095Y-134325714D01*
X158233333Y-134278095D01*
X157804761Y-133944761D02*
X157900000Y-133992380D01*
X158090476Y-133992380D01*
X158185714Y-133944761D01*
X158233333Y-133897142D01*
X158280952Y-133801904D01*
X158280952Y-133516190D01*
X158233333Y-133420952D01*
X158185714Y-133373333D01*
X158090476Y-133325714D01*
X157900000Y-133325714D01*
X157804761Y-133373333D01*
X157328571Y-133992380D02*
X157328571Y-133325714D01*
X157328571Y-132992380D02*
X157376190Y-133040000D01*
X157328571Y-133087619D01*
X157280952Y-133040000D01*
X157328571Y-132992380D01*
X157328571Y-133087619D01*
X156995238Y-133325714D02*
X156614285Y-133325714D01*
X156852380Y-132992380D02*
X156852380Y-133849523D01*
X156804761Y-133944761D01*
X156709523Y-133992380D01*
X156614285Y-133992380D01*
X156280952Y-133992380D02*
X156280952Y-132992380D01*
X155852380Y-133992380D02*
X155852380Y-133468571D01*
X155900000Y-133373333D01*
X155995238Y-133325714D01*
X156138095Y-133325714D01*
X156233333Y-133373333D01*
X156280952Y-133420952D01*
X154947619Y-133325714D02*
X154947619Y-133992380D01*
X155376190Y-133325714D02*
X155376190Y-133849523D01*
X155328571Y-133944761D01*
X155233333Y-133992380D01*
X155090476Y-133992380D01*
X154995238Y-133944761D01*
X154947619Y-133897142D01*
X154471428Y-133992380D02*
X154471428Y-132992380D01*
X154471428Y-133373333D02*
X154376190Y-133325714D01*
X154185714Y-133325714D01*
X154090476Y-133373333D01*
X154042857Y-133420952D01*
X153995238Y-133516190D01*
X153995238Y-133801904D01*
X154042857Y-133897142D01*
X154090476Y-133944761D01*
X154185714Y-133992380D01*
X154376190Y-133992380D01*
X154471428Y-133944761D01*
X153566666Y-133897142D02*
X153519047Y-133944761D01*
X153566666Y-133992380D01*
X153614285Y-133944761D01*
X153566666Y-133897142D01*
X153566666Y-133992380D01*
X152661904Y-133944761D02*
X152757142Y-133992380D01*
X152947619Y-133992380D01*
X153042857Y-133944761D01*
X153090476Y-133897142D01*
X153138095Y-133801904D01*
X153138095Y-133516190D01*
X153090476Y-133420952D01*
X153042857Y-133373333D01*
X152947619Y-133325714D01*
X152757142Y-133325714D01*
X152661904Y-133373333D01*
X152090476Y-133992380D02*
X152185714Y-133944761D01*
X152233333Y-133897142D01*
X152280952Y-133801904D01*
X152280952Y-133516190D01*
X152233333Y-133420952D01*
X152185714Y-133373333D01*
X152090476Y-133325714D01*
X151947619Y-133325714D01*
X151852380Y-133373333D01*
X151804761Y-133420952D01*
X151757142Y-133516190D01*
X151757142Y-133801904D01*
X151804761Y-133897142D01*
X151852380Y-133944761D01*
X151947619Y-133992380D01*
X152090476Y-133992380D01*
X151328571Y-133992380D02*
X151328571Y-133325714D01*
X151328571Y-133420952D02*
X151280952Y-133373333D01*
X151185714Y-133325714D01*
X151042857Y-133325714D01*
X150947619Y-133373333D01*
X150900000Y-133468571D01*
X150900000Y-133992380D01*
X150900000Y-133468571D02*
X150852380Y-133373333D01*
X150757142Y-133325714D01*
X150614285Y-133325714D01*
X150519047Y-133373333D01*
X150471428Y-133468571D01*
X150471428Y-133992380D01*
X149280952Y-132944761D02*
X150138095Y-134230476D01*
X149090476Y-133325714D02*
X148709523Y-133325714D01*
X148947619Y-132992380D02*
X148947619Y-133849523D01*
X148900000Y-133944761D01*
X148804761Y-133992380D01*
X148709523Y-133992380D01*
X147995238Y-133944761D02*
X148090476Y-133992380D01*
X148280952Y-133992380D01*
X148376190Y-133944761D01*
X148423809Y-133849523D01*
X148423809Y-133468571D01*
X148376190Y-133373333D01*
X148280952Y-133325714D01*
X148090476Y-133325714D01*
X147995238Y-133373333D01*
X147947619Y-133468571D01*
X147947619Y-133563809D01*
X148423809Y-133659047D01*
X147519047Y-133992380D02*
X147519047Y-132992380D01*
X147519047Y-133373333D02*
X147423809Y-133325714D01*
X147233333Y-133325714D01*
X147138095Y-133373333D01*
X147090476Y-133420952D01*
X147042857Y-133516190D01*
X147042857Y-133801904D01*
X147090476Y-133897142D01*
X147138095Y-133944761D01*
X147233333Y-133992380D01*
X147423809Y-133992380D01*
X147519047Y-133944761D01*
X146471428Y-133992380D02*
X146566666Y-133944761D01*
X146614285Y-133849523D01*
X146614285Y-132992380D01*
M02*
