%TF.GenerationSoftware,KiCad,Pcbnew,(5.1.8)-1*%
%TF.CreationDate,2021-02-21T23:03:39+01:00*%
%TF.ProjectId,A2600 Faceplate,41323630-3020-4466-9163-65706c617465,rev?*%
%TF.SameCoordinates,Original*%
%TF.FileFunction,Legend,Top*%
%TF.FilePolarity,Positive*%
%FSLAX46Y46*%
G04 Gerber Fmt 4.6, Leading zero omitted, Abs format (unit mm)*
G04 Created by KiCad (PCBNEW (5.1.8)-1) date 2021-02-21 23:03:39*
%MOMM*%
%LPD*%
G01*
G04 APERTURE LIST*
%ADD10C,0.500000*%
%ADD11C,0.010000*%
G04 APERTURE END LIST*
D10*
X122555000Y-136525000D02*
X122555000Y-43180000D01*
X179705000Y-139065000D02*
X125095000Y-139065000D01*
X182245000Y-43180000D02*
X182245000Y-136525000D01*
X125095000Y-40640000D02*
X179705000Y-40640000D01*
X125095000Y-139065000D02*
G75*
G02*
X122555000Y-136525000I0J2540000D01*
G01*
X182245000Y-136525000D02*
G75*
G02*
X179705000Y-139065000I-2540000J0D01*
G01*
X179705000Y-40640000D02*
G75*
G02*
X182245000Y-43180000I0J-2540000D01*
G01*
X122555000Y-43180000D02*
G75*
G02*
X125095000Y-40640000I2540000J0D01*
G01*
D11*
%TO.C,G\u002A\u002A\u002A*%
G36*
X142401647Y-60109335D02*
G01*
X142762400Y-60171446D01*
X142988509Y-60222629D01*
X143111269Y-60285694D01*
X143161973Y-60383455D01*
X143171915Y-60538721D01*
X143171333Y-60670393D01*
X143150061Y-60934141D01*
X143097087Y-61067183D01*
X143028669Y-61058040D01*
X142961068Y-60895232D01*
X142946230Y-60829320D01*
X142815214Y-60577146D01*
X142557794Y-60403167D01*
X142206735Y-60327783D01*
X142138371Y-60326248D01*
X141725775Y-60400625D01*
X141403814Y-60612321D01*
X141181521Y-60950277D01*
X141067932Y-61403435D01*
X141054666Y-61652573D01*
X141074291Y-61992739D01*
X141125014Y-62310440D01*
X141176571Y-62484865D01*
X141392224Y-62799274D01*
X141710040Y-63011610D01*
X142090452Y-63112461D01*
X142493893Y-63092417D01*
X142880797Y-62942068D01*
X142940012Y-62904281D01*
X143133403Y-62778003D01*
X143225674Y-62744125D01*
X143254089Y-62797451D01*
X143256000Y-62860226D01*
X143177973Y-63030877D01*
X142970349Y-63184421D01*
X142672806Y-63308042D01*
X142325026Y-63388924D01*
X141966689Y-63414250D01*
X141657730Y-63376459D01*
X141234687Y-63190286D01*
X140902979Y-62880480D01*
X140675413Y-62473434D01*
X140564797Y-61995540D01*
X140583939Y-61473189D01*
X140630340Y-61259402D01*
X140826487Y-60833144D01*
X141144399Y-60482210D01*
X141547207Y-60230540D01*
X141998038Y-60102075D01*
X142401647Y-60109335D01*
G37*
X142401647Y-60109335D02*
X142762400Y-60171446D01*
X142988509Y-60222629D01*
X143111269Y-60285694D01*
X143161973Y-60383455D01*
X143171915Y-60538721D01*
X143171333Y-60670393D01*
X143150061Y-60934141D01*
X143097087Y-61067183D01*
X143028669Y-61058040D01*
X142961068Y-60895232D01*
X142946230Y-60829320D01*
X142815214Y-60577146D01*
X142557794Y-60403167D01*
X142206735Y-60327783D01*
X142138371Y-60326248D01*
X141725775Y-60400625D01*
X141403814Y-60612321D01*
X141181521Y-60950277D01*
X141067932Y-61403435D01*
X141054666Y-61652573D01*
X141074291Y-61992739D01*
X141125014Y-62310440D01*
X141176571Y-62484865D01*
X141392224Y-62799274D01*
X141710040Y-63011610D01*
X142090452Y-63112461D01*
X142493893Y-63092417D01*
X142880797Y-62942068D01*
X142940012Y-62904281D01*
X143133403Y-62778003D01*
X143225674Y-62744125D01*
X143254089Y-62797451D01*
X143256000Y-62860226D01*
X143177973Y-63030877D01*
X142970349Y-63184421D01*
X142672806Y-63308042D01*
X142325026Y-63388924D01*
X141966689Y-63414250D01*
X141657730Y-63376459D01*
X141234687Y-63190286D01*
X140902979Y-62880480D01*
X140675413Y-62473434D01*
X140564797Y-61995540D01*
X140583939Y-61473189D01*
X140630340Y-61259402D01*
X140826487Y-60833144D01*
X141144399Y-60482210D01*
X141547207Y-60230540D01*
X141998038Y-60102075D01*
X142401647Y-60109335D01*
G36*
X145327238Y-60933721D02*
G01*
X145685485Y-61132260D01*
X145924079Y-61448310D01*
X146039291Y-61875950D01*
X146050000Y-62081558D01*
X145997459Y-62555719D01*
X145848672Y-62944598D01*
X145616885Y-63215357D01*
X145582999Y-63239088D01*
X145215321Y-63392176D01*
X144813924Y-63418254D01*
X144447351Y-63313439D01*
X144087072Y-63042110D01*
X143865334Y-62675014D01*
X143787143Y-62334378D01*
X143795819Y-62026907D01*
X144223688Y-62026907D01*
X144251468Y-62442061D01*
X144372740Y-62814632D01*
X144530465Y-63038799D01*
X144773709Y-63174532D01*
X145061491Y-63188308D01*
X145321001Y-63080104D01*
X145367944Y-63039055D01*
X145525818Y-62776829D01*
X145607163Y-62419404D01*
X145611190Y-62023031D01*
X145537111Y-61643960D01*
X145391623Y-61348330D01*
X145161728Y-61156039D01*
X144887025Y-61091983D01*
X144620406Y-61159091D01*
X144458064Y-61296626D01*
X144291764Y-61626115D01*
X144223688Y-62026907D01*
X143795819Y-62026907D01*
X143800627Y-61856518D01*
X143941447Y-61451393D01*
X144188439Y-61138246D01*
X144520443Y-60936325D01*
X144916296Y-60864876D01*
X145327238Y-60933721D01*
G37*
X145327238Y-60933721D02*
X145685485Y-61132260D01*
X145924079Y-61448310D01*
X146039291Y-61875950D01*
X146050000Y-62081558D01*
X145997459Y-62555719D01*
X145848672Y-62944598D01*
X145616885Y-63215357D01*
X145582999Y-63239088D01*
X145215321Y-63392176D01*
X144813924Y-63418254D01*
X144447351Y-63313439D01*
X144087072Y-63042110D01*
X143865334Y-62675014D01*
X143787143Y-62334378D01*
X143795819Y-62026907D01*
X144223688Y-62026907D01*
X144251468Y-62442061D01*
X144372740Y-62814632D01*
X144530465Y-63038799D01*
X144773709Y-63174532D01*
X145061491Y-63188308D01*
X145321001Y-63080104D01*
X145367944Y-63039055D01*
X145525818Y-62776829D01*
X145607163Y-62419404D01*
X145611190Y-62023031D01*
X145537111Y-61643960D01*
X145391623Y-61348330D01*
X145161728Y-61156039D01*
X144887025Y-61091983D01*
X144620406Y-61159091D01*
X144458064Y-61296626D01*
X144291764Y-61626115D01*
X144223688Y-62026907D01*
X143795819Y-62026907D01*
X143800627Y-61856518D01*
X143941447Y-61451393D01*
X144188439Y-61138246D01*
X144520443Y-60936325D01*
X144916296Y-60864876D01*
X145327238Y-60933721D01*
G36*
X150272334Y-60375671D02*
G01*
X150283333Y-60586926D01*
X150283333Y-60917666D01*
X150706666Y-60917666D01*
X150972885Y-60931262D01*
X151102910Y-60978334D01*
X151130000Y-61044666D01*
X151084680Y-61124532D01*
X150927772Y-61163539D01*
X150706666Y-61171666D01*
X150283333Y-61171666D01*
X150283333Y-62057687D01*
X150285992Y-62457230D01*
X150298051Y-62721041D01*
X150325631Y-62882690D01*
X150374855Y-62975749D01*
X150451845Y-63033786D01*
X150462389Y-63039537D01*
X150680716Y-63099313D01*
X150885723Y-63099512D01*
X151074868Y-63104527D01*
X151127734Y-63173653D01*
X151047066Y-63274328D01*
X150863365Y-63364717D01*
X150616840Y-63437032D01*
X150434801Y-63439581D01*
X150227932Y-63373441D01*
X150225368Y-63372409D01*
X150073259Y-63281808D01*
X149968491Y-63135111D01*
X149903241Y-62904349D01*
X149869686Y-62561555D01*
X149860003Y-62078763D01*
X149860000Y-62066232D01*
X149857901Y-61668178D01*
X149847838Y-61409594D01*
X149824160Y-61260631D01*
X149781219Y-61191442D01*
X149713363Y-61172180D01*
X149690666Y-61171666D01*
X149553086Y-61136210D01*
X149521333Y-61087000D01*
X149581327Y-61004749D01*
X149599952Y-61002333D01*
X149749887Y-60930476D01*
X149881442Y-60760003D01*
X149944127Y-60558559D01*
X149944666Y-60540493D01*
X150010628Y-60358395D01*
X150114000Y-60300467D01*
X150223697Y-60293308D01*
X150272334Y-60375671D01*
G37*
X150272334Y-60375671D02*
X150283333Y-60586926D01*
X150283333Y-60917666D01*
X150706666Y-60917666D01*
X150972885Y-60931262D01*
X151102910Y-60978334D01*
X151130000Y-61044666D01*
X151084680Y-61124532D01*
X150927772Y-61163539D01*
X150706666Y-61171666D01*
X150283333Y-61171666D01*
X150283333Y-62057687D01*
X150285992Y-62457230D01*
X150298051Y-62721041D01*
X150325631Y-62882690D01*
X150374855Y-62975749D01*
X150451845Y-63033786D01*
X150462389Y-63039537D01*
X150680716Y-63099313D01*
X150885723Y-63099512D01*
X151074868Y-63104527D01*
X151127734Y-63173653D01*
X151047066Y-63274328D01*
X150863365Y-63364717D01*
X150616840Y-63437032D01*
X150434801Y-63439581D01*
X150227932Y-63373441D01*
X150225368Y-63372409D01*
X150073259Y-63281808D01*
X149968491Y-63135111D01*
X149903241Y-62904349D01*
X149869686Y-62561555D01*
X149860003Y-62078763D01*
X149860000Y-62066232D01*
X149857901Y-61668178D01*
X149847838Y-61409594D01*
X149824160Y-61260631D01*
X149781219Y-61191442D01*
X149713363Y-61172180D01*
X149690666Y-61171666D01*
X149553086Y-61136210D01*
X149521333Y-61087000D01*
X149581327Y-61004749D01*
X149599952Y-61002333D01*
X149749887Y-60930476D01*
X149881442Y-60760003D01*
X149944127Y-60558559D01*
X149944666Y-60540493D01*
X150010628Y-60358395D01*
X150114000Y-60300467D01*
X150223697Y-60293308D01*
X150272334Y-60375671D01*
G36*
X155402571Y-60933721D02*
G01*
X155760818Y-61132260D01*
X155999412Y-61448310D01*
X156114624Y-61875950D01*
X156125333Y-62081558D01*
X156071874Y-62583037D01*
X155908197Y-62961454D01*
X155629352Y-63226381D01*
X155496756Y-63297214D01*
X155165548Y-63419989D01*
X154893988Y-63440376D01*
X154609255Y-63361467D01*
X154551819Y-63337320D01*
X154197181Y-63097852D01*
X153964889Y-62749494D01*
X153861743Y-62307137D01*
X153873901Y-62026907D01*
X154299021Y-62026907D01*
X154326802Y-62442061D01*
X154448073Y-62814632D01*
X154605799Y-63038799D01*
X154849042Y-63174532D01*
X155136824Y-63188308D01*
X155396335Y-63080104D01*
X155443277Y-63039055D01*
X155601151Y-62776829D01*
X155682496Y-62419404D01*
X155686523Y-62023031D01*
X155612444Y-61643960D01*
X155466956Y-61348330D01*
X155237061Y-61156039D01*
X154962358Y-61091983D01*
X154695740Y-61159091D01*
X154533397Y-61296626D01*
X154367097Y-61626115D01*
X154299021Y-62026907D01*
X153873901Y-62026907D01*
X153880820Y-61867461D01*
X154019241Y-61450851D01*
X154276792Y-61133407D01*
X154623912Y-60933264D01*
X155031043Y-60868561D01*
X155402571Y-60933721D01*
G37*
X155402571Y-60933721D02*
X155760818Y-61132260D01*
X155999412Y-61448310D01*
X156114624Y-61875950D01*
X156125333Y-62081558D01*
X156071874Y-62583037D01*
X155908197Y-62961454D01*
X155629352Y-63226381D01*
X155496756Y-63297214D01*
X155165548Y-63419989D01*
X154893988Y-63440376D01*
X154609255Y-63361467D01*
X154551819Y-63337320D01*
X154197181Y-63097852D01*
X153964889Y-62749494D01*
X153861743Y-62307137D01*
X153873901Y-62026907D01*
X154299021Y-62026907D01*
X154326802Y-62442061D01*
X154448073Y-62814632D01*
X154605799Y-63038799D01*
X154849042Y-63174532D01*
X155136824Y-63188308D01*
X155396335Y-63080104D01*
X155443277Y-63039055D01*
X155601151Y-62776829D01*
X155682496Y-62419404D01*
X155686523Y-62023031D01*
X155612444Y-61643960D01*
X155466956Y-61348330D01*
X155237061Y-61156039D01*
X154962358Y-61091983D01*
X154695740Y-61159091D01*
X154533397Y-61296626D01*
X154367097Y-61626115D01*
X154299021Y-62026907D01*
X153873901Y-62026907D01*
X153880820Y-61867461D01*
X154019241Y-61450851D01*
X154276792Y-61133407D01*
X154623912Y-60933264D01*
X155031043Y-60868561D01*
X155402571Y-60933721D01*
G36*
X161373424Y-60941027D02*
G01*
X161667617Y-61122584D01*
X161876404Y-61398283D01*
X161966158Y-61753903D01*
X161967333Y-61802462D01*
X161967333Y-62018333D01*
X161160342Y-62018333D01*
X160746047Y-62025332D01*
X160476519Y-62055351D01*
X160327458Y-62121921D01*
X160274564Y-62238572D01*
X160293537Y-62418838D01*
X160310645Y-62491480D01*
X160466997Y-62810134D01*
X160727579Y-63020863D01*
X161057314Y-63112010D01*
X161421123Y-63071919D01*
X161692166Y-62950594D01*
X161870827Y-62847352D01*
X161948432Y-62833151D01*
X161966994Y-62906447D01*
X161967333Y-62940484D01*
X161894580Y-63078526D01*
X161668818Y-63223149D01*
X161549471Y-63277907D01*
X161229438Y-63398893D01*
X160981839Y-63441048D01*
X160734661Y-63413909D01*
X160658529Y-63395907D01*
X160321134Y-63231271D01*
X160069963Y-62953575D01*
X159910371Y-62598537D01*
X159847718Y-62201873D01*
X159887360Y-61799302D01*
X159905335Y-61753811D01*
X160297732Y-61753811D01*
X160394652Y-61819246D01*
X160619577Y-61844946D01*
X160919583Y-61849000D01*
X161565166Y-61849000D01*
X161511109Y-61573833D01*
X161386829Y-61290548D01*
X161175385Y-61121579D01*
X160919292Y-61072354D01*
X160661066Y-61148301D01*
X160443223Y-61354845D01*
X160397868Y-61431722D01*
X160306307Y-61630637D01*
X160297732Y-61753811D01*
X159905335Y-61753811D01*
X160034654Y-61426540D01*
X160294960Y-61119305D01*
X160314662Y-61103440D01*
X160663321Y-60917233D01*
X161027450Y-60867836D01*
X161373424Y-60941027D01*
G37*
X161373424Y-60941027D02*
X161667617Y-61122584D01*
X161876404Y-61398283D01*
X161966158Y-61753903D01*
X161967333Y-61802462D01*
X161967333Y-62018333D01*
X161160342Y-62018333D01*
X160746047Y-62025332D01*
X160476519Y-62055351D01*
X160327458Y-62121921D01*
X160274564Y-62238572D01*
X160293537Y-62418838D01*
X160310645Y-62491480D01*
X160466997Y-62810134D01*
X160727579Y-63020863D01*
X161057314Y-63112010D01*
X161421123Y-63071919D01*
X161692166Y-62950594D01*
X161870827Y-62847352D01*
X161948432Y-62833151D01*
X161966994Y-62906447D01*
X161967333Y-62940484D01*
X161894580Y-63078526D01*
X161668818Y-63223149D01*
X161549471Y-63277907D01*
X161229438Y-63398893D01*
X160981839Y-63441048D01*
X160734661Y-63413909D01*
X160658529Y-63395907D01*
X160321134Y-63231271D01*
X160069963Y-62953575D01*
X159910371Y-62598537D01*
X159847718Y-62201873D01*
X159887360Y-61799302D01*
X159905335Y-61753811D01*
X160297732Y-61753811D01*
X160394652Y-61819246D01*
X160619577Y-61844946D01*
X160919583Y-61849000D01*
X161565166Y-61849000D01*
X161511109Y-61573833D01*
X161386829Y-61290548D01*
X161175385Y-61121579D01*
X160919292Y-61072354D01*
X160661066Y-61148301D01*
X160443223Y-61354845D01*
X160397868Y-61431722D01*
X160306307Y-61630637D01*
X160297732Y-61753811D01*
X159905335Y-61753811D01*
X160034654Y-61426540D01*
X160294960Y-61119305D01*
X160314662Y-61103440D01*
X160663321Y-60917233D01*
X161027450Y-60867836D01*
X161373424Y-60941027D01*
G36*
X148338228Y-60903771D02*
G01*
X148601494Y-61033506D01*
X148746858Y-61220432D01*
X148789882Y-61398089D01*
X148823141Y-61693839D01*
X148841728Y-62056515D01*
X148844000Y-62233266D01*
X148847840Y-62613558D01*
X148863845Y-62860558D01*
X148898739Y-63010220D01*
X148959247Y-63098499D01*
X149013333Y-63138648D01*
X149153814Y-63249120D01*
X149149562Y-63321447D01*
X148992868Y-63360963D01*
X148676026Y-63372999D01*
X148674666Y-63373000D01*
X148379225Y-63354911D01*
X148202031Y-63307024D01*
X148159407Y-63238909D01*
X148267674Y-63160135D01*
X148293666Y-63149617D01*
X148355597Y-63090321D01*
X148394493Y-62950429D01*
X148414724Y-62700702D01*
X148420663Y-62311902D01*
X148420666Y-62300042D01*
X148411795Y-61838190D01*
X148378119Y-61519864D01*
X148309042Y-61319854D01*
X148193971Y-61212951D01*
X148022311Y-61173944D01*
X147946454Y-61171666D01*
X147685677Y-61182724D01*
X147509261Y-61234201D01*
X147400860Y-61353554D01*
X147344129Y-61568239D01*
X147322721Y-61905712D01*
X147320000Y-62223920D01*
X147324812Y-62635839D01*
X147341841Y-62906950D01*
X147374971Y-63065571D01*
X147428087Y-63140024D01*
X147447000Y-63149617D01*
X147576069Y-63229073D01*
X147552126Y-63299114D01*
X147391494Y-63350170D01*
X147110493Y-63372671D01*
X147066000Y-63373000D01*
X146798083Y-63361045D01*
X146614009Y-63329972D01*
X146558000Y-63294038D01*
X146627877Y-63208055D01*
X146727333Y-63161333D01*
X146802044Y-63124530D01*
X146850916Y-63050099D01*
X146879357Y-62906857D01*
X146892776Y-62663615D01*
X146896582Y-62289188D01*
X146896666Y-62184940D01*
X146893945Y-61774724D01*
X146882166Y-61501346D01*
X146855904Y-61332348D01*
X146809736Y-61235273D01*
X146738237Y-61177664D01*
X146727333Y-61171666D01*
X146579468Y-61060251D01*
X146598069Y-60974933D01*
X146782025Y-60917474D01*
X146896666Y-60903155D01*
X147113610Y-60892210D01*
X147210590Y-60931395D01*
X147234991Y-61044995D01*
X147235333Y-61076718D01*
X147246588Y-61218994D01*
X147309005Y-61211847D01*
X147388997Y-61143513D01*
X147687645Y-60956263D01*
X148018834Y-60877186D01*
X148338228Y-60903771D01*
G37*
X148338228Y-60903771D02*
X148601494Y-61033506D01*
X148746858Y-61220432D01*
X148789882Y-61398089D01*
X148823141Y-61693839D01*
X148841728Y-62056515D01*
X148844000Y-62233266D01*
X148847840Y-62613558D01*
X148863845Y-62860558D01*
X148898739Y-63010220D01*
X148959247Y-63098499D01*
X149013333Y-63138648D01*
X149153814Y-63249120D01*
X149149562Y-63321447D01*
X148992868Y-63360963D01*
X148676026Y-63372999D01*
X148674666Y-63373000D01*
X148379225Y-63354911D01*
X148202031Y-63307024D01*
X148159407Y-63238909D01*
X148267674Y-63160135D01*
X148293666Y-63149617D01*
X148355597Y-63090321D01*
X148394493Y-62950429D01*
X148414724Y-62700702D01*
X148420663Y-62311902D01*
X148420666Y-62300042D01*
X148411795Y-61838190D01*
X148378119Y-61519864D01*
X148309042Y-61319854D01*
X148193971Y-61212951D01*
X148022311Y-61173944D01*
X147946454Y-61171666D01*
X147685677Y-61182724D01*
X147509261Y-61234201D01*
X147400860Y-61353554D01*
X147344129Y-61568239D01*
X147322721Y-61905712D01*
X147320000Y-62223920D01*
X147324812Y-62635839D01*
X147341841Y-62906950D01*
X147374971Y-63065571D01*
X147428087Y-63140024D01*
X147447000Y-63149617D01*
X147576069Y-63229073D01*
X147552126Y-63299114D01*
X147391494Y-63350170D01*
X147110493Y-63372671D01*
X147066000Y-63373000D01*
X146798083Y-63361045D01*
X146614009Y-63329972D01*
X146558000Y-63294038D01*
X146627877Y-63208055D01*
X146727333Y-63161333D01*
X146802044Y-63124530D01*
X146850916Y-63050099D01*
X146879357Y-62906857D01*
X146892776Y-62663615D01*
X146896582Y-62289188D01*
X146896666Y-62184940D01*
X146893945Y-61774724D01*
X146882166Y-61501346D01*
X146855904Y-61332348D01*
X146809736Y-61235273D01*
X146738237Y-61177664D01*
X146727333Y-61171666D01*
X146579468Y-61060251D01*
X146598069Y-60974933D01*
X146782025Y-60917474D01*
X146896666Y-60903155D01*
X147113610Y-60892210D01*
X147210590Y-60931395D01*
X147234991Y-61044995D01*
X147235333Y-61076718D01*
X147246588Y-61218994D01*
X147309005Y-61211847D01*
X147388997Y-61143513D01*
X147687645Y-60956263D01*
X148018834Y-60877186D01*
X148338228Y-60903771D01*
G36*
X153289526Y-60900176D02*
G01*
X153431743Y-61064758D01*
X153454870Y-61271327D01*
X153450689Y-61286421D01*
X153382058Y-61465286D01*
X153304688Y-61490001D01*
X153172352Y-61371550D01*
X153157807Y-61356005D01*
X153020880Y-61222986D01*
X152907424Y-61185704D01*
X152756261Y-61242439D01*
X152590500Y-61340072D01*
X152315333Y-61507844D01*
X152315333Y-62311809D01*
X152317220Y-62685114D01*
X152328459Y-62922960D01*
X152357415Y-63059219D01*
X152412451Y-63127762D01*
X152501934Y-63162461D01*
X152527000Y-63168898D01*
X152707190Y-63234090D01*
X152730250Y-63293378D01*
X152608378Y-63340227D01*
X152353777Y-63368101D01*
X152146000Y-63373000D01*
X151853901Y-63362675D01*
X151642230Y-63335504D01*
X151553803Y-63297192D01*
X151553333Y-63294038D01*
X151623210Y-63208055D01*
X151722666Y-63161333D01*
X151797377Y-63124530D01*
X151846249Y-63050099D01*
X151874691Y-62906857D01*
X151888110Y-62663615D01*
X151891915Y-62289188D01*
X151892000Y-62184940D01*
X151889278Y-61774724D01*
X151877499Y-61501346D01*
X151851237Y-61332348D01*
X151805069Y-61235273D01*
X151733570Y-61177664D01*
X151722666Y-61171666D01*
X151574802Y-61060251D01*
X151593402Y-60974933D01*
X151777358Y-60917474D01*
X151892000Y-60903155D01*
X152108488Y-60891339D01*
X152205162Y-60930824D01*
X152230030Y-61050355D01*
X152230666Y-61105929D01*
X152242327Y-61272461D01*
X152295241Y-61324536D01*
X152416300Y-61260863D01*
X152624602Y-61087000D01*
X152835281Y-60931627D01*
X153022316Y-60841833D01*
X153074231Y-60833000D01*
X153289526Y-60900176D01*
G37*
X153289526Y-60900176D02*
X153431743Y-61064758D01*
X153454870Y-61271327D01*
X153450689Y-61286421D01*
X153382058Y-61465286D01*
X153304688Y-61490001D01*
X153172352Y-61371550D01*
X153157807Y-61356005D01*
X153020880Y-61222986D01*
X152907424Y-61185704D01*
X152756261Y-61242439D01*
X152590500Y-61340072D01*
X152315333Y-61507844D01*
X152315333Y-62311809D01*
X152317220Y-62685114D01*
X152328459Y-62922960D01*
X152357415Y-63059219D01*
X152412451Y-63127762D01*
X152501934Y-63162461D01*
X152527000Y-63168898D01*
X152707190Y-63234090D01*
X152730250Y-63293378D01*
X152608378Y-63340227D01*
X152353777Y-63368101D01*
X152146000Y-63373000D01*
X151853901Y-63362675D01*
X151642230Y-63335504D01*
X151553803Y-63297192D01*
X151553333Y-63294038D01*
X151623210Y-63208055D01*
X151722666Y-63161333D01*
X151797377Y-63124530D01*
X151846249Y-63050099D01*
X151874691Y-62906857D01*
X151888110Y-62663615D01*
X151891915Y-62289188D01*
X151892000Y-62184940D01*
X151889278Y-61774724D01*
X151877499Y-61501346D01*
X151851237Y-61332348D01*
X151805069Y-61235273D01*
X151733570Y-61177664D01*
X151722666Y-61171666D01*
X151574802Y-61060251D01*
X151593402Y-60974933D01*
X151777358Y-60917474D01*
X151892000Y-60903155D01*
X152108488Y-60891339D01*
X152205162Y-60930824D01*
X152230030Y-61050355D01*
X152230666Y-61105929D01*
X152242327Y-61272461D01*
X152295241Y-61324536D01*
X152416300Y-61260863D01*
X152624602Y-61087000D01*
X152835281Y-60931627D01*
X153022316Y-60841833D01*
X153074231Y-60833000D01*
X153289526Y-60900176D01*
G36*
X157395333Y-63115773D02*
G01*
X157607000Y-63168898D01*
X157787876Y-63233726D01*
X157811228Y-63292109D01*
X157688864Y-63338353D01*
X157432593Y-63366767D01*
X157183666Y-63373000D01*
X156880151Y-63363758D01*
X156655620Y-63339310D01*
X156551444Y-63304576D01*
X156548666Y-63297511D01*
X156620421Y-63222976D01*
X156760333Y-63168898D01*
X156972000Y-63115773D01*
X156972000Y-60236703D01*
X156760333Y-60140261D01*
X156585062Y-60035595D01*
X156574678Y-59959124D01*
X156726636Y-59913714D01*
X156972000Y-59901666D01*
X157395333Y-59901666D01*
X157395333Y-63115773D01*
G37*
X157395333Y-63115773D02*
X157607000Y-63168898D01*
X157787876Y-63233726D01*
X157811228Y-63292109D01*
X157688864Y-63338353D01*
X157432593Y-63366767D01*
X157183666Y-63373000D01*
X156880151Y-63363758D01*
X156655620Y-63339310D01*
X156551444Y-63304576D01*
X156548666Y-63297511D01*
X156620421Y-63222976D01*
X156760333Y-63168898D01*
X156972000Y-63115773D01*
X156972000Y-60236703D01*
X156760333Y-60140261D01*
X156585062Y-60035595D01*
X156574678Y-59959124D01*
X156726636Y-59913714D01*
X156972000Y-59901666D01*
X157395333Y-59901666D01*
X157395333Y-63115773D01*
G36*
X159004000Y-63115773D02*
G01*
X159215666Y-63168898D01*
X159396542Y-63233726D01*
X159419894Y-63292109D01*
X159297531Y-63338353D01*
X159041259Y-63366767D01*
X158792333Y-63373000D01*
X158488817Y-63363758D01*
X158264287Y-63339310D01*
X158160111Y-63304576D01*
X158157333Y-63297511D01*
X158229087Y-63222976D01*
X158369000Y-63168898D01*
X158580666Y-63115773D01*
X158580666Y-60236703D01*
X158369000Y-60140261D01*
X158193729Y-60035595D01*
X158183344Y-59959124D01*
X158335303Y-59913714D01*
X158580666Y-59901666D01*
X159004000Y-59901666D01*
X159004000Y-63115773D01*
G37*
X159004000Y-63115773D02*
X159215666Y-63168898D01*
X159396542Y-63233726D01*
X159419894Y-63292109D01*
X159297531Y-63338353D01*
X159041259Y-63366767D01*
X158792333Y-63373000D01*
X158488817Y-63363758D01*
X158264287Y-63339310D01*
X158160111Y-63304576D01*
X158157333Y-63297511D01*
X158229087Y-63222976D01*
X158369000Y-63168898D01*
X158580666Y-63115773D01*
X158580666Y-60236703D01*
X158369000Y-60140261D01*
X158193729Y-60035595D01*
X158183344Y-59959124D01*
X158335303Y-59913714D01*
X158580666Y-59901666D01*
X159004000Y-59901666D01*
X159004000Y-63115773D01*
G36*
X164264646Y-60925640D02*
G01*
X164366564Y-61146445D01*
X164375010Y-61203655D01*
X164361360Y-61414971D01*
X164268824Y-61479125D01*
X164113037Y-61388779D01*
X164070867Y-61346408D01*
X163856871Y-61218564D01*
X163608964Y-61255727D01*
X163385500Y-61406470D01*
X163312957Y-61500653D01*
X163267940Y-61652124D01*
X163244678Y-61896688D01*
X163237405Y-62270152D01*
X163237333Y-62326175D01*
X163239307Y-62695527D01*
X163250961Y-62929770D01*
X163280889Y-63063122D01*
X163337687Y-63129806D01*
X163429948Y-63164039D01*
X163449000Y-63168898D01*
X163629190Y-63234090D01*
X163652250Y-63293378D01*
X163530378Y-63340227D01*
X163275777Y-63368101D01*
X163068000Y-63373000D01*
X162775901Y-63362675D01*
X162564230Y-63335504D01*
X162475803Y-63297192D01*
X162475333Y-63294038D01*
X162545210Y-63208055D01*
X162644666Y-63161333D01*
X162719377Y-63124530D01*
X162768249Y-63050099D01*
X162796691Y-62906857D01*
X162810110Y-62663615D01*
X162813915Y-62289188D01*
X162814000Y-62184940D01*
X162811278Y-61774724D01*
X162799499Y-61501346D01*
X162773237Y-61332348D01*
X162727069Y-61235273D01*
X162655570Y-61177664D01*
X162644666Y-61171666D01*
X162496802Y-61060251D01*
X162515402Y-60974933D01*
X162699358Y-60917474D01*
X162814000Y-60903155D01*
X163030488Y-60891339D01*
X163127162Y-60930824D01*
X163152030Y-61050355D01*
X163152666Y-61105929D01*
X163164327Y-61272461D01*
X163217241Y-61324536D01*
X163338300Y-61260863D01*
X163546602Y-61087000D01*
X163834583Y-60893089D01*
X164080625Y-60840245D01*
X164264646Y-60925640D01*
G37*
X164264646Y-60925640D02*
X164366564Y-61146445D01*
X164375010Y-61203655D01*
X164361360Y-61414971D01*
X164268824Y-61479125D01*
X164113037Y-61388779D01*
X164070867Y-61346408D01*
X163856871Y-61218564D01*
X163608964Y-61255727D01*
X163385500Y-61406470D01*
X163312957Y-61500653D01*
X163267940Y-61652124D01*
X163244678Y-61896688D01*
X163237405Y-62270152D01*
X163237333Y-62326175D01*
X163239307Y-62695527D01*
X163250961Y-62929770D01*
X163280889Y-63063122D01*
X163337687Y-63129806D01*
X163429948Y-63164039D01*
X163449000Y-63168898D01*
X163629190Y-63234090D01*
X163652250Y-63293378D01*
X163530378Y-63340227D01*
X163275777Y-63368101D01*
X163068000Y-63373000D01*
X162775901Y-63362675D01*
X162564230Y-63335504D01*
X162475803Y-63297192D01*
X162475333Y-63294038D01*
X162545210Y-63208055D01*
X162644666Y-63161333D01*
X162719377Y-63124530D01*
X162768249Y-63050099D01*
X162796691Y-62906857D01*
X162810110Y-62663615D01*
X162813915Y-62289188D01*
X162814000Y-62184940D01*
X162811278Y-61774724D01*
X162799499Y-61501346D01*
X162773237Y-61332348D01*
X162727069Y-61235273D01*
X162655570Y-61177664D01*
X162644666Y-61171666D01*
X162496802Y-61060251D01*
X162515402Y-60974933D01*
X162699358Y-60917474D01*
X162814000Y-60903155D01*
X163030488Y-60891339D01*
X163127162Y-60930824D01*
X163152030Y-61050355D01*
X163152666Y-61105929D01*
X163164327Y-61272461D01*
X163217241Y-61324536D01*
X163338300Y-61260863D01*
X163546602Y-61087000D01*
X163834583Y-60893089D01*
X164080625Y-60840245D01*
X164264646Y-60925640D01*
G36*
X149636468Y-55773937D02*
G01*
X149761147Y-55840650D01*
X149730807Y-55958984D01*
X149617156Y-56078095D01*
X149532292Y-56205034D01*
X149405611Y-56459326D01*
X149251764Y-56808685D01*
X149085397Y-57220821D01*
X149015639Y-57404000D01*
X148807545Y-57954931D01*
X148645389Y-58368779D01*
X148518811Y-58668160D01*
X148417451Y-58875691D01*
X148330948Y-59013988D01*
X148248943Y-59105668D01*
X148227679Y-59124163D01*
X148037394Y-59217194D01*
X147784678Y-59271733D01*
X147561204Y-59270920D01*
X147510500Y-59256068D01*
X147425938Y-59144305D01*
X147404666Y-59022612D01*
X147426128Y-58899150D01*
X147522891Y-58858173D01*
X147702166Y-58869733D01*
X147995123Y-58854203D01*
X148206912Y-58712870D01*
X148368023Y-58429167D01*
X148405792Y-58312831D01*
X148412441Y-58190478D01*
X148379404Y-58030993D01*
X148298120Y-57803260D01*
X148160023Y-57476161D01*
X148016904Y-57153371D01*
X147833342Y-56759344D01*
X147658403Y-56413272D01*
X147510433Y-56149551D01*
X147407778Y-56002578D01*
X147398243Y-55993428D01*
X147274839Y-55869523D01*
X147235333Y-55802928D01*
X147312269Y-55776592D01*
X147512240Y-55758500D01*
X147743333Y-55753000D01*
X148054703Y-55761660D01*
X148211581Y-55793197D01*
X148228184Y-55855941D01*
X148118727Y-55958225D01*
X148107551Y-55966467D01*
X148047449Y-56026344D01*
X148029684Y-56111789D01*
X148061454Y-56254542D01*
X148149954Y-56486342D01*
X148302380Y-56838928D01*
X148308524Y-56852854D01*
X148456370Y-57169910D01*
X148583009Y-57408339D01*
X148672254Y-57539555D01*
X148704194Y-57551719D01*
X148755162Y-57438795D01*
X148847025Y-57208948D01*
X148963057Y-56904482D01*
X149008526Y-56782035D01*
X149128747Y-56450446D01*
X149193392Y-56242142D01*
X149206401Y-56121875D01*
X149171714Y-56054399D01*
X149095304Y-56005557D01*
X148948022Y-55894738D01*
X148962965Y-55812358D01*
X149134595Y-55763868D01*
X149352000Y-55753000D01*
X149636468Y-55773937D01*
G37*
X149636468Y-55773937D02*
X149761147Y-55840650D01*
X149730807Y-55958984D01*
X149617156Y-56078095D01*
X149532292Y-56205034D01*
X149405611Y-56459326D01*
X149251764Y-56808685D01*
X149085397Y-57220821D01*
X149015639Y-57404000D01*
X148807545Y-57954931D01*
X148645389Y-58368779D01*
X148518811Y-58668160D01*
X148417451Y-58875691D01*
X148330948Y-59013988D01*
X148248943Y-59105668D01*
X148227679Y-59124163D01*
X148037394Y-59217194D01*
X147784678Y-59271733D01*
X147561204Y-59270920D01*
X147510500Y-59256068D01*
X147425938Y-59144305D01*
X147404666Y-59022612D01*
X147426128Y-58899150D01*
X147522891Y-58858173D01*
X147702166Y-58869733D01*
X147995123Y-58854203D01*
X148206912Y-58712870D01*
X148368023Y-58429167D01*
X148405792Y-58312831D01*
X148412441Y-58190478D01*
X148379404Y-58030993D01*
X148298120Y-57803260D01*
X148160023Y-57476161D01*
X148016904Y-57153371D01*
X147833342Y-56759344D01*
X147658403Y-56413272D01*
X147510433Y-56149551D01*
X147407778Y-56002578D01*
X147398243Y-55993428D01*
X147274839Y-55869523D01*
X147235333Y-55802928D01*
X147312269Y-55776592D01*
X147512240Y-55758500D01*
X147743333Y-55753000D01*
X148054703Y-55761660D01*
X148211581Y-55793197D01*
X148228184Y-55855941D01*
X148118727Y-55958225D01*
X148107551Y-55966467D01*
X148047449Y-56026344D01*
X148029684Y-56111789D01*
X148061454Y-56254542D01*
X148149954Y-56486342D01*
X148302380Y-56838928D01*
X148308524Y-56852854D01*
X148456370Y-57169910D01*
X148583009Y-57408339D01*
X148672254Y-57539555D01*
X148704194Y-57551719D01*
X148755162Y-57438795D01*
X148847025Y-57208948D01*
X148963057Y-56904482D01*
X149008526Y-56782035D01*
X149128747Y-56450446D01*
X149193392Y-56242142D01*
X149206401Y-56121875D01*
X149171714Y-56054399D01*
X149095304Y-56005557D01*
X148948022Y-55894738D01*
X148962965Y-55812358D01*
X149134595Y-55763868D01*
X149352000Y-55753000D01*
X149636468Y-55773937D01*
G36*
X146301922Y-55776254D02*
G01*
X146596304Y-55956981D01*
X146805383Y-56231503D01*
X146895454Y-56585626D01*
X146896666Y-56634729D01*
X146890757Y-56732454D01*
X146852171Y-56795568D01*
X146749618Y-56833055D01*
X146551809Y-56853901D01*
X146227455Y-56867089D01*
X146071166Y-56871767D01*
X145245666Y-56896000D01*
X145256825Y-57230428D01*
X145339191Y-57557968D01*
X145540064Y-57795650D01*
X145826951Y-57930247D01*
X146167358Y-57948532D01*
X146528791Y-57837278D01*
X146621500Y-57785927D01*
X146800160Y-57682685D01*
X146877765Y-57668484D01*
X146896327Y-57741780D01*
X146896666Y-57775818D01*
X146823914Y-57913860D01*
X146598151Y-58058482D01*
X146478804Y-58113240D01*
X146158771Y-58234226D01*
X145911172Y-58276381D01*
X145663994Y-58249242D01*
X145587862Y-58231240D01*
X145250467Y-58066604D01*
X144999296Y-57788908D01*
X144839705Y-57433870D01*
X144777051Y-57037207D01*
X144816693Y-56634635D01*
X144834668Y-56589144D01*
X145227065Y-56589144D01*
X145323985Y-56654579D01*
X145548910Y-56680279D01*
X145848916Y-56684333D01*
X146494500Y-56684333D01*
X146440442Y-56409166D01*
X146316163Y-56125881D01*
X146104718Y-55956913D01*
X145848625Y-55907688D01*
X145590399Y-55983634D01*
X145372556Y-56190178D01*
X145327201Y-56267055D01*
X145235640Y-56465970D01*
X145227065Y-56589144D01*
X144834668Y-56589144D01*
X144963988Y-56261873D01*
X145224293Y-55954638D01*
X145243995Y-55938774D01*
X145592063Y-55752957D01*
X145955940Y-55703515D01*
X146301922Y-55776254D01*
G37*
X146301922Y-55776254D02*
X146596304Y-55956981D01*
X146805383Y-56231503D01*
X146895454Y-56585626D01*
X146896666Y-56634729D01*
X146890757Y-56732454D01*
X146852171Y-56795568D01*
X146749618Y-56833055D01*
X146551809Y-56853901D01*
X146227455Y-56867089D01*
X146071166Y-56871767D01*
X145245666Y-56896000D01*
X145256825Y-57230428D01*
X145339191Y-57557968D01*
X145540064Y-57795650D01*
X145826951Y-57930247D01*
X146167358Y-57948532D01*
X146528791Y-57837278D01*
X146621500Y-57785927D01*
X146800160Y-57682685D01*
X146877765Y-57668484D01*
X146896327Y-57741780D01*
X146896666Y-57775818D01*
X146823914Y-57913860D01*
X146598151Y-58058482D01*
X146478804Y-58113240D01*
X146158771Y-58234226D01*
X145911172Y-58276381D01*
X145663994Y-58249242D01*
X145587862Y-58231240D01*
X145250467Y-58066604D01*
X144999296Y-57788908D01*
X144839705Y-57433870D01*
X144777051Y-57037207D01*
X144816693Y-56634635D01*
X144834668Y-56589144D01*
X145227065Y-56589144D01*
X145323985Y-56654579D01*
X145548910Y-56680279D01*
X145848916Y-56684333D01*
X146494500Y-56684333D01*
X146440442Y-56409166D01*
X146316163Y-56125881D01*
X146104718Y-55956913D01*
X145848625Y-55907688D01*
X145590399Y-55983634D01*
X145372556Y-56190178D01*
X145327201Y-56267055D01*
X145235640Y-56465970D01*
X145227065Y-56589144D01*
X144834668Y-56589144D01*
X144963988Y-56261873D01*
X145224293Y-55954638D01*
X145243995Y-55938774D01*
X145592063Y-55752957D01*
X145955940Y-55703515D01*
X146301922Y-55776254D01*
G36*
X150881094Y-55435500D02*
G01*
X150882342Y-55848936D01*
X150881249Y-56345129D01*
X150878073Y-56837520D01*
X150876478Y-56996384D01*
X150875036Y-57390886D01*
X150885124Y-57649922D01*
X150912365Y-57807256D01*
X150962386Y-57896652D01*
X151035151Y-57948884D01*
X151361411Y-58038609D01*
X151679748Y-57977070D01*
X151898408Y-57820512D01*
X152011566Y-57675183D01*
X152074035Y-57507637D01*
X152099863Y-57263285D01*
X152103666Y-57023000D01*
X152095080Y-56695608D01*
X152059634Y-56481788D01*
X151982792Y-56326224D01*
X151892000Y-56217443D01*
X151725859Y-56071499D01*
X151550241Y-56019616D01*
X151320500Y-56030888D01*
X151067363Y-56042068D01*
X150975714Y-56003591D01*
X151046164Y-55918645D01*
X151274805Y-55792558D01*
X151499708Y-55702436D01*
X151683171Y-55692544D01*
X151921199Y-55758376D01*
X151930972Y-55761745D01*
X152254809Y-55956359D01*
X152465710Y-56276029D01*
X152562422Y-56718530D01*
X152569070Y-56896000D01*
X152502179Y-57400687D01*
X152310038Y-57797822D01*
X152005446Y-58077914D01*
X151601202Y-58231475D01*
X151110104Y-58249014D01*
X150812500Y-58198398D01*
X150452666Y-58113701D01*
X150452666Y-55072036D01*
X150241000Y-54975594D01*
X150065729Y-54870928D01*
X150055344Y-54794457D01*
X150207303Y-54749048D01*
X150452666Y-54737000D01*
X150876000Y-54737000D01*
X150881094Y-55435500D01*
G37*
X150881094Y-55435500D02*
X150882342Y-55848936D01*
X150881249Y-56345129D01*
X150878073Y-56837520D01*
X150876478Y-56996384D01*
X150875036Y-57390886D01*
X150885124Y-57649922D01*
X150912365Y-57807256D01*
X150962386Y-57896652D01*
X151035151Y-57948884D01*
X151361411Y-58038609D01*
X151679748Y-57977070D01*
X151898408Y-57820512D01*
X152011566Y-57675183D01*
X152074035Y-57507637D01*
X152099863Y-57263285D01*
X152103666Y-57023000D01*
X152095080Y-56695608D01*
X152059634Y-56481788D01*
X151982792Y-56326224D01*
X151892000Y-56217443D01*
X151725859Y-56071499D01*
X151550241Y-56019616D01*
X151320500Y-56030888D01*
X151067363Y-56042068D01*
X150975714Y-56003591D01*
X151046164Y-55918645D01*
X151274805Y-55792558D01*
X151499708Y-55702436D01*
X151683171Y-55692544D01*
X151921199Y-55758376D01*
X151930972Y-55761745D01*
X152254809Y-55956359D01*
X152465710Y-56276029D01*
X152562422Y-56718530D01*
X152569070Y-56896000D01*
X152502179Y-57400687D01*
X152310038Y-57797822D01*
X152005446Y-58077914D01*
X151601202Y-58231475D01*
X151110104Y-58249014D01*
X150812500Y-58198398D01*
X150452666Y-58113701D01*
X150452666Y-55072036D01*
X150241000Y-54975594D01*
X150065729Y-54870928D01*
X150055344Y-54794457D01*
X150207303Y-54749048D01*
X150452666Y-54737000D01*
X150876000Y-54737000D01*
X150881094Y-55435500D01*
G36*
X154693070Y-55789568D02*
G01*
X155028923Y-55991157D01*
X155251338Y-56316011D01*
X155355615Y-56758961D01*
X155363333Y-56942499D01*
X155305733Y-57439921D01*
X155131194Y-57817376D01*
X154837102Y-58079810D01*
X154734756Y-58132547D01*
X154406091Y-58256103D01*
X154142721Y-58278091D01*
X153875104Y-58199378D01*
X153760685Y-58144701D01*
X153412865Y-57893321D01*
X153197576Y-57552054D01*
X153101840Y-57100150D01*
X153101068Y-57090011D01*
X153119996Y-56798177D01*
X153533833Y-56798177D01*
X153546067Y-57167128D01*
X153634141Y-57511709D01*
X153789429Y-57795721D01*
X154003303Y-57982964D01*
X154225899Y-58039000D01*
X154458450Y-58006594D01*
X154597993Y-57956120D01*
X154770798Y-57776537D01*
X154884890Y-57484753D01*
X154936069Y-57128888D01*
X154920131Y-56757062D01*
X154832875Y-56417393D01*
X154746776Y-56252354D01*
X154514330Y-56019644D01*
X154244947Y-55922495D01*
X153978391Y-55965816D01*
X153771397Y-56131960D01*
X153606067Y-56441055D01*
X153533833Y-56798177D01*
X153119996Y-56798177D01*
X153132118Y-56611281D01*
X153290564Y-56216050D01*
X153560367Y-55923520D01*
X153925485Y-55752893D01*
X154248480Y-55716415D01*
X154693070Y-55789568D01*
G37*
X154693070Y-55789568D02*
X155028923Y-55991157D01*
X155251338Y-56316011D01*
X155355615Y-56758961D01*
X155363333Y-56942499D01*
X155305733Y-57439921D01*
X155131194Y-57817376D01*
X154837102Y-58079810D01*
X154734756Y-58132547D01*
X154406091Y-58256103D01*
X154142721Y-58278091D01*
X153875104Y-58199378D01*
X153760685Y-58144701D01*
X153412865Y-57893321D01*
X153197576Y-57552054D01*
X153101840Y-57100150D01*
X153101068Y-57090011D01*
X153119996Y-56798177D01*
X153533833Y-56798177D01*
X153546067Y-57167128D01*
X153634141Y-57511709D01*
X153789429Y-57795721D01*
X154003303Y-57982964D01*
X154225899Y-58039000D01*
X154458450Y-58006594D01*
X154597993Y-57956120D01*
X154770798Y-57776537D01*
X154884890Y-57484753D01*
X154936069Y-57128888D01*
X154920131Y-56757062D01*
X154832875Y-56417393D01*
X154746776Y-56252354D01*
X154514330Y-56019644D01*
X154244947Y-55922495D01*
X153978391Y-55965816D01*
X153771397Y-56131960D01*
X153606067Y-56441055D01*
X153533833Y-56798177D01*
X153119996Y-56798177D01*
X153132118Y-56611281D01*
X153290564Y-56216050D01*
X153560367Y-55923520D01*
X153925485Y-55752893D01*
X154248480Y-55716415D01*
X154693070Y-55789568D01*
G36*
X157375997Y-55757584D02*
G01*
X157635698Y-55913985D01*
X157720326Y-56030406D01*
X157764208Y-56193905D01*
X157802685Y-56479462D01*
X157830322Y-56839800D01*
X157839267Y-57065333D01*
X157861000Y-57912000D01*
X158093833Y-57938790D01*
X158282214Y-57987316D01*
X158305730Y-58065804D01*
X158164740Y-58167147D01*
X158080348Y-58205151D01*
X157835608Y-58251401D01*
X157623144Y-58200951D01*
X157495630Y-58072354D01*
X157480000Y-57993687D01*
X157433329Y-57882941D01*
X157395333Y-57869666D01*
X157313057Y-57927004D01*
X157310666Y-57944686D01*
X157238552Y-58031903D01*
X157061116Y-58135770D01*
X156836713Y-58229548D01*
X156623700Y-58286495D01*
X156550524Y-58293000D01*
X156375169Y-58235430D01*
X156169111Y-58092456D01*
X156118820Y-58045512D01*
X155931226Y-57815340D01*
X155882281Y-57604154D01*
X155947662Y-57395401D01*
X156356742Y-57395401D01*
X156357411Y-57624337D01*
X156417601Y-57748344D01*
X156614955Y-57908476D01*
X156890478Y-57957938D01*
X157187499Y-57888491D01*
X157231566Y-57866687D01*
X157342285Y-57757964D01*
X157389873Y-57557841D01*
X157395333Y-57401021D01*
X157388974Y-57168108D01*
X157345264Y-57058262D01*
X157227252Y-57025214D01*
X157093433Y-57023000D01*
X156745966Y-57071966D01*
X156493332Y-57203689D01*
X156356742Y-57395401D01*
X155947662Y-57395401D01*
X155961860Y-57350070D01*
X155994340Y-57284721D01*
X156209418Y-57043854D01*
X156547442Y-56881593D01*
X156974218Y-56813452D01*
X157035500Y-56812312D01*
X157395333Y-56811333D01*
X157395333Y-56454478D01*
X157372465Y-56197984D01*
X157289620Y-56051913D01*
X157218114Y-56002779D01*
X156947867Y-55950048D01*
X156623419Y-56035980D01*
X156369477Y-56183351D01*
X156210459Y-56289695D01*
X156135566Y-56296389D01*
X156091359Y-56202520D01*
X156083681Y-56178479D01*
X156057826Y-56016552D01*
X156122109Y-55904745D01*
X156303761Y-55819440D01*
X156579972Y-55748066D01*
X157014633Y-55699937D01*
X157375997Y-55757584D01*
G37*
X157375997Y-55757584D02*
X157635698Y-55913985D01*
X157720326Y-56030406D01*
X157764208Y-56193905D01*
X157802685Y-56479462D01*
X157830322Y-56839800D01*
X157839267Y-57065333D01*
X157861000Y-57912000D01*
X158093833Y-57938790D01*
X158282214Y-57987316D01*
X158305730Y-58065804D01*
X158164740Y-58167147D01*
X158080348Y-58205151D01*
X157835608Y-58251401D01*
X157623144Y-58200951D01*
X157495630Y-58072354D01*
X157480000Y-57993687D01*
X157433329Y-57882941D01*
X157395333Y-57869666D01*
X157313057Y-57927004D01*
X157310666Y-57944686D01*
X157238552Y-58031903D01*
X157061116Y-58135770D01*
X156836713Y-58229548D01*
X156623700Y-58286495D01*
X156550524Y-58293000D01*
X156375169Y-58235430D01*
X156169111Y-58092456D01*
X156118820Y-58045512D01*
X155931226Y-57815340D01*
X155882281Y-57604154D01*
X155947662Y-57395401D01*
X156356742Y-57395401D01*
X156357411Y-57624337D01*
X156417601Y-57748344D01*
X156614955Y-57908476D01*
X156890478Y-57957938D01*
X157187499Y-57888491D01*
X157231566Y-57866687D01*
X157342285Y-57757964D01*
X157389873Y-57557841D01*
X157395333Y-57401021D01*
X157388974Y-57168108D01*
X157345264Y-57058262D01*
X157227252Y-57025214D01*
X157093433Y-57023000D01*
X156745966Y-57071966D01*
X156493332Y-57203689D01*
X156356742Y-57395401D01*
X155947662Y-57395401D01*
X155961860Y-57350070D01*
X155994340Y-57284721D01*
X156209418Y-57043854D01*
X156547442Y-56881593D01*
X156974218Y-56813452D01*
X157035500Y-56812312D01*
X157395333Y-56811333D01*
X157395333Y-56454478D01*
X157372465Y-56197984D01*
X157289620Y-56051913D01*
X157218114Y-56002779D01*
X156947867Y-55950048D01*
X156623419Y-56035980D01*
X156369477Y-56183351D01*
X156210459Y-56289695D01*
X156135566Y-56296389D01*
X156091359Y-56202520D01*
X156083681Y-56178479D01*
X156057826Y-56016552D01*
X156122109Y-55904745D01*
X156303761Y-55819440D01*
X156579972Y-55748066D01*
X157014633Y-55699937D01*
X157375997Y-55757584D01*
G36*
X162983333Y-57873296D02*
G01*
X163195000Y-57969738D01*
X163370784Y-58079364D01*
X163383243Y-58163007D01*
X163234594Y-58205729D01*
X163159591Y-58208333D01*
X162930622Y-58225545D01*
X162778591Y-58259725D01*
X162678337Y-58257014D01*
X162645184Y-58122245D01*
X162644666Y-58087857D01*
X162644666Y-57864597D01*
X162411833Y-58035309D01*
X162075272Y-58208732D01*
X161734758Y-58258152D01*
X161467495Y-58189355D01*
X161166641Y-57942306D01*
X160973439Y-57602913D01*
X160886130Y-57208074D01*
X160900627Y-56851875D01*
X161299125Y-56851875D01*
X161325453Y-57231174D01*
X161453971Y-57590500D01*
X161605348Y-57806011D01*
X161810139Y-57922748D01*
X162084130Y-57953542D01*
X162351127Y-57899253D01*
X162507864Y-57795830D01*
X162577285Y-57687608D01*
X162617397Y-57527264D01*
X162632886Y-57277408D01*
X162628435Y-56900645D01*
X162626820Y-56846298D01*
X162602333Y-56055269D01*
X162329985Y-55977361D01*
X161992375Y-55951485D01*
X161790404Y-56010146D01*
X161535887Y-56199760D01*
X161370698Y-56494204D01*
X161299125Y-56851875D01*
X160900627Y-56851875D01*
X160902955Y-56794684D01*
X161022156Y-56399640D01*
X161241973Y-56059839D01*
X161560646Y-55812177D01*
X161581320Y-55801809D01*
X161803407Y-55705314D01*
X161973027Y-55684235D01*
X162178244Y-55734581D01*
X162279820Y-55770150D01*
X162644666Y-55901348D01*
X162644666Y-55486411D01*
X162633791Y-55229552D01*
X162586048Y-55088361D01*
X162478764Y-55009766D01*
X162433000Y-54991000D01*
X162256596Y-54894393D01*
X162240521Y-54810955D01*
X162375772Y-54754190D01*
X162602333Y-54737000D01*
X162983333Y-54737000D01*
X162983333Y-57873296D01*
G37*
X162983333Y-57873296D02*
X163195000Y-57969738D01*
X163370784Y-58079364D01*
X163383243Y-58163007D01*
X163234594Y-58205729D01*
X163159591Y-58208333D01*
X162930622Y-58225545D01*
X162778591Y-58259725D01*
X162678337Y-58257014D01*
X162645184Y-58122245D01*
X162644666Y-58087857D01*
X162644666Y-57864597D01*
X162411833Y-58035309D01*
X162075272Y-58208732D01*
X161734758Y-58258152D01*
X161467495Y-58189355D01*
X161166641Y-57942306D01*
X160973439Y-57602913D01*
X160886130Y-57208074D01*
X160900627Y-56851875D01*
X161299125Y-56851875D01*
X161325453Y-57231174D01*
X161453971Y-57590500D01*
X161605348Y-57806011D01*
X161810139Y-57922748D01*
X162084130Y-57953542D01*
X162351127Y-57899253D01*
X162507864Y-57795830D01*
X162577285Y-57687608D01*
X162617397Y-57527264D01*
X162632886Y-57277408D01*
X162628435Y-56900645D01*
X162626820Y-56846298D01*
X162602333Y-56055269D01*
X162329985Y-55977361D01*
X161992375Y-55951485D01*
X161790404Y-56010146D01*
X161535887Y-56199760D01*
X161370698Y-56494204D01*
X161299125Y-56851875D01*
X160900627Y-56851875D01*
X160902955Y-56794684D01*
X161022156Y-56399640D01*
X161241973Y-56059839D01*
X161560646Y-55812177D01*
X161581320Y-55801809D01*
X161803407Y-55705314D01*
X161973027Y-55684235D01*
X162178244Y-55734581D01*
X162279820Y-55770150D01*
X162644666Y-55901348D01*
X162644666Y-55486411D01*
X162633791Y-55229552D01*
X162586048Y-55088361D01*
X162478764Y-55009766D01*
X162433000Y-54991000D01*
X162256596Y-54894393D01*
X162240521Y-54810955D01*
X162375772Y-54754190D01*
X162602333Y-54737000D01*
X162983333Y-54737000D01*
X162983333Y-57873296D01*
G36*
X144276516Y-55007803D02*
G01*
X144418243Y-55056095D01*
X144397953Y-55132696D01*
X144212754Y-55234429D01*
X144201486Y-55239137D01*
X144028570Y-55346072D01*
X143787172Y-55539594D01*
X143523685Y-55781883D01*
X143469386Y-55835928D01*
X142977134Y-56333371D01*
X143595720Y-57145624D01*
X143890949Y-57515096D01*
X144143250Y-57795080D01*
X144333701Y-57965604D01*
X144412487Y-58007617D01*
X144584645Y-58071741D01*
X144601104Y-58131173D01*
X144475472Y-58178155D01*
X144221355Y-58204933D01*
X144060333Y-58208333D01*
X143726864Y-58191704D01*
X143542037Y-58143936D01*
X143512888Y-58068211D01*
X143593474Y-57997403D01*
X143575131Y-57918503D01*
X143478689Y-57742437D01*
X143329522Y-57506078D01*
X143153006Y-57246299D01*
X142974517Y-56999974D01*
X142819430Y-56803976D01*
X142713122Y-56695177D01*
X142689842Y-56684333D01*
X142593964Y-56719532D01*
X142488433Y-56771978D01*
X142393810Y-56853987D01*
X142343603Y-57000406D01*
X142325612Y-57255933D01*
X142324666Y-57372000D01*
X142329851Y-57657827D01*
X142358663Y-57821978D01*
X142430986Y-57912068D01*
X142566703Y-57975714D01*
X142578666Y-57980249D01*
X142775177Y-58071750D01*
X142811676Y-58138897D01*
X142685884Y-58182920D01*
X142395521Y-58205047D01*
X142155333Y-58208333D01*
X141828151Y-58198683D01*
X141591821Y-58172629D01*
X141481757Y-58134513D01*
X141478000Y-58125279D01*
X141549839Y-58045028D01*
X141689666Y-57989101D01*
X141901333Y-57935976D01*
X141901333Y-55263357D01*
X141689666Y-55210232D01*
X141506769Y-55143728D01*
X141480216Y-55081918D01*
X141597031Y-55031521D01*
X141844237Y-54999257D01*
X142113000Y-54991000D01*
X142474167Y-55005659D01*
X142687650Y-55047233D01*
X142747431Y-55112109D01*
X142647495Y-55196679D01*
X142536333Y-55245000D01*
X142428296Y-55297389D01*
X142365042Y-55379282D01*
X142334661Y-55531057D01*
X142325240Y-55793094D01*
X142324666Y-55962571D01*
X142334060Y-56266639D01*
X142358916Y-56491791D01*
X142394244Y-56596727D01*
X142401640Y-56599666D01*
X142503005Y-56540391D01*
X142672308Y-56383966D01*
X142882164Y-56162495D01*
X143105183Y-55908081D01*
X143313981Y-55652827D01*
X143481168Y-55428835D01*
X143579357Y-55268210D01*
X143589821Y-55206899D01*
X143516103Y-55094964D01*
X143574834Y-55027042D01*
X143779558Y-54995555D01*
X143975666Y-54991000D01*
X144276516Y-55007803D01*
G37*
X144276516Y-55007803D02*
X144418243Y-55056095D01*
X144397953Y-55132696D01*
X144212754Y-55234429D01*
X144201486Y-55239137D01*
X144028570Y-55346072D01*
X143787172Y-55539594D01*
X143523685Y-55781883D01*
X143469386Y-55835928D01*
X142977134Y-56333371D01*
X143595720Y-57145624D01*
X143890949Y-57515096D01*
X144143250Y-57795080D01*
X144333701Y-57965604D01*
X144412487Y-58007617D01*
X144584645Y-58071741D01*
X144601104Y-58131173D01*
X144475472Y-58178155D01*
X144221355Y-58204933D01*
X144060333Y-58208333D01*
X143726864Y-58191704D01*
X143542037Y-58143936D01*
X143512888Y-58068211D01*
X143593474Y-57997403D01*
X143575131Y-57918503D01*
X143478689Y-57742437D01*
X143329522Y-57506078D01*
X143153006Y-57246299D01*
X142974517Y-56999974D01*
X142819430Y-56803976D01*
X142713122Y-56695177D01*
X142689842Y-56684333D01*
X142593964Y-56719532D01*
X142488433Y-56771978D01*
X142393810Y-56853987D01*
X142343603Y-57000406D01*
X142325612Y-57255933D01*
X142324666Y-57372000D01*
X142329851Y-57657827D01*
X142358663Y-57821978D01*
X142430986Y-57912068D01*
X142566703Y-57975714D01*
X142578666Y-57980249D01*
X142775177Y-58071750D01*
X142811676Y-58138897D01*
X142685884Y-58182920D01*
X142395521Y-58205047D01*
X142155333Y-58208333D01*
X141828151Y-58198683D01*
X141591821Y-58172629D01*
X141481757Y-58134513D01*
X141478000Y-58125279D01*
X141549839Y-58045028D01*
X141689666Y-57989101D01*
X141901333Y-57935976D01*
X141901333Y-55263357D01*
X141689666Y-55210232D01*
X141506769Y-55143728D01*
X141480216Y-55081918D01*
X141597031Y-55031521D01*
X141844237Y-54999257D01*
X142113000Y-54991000D01*
X142474167Y-55005659D01*
X142687650Y-55047233D01*
X142747431Y-55112109D01*
X142647495Y-55196679D01*
X142536333Y-55245000D01*
X142428296Y-55297389D01*
X142365042Y-55379282D01*
X142334661Y-55531057D01*
X142325240Y-55793094D01*
X142324666Y-55962571D01*
X142334060Y-56266639D01*
X142358916Y-56491791D01*
X142394244Y-56596727D01*
X142401640Y-56599666D01*
X142503005Y-56540391D01*
X142672308Y-56383966D01*
X142882164Y-56162495D01*
X143105183Y-55908081D01*
X143313981Y-55652827D01*
X143481168Y-55428835D01*
X143579357Y-55268210D01*
X143589821Y-55206899D01*
X143516103Y-55094964D01*
X143574834Y-55027042D01*
X143779558Y-54995555D01*
X143975666Y-54991000D01*
X144276516Y-55007803D01*
G36*
X160358914Y-55773980D02*
G01*
X160462314Y-56027434D01*
X160469934Y-56070500D01*
X160469919Y-56280058D01*
X160390144Y-56343696D01*
X160243687Y-56257110D01*
X160162626Y-56171640D01*
X159964557Y-56050996D01*
X159721866Y-56087780D01*
X159490833Y-56241803D01*
X159418291Y-56335986D01*
X159373273Y-56487457D01*
X159350012Y-56732021D01*
X159342738Y-57105485D01*
X159342666Y-57161509D01*
X159344641Y-57530861D01*
X159356295Y-57765103D01*
X159386223Y-57898456D01*
X159443020Y-57965139D01*
X159535282Y-57999373D01*
X159554333Y-58004232D01*
X159734524Y-58069423D01*
X159757583Y-58128711D01*
X159635712Y-58175560D01*
X159381110Y-58203434D01*
X159173333Y-58208333D01*
X158881234Y-58198008D01*
X158669563Y-58170838D01*
X158581136Y-58132525D01*
X158580666Y-58129372D01*
X158650544Y-58043388D01*
X158750000Y-57996666D01*
X158824711Y-57959863D01*
X158873583Y-57885433D01*
X158902024Y-57742190D01*
X158915443Y-57498948D01*
X158919249Y-57124522D01*
X158919333Y-57020273D01*
X158916612Y-56610057D01*
X158904832Y-56336679D01*
X158878571Y-56167681D01*
X158832402Y-56070606D01*
X158760904Y-56012997D01*
X158750000Y-56007000D01*
X158602135Y-55895584D01*
X158620736Y-55810267D01*
X158804691Y-55752807D01*
X158919333Y-55738488D01*
X159154322Y-55736050D01*
X159260511Y-55810462D01*
X159272817Y-55995328D01*
X159264320Y-56070500D01*
X159278365Y-56162258D01*
X159368731Y-56143686D01*
X159551313Y-56008706D01*
X159651935Y-55922333D01*
X159945521Y-55719944D01*
X160183915Y-55670988D01*
X160358914Y-55773980D01*
G37*
X160358914Y-55773980D02*
X160462314Y-56027434D01*
X160469934Y-56070500D01*
X160469919Y-56280058D01*
X160390144Y-56343696D01*
X160243687Y-56257110D01*
X160162626Y-56171640D01*
X159964557Y-56050996D01*
X159721866Y-56087780D01*
X159490833Y-56241803D01*
X159418291Y-56335986D01*
X159373273Y-56487457D01*
X159350012Y-56732021D01*
X159342738Y-57105485D01*
X159342666Y-57161509D01*
X159344641Y-57530861D01*
X159356295Y-57765103D01*
X159386223Y-57898456D01*
X159443020Y-57965139D01*
X159535282Y-57999373D01*
X159554333Y-58004232D01*
X159734524Y-58069423D01*
X159757583Y-58128711D01*
X159635712Y-58175560D01*
X159381110Y-58203434D01*
X159173333Y-58208333D01*
X158881234Y-58198008D01*
X158669563Y-58170838D01*
X158581136Y-58132525D01*
X158580666Y-58129372D01*
X158650544Y-58043388D01*
X158750000Y-57996666D01*
X158824711Y-57959863D01*
X158873583Y-57885433D01*
X158902024Y-57742190D01*
X158915443Y-57498948D01*
X158919249Y-57124522D01*
X158919333Y-57020273D01*
X158916612Y-56610057D01*
X158904832Y-56336679D01*
X158878571Y-56167681D01*
X158832402Y-56070606D01*
X158760904Y-56012997D01*
X158750000Y-56007000D01*
X158602135Y-55895584D01*
X158620736Y-55810267D01*
X158804691Y-55752807D01*
X158919333Y-55738488D01*
X159154322Y-55736050D01*
X159260511Y-55810462D01*
X159272817Y-55995328D01*
X159264320Y-56070500D01*
X159278365Y-56162258D01*
X159368731Y-56143686D01*
X159551313Y-56008706D01*
X159651935Y-55922333D01*
X159945521Y-55719944D01*
X160183915Y-55670988D01*
X160358914Y-55773980D01*
G36*
X137646468Y-70459666D02*
G01*
X138027468Y-70459666D01*
X138329946Y-70516462D01*
X138408468Y-70650166D01*
X138366500Y-70739000D01*
X138212746Y-70796033D01*
X137905427Y-70827532D01*
X137402766Y-70839764D01*
X137138468Y-70840666D01*
X136546240Y-70834370D01*
X136166018Y-70811307D01*
X135956023Y-70765209D01*
X135874478Y-70689810D01*
X135868468Y-70650166D01*
X135964857Y-70509268D01*
X136272484Y-70460010D01*
X136312968Y-70459666D01*
X136757468Y-70459666D01*
X136757468Y-69824666D01*
X136744095Y-69443790D01*
X136687333Y-69253833D01*
X136562217Y-69192383D01*
X136503468Y-69189666D01*
X136296611Y-69110256D01*
X136249468Y-68999166D01*
X136355347Y-68844023D01*
X136503468Y-68808666D01*
X136715724Y-68718863D01*
X136757468Y-68554666D01*
X136807190Y-68379603D01*
X137001301Y-68308968D01*
X137201968Y-68300666D01*
X137646468Y-68300666D01*
X137646468Y-70459666D01*
G37*
X137646468Y-70459666D02*
X138027468Y-70459666D01*
X138329946Y-70516462D01*
X138408468Y-70650166D01*
X138366500Y-70739000D01*
X138212746Y-70796033D01*
X137905427Y-70827532D01*
X137402766Y-70839764D01*
X137138468Y-70840666D01*
X136546240Y-70834370D01*
X136166018Y-70811307D01*
X135956023Y-70765209D01*
X135874478Y-70689810D01*
X135868468Y-70650166D01*
X135964857Y-70509268D01*
X136272484Y-70460010D01*
X136312968Y-70459666D01*
X136757468Y-70459666D01*
X136757468Y-69824666D01*
X136744095Y-69443790D01*
X136687333Y-69253833D01*
X136562217Y-69192383D01*
X136503468Y-69189666D01*
X136296611Y-69110256D01*
X136249468Y-68999166D01*
X136355347Y-68844023D01*
X136503468Y-68808666D01*
X136715724Y-68718863D01*
X136757468Y-68554666D01*
X136807190Y-68379603D01*
X137001301Y-68308968D01*
X137201968Y-68300666D01*
X137646468Y-68300666D01*
X137646468Y-70459666D01*
G36*
X152846747Y-114053916D02*
G01*
X153095819Y-114089178D01*
X153203342Y-114169055D01*
X153225500Y-114300000D01*
X153315302Y-114512256D01*
X153479500Y-114554000D01*
X153616960Y-114579728D01*
X153693598Y-114694330D01*
X153726682Y-114953930D01*
X153733500Y-115379500D01*
X153725583Y-115826247D01*
X153690321Y-116075319D01*
X153610444Y-116182842D01*
X153479500Y-116205000D01*
X153272643Y-116284409D01*
X153225500Y-116395500D01*
X153170389Y-116502354D01*
X152973466Y-116561744D01*
X152587347Y-116584605D01*
X152400000Y-116586000D01*
X151936964Y-116573282D01*
X151679607Y-116527838D01*
X151580544Y-116438734D01*
X151574500Y-116395500D01*
X151472840Y-116227127D01*
X151384000Y-116205000D01*
X151277145Y-116149889D01*
X151217755Y-115952966D01*
X151194894Y-115566847D01*
X151193500Y-115379500D01*
X151205707Y-114935000D01*
X152082500Y-114935000D01*
X152139296Y-115237478D01*
X152273000Y-115316000D01*
X152441372Y-115417659D01*
X152463500Y-115506500D01*
X152361840Y-115674872D01*
X152273000Y-115697000D01*
X152117857Y-115802879D01*
X152082500Y-115951000D01*
X152142373Y-116136920D01*
X152365149Y-116202379D01*
X152463500Y-116205000D01*
X152719479Y-116180220D01*
X152824471Y-116054535D01*
X152844500Y-115760500D01*
X152803190Y-115431740D01*
X152671349Y-115316803D01*
X152654000Y-115316000D01*
X152485627Y-115214340D01*
X152463500Y-115125500D01*
X152565159Y-114957127D01*
X152654000Y-114935000D01*
X152822372Y-114833340D01*
X152844500Y-114744500D01*
X152730907Y-114593260D01*
X152463500Y-114554000D01*
X152193637Y-114585468D01*
X152094172Y-114733909D01*
X152082500Y-114935000D01*
X151205707Y-114935000D01*
X151206217Y-114916464D01*
X151251661Y-114659107D01*
X151340765Y-114560044D01*
X151384000Y-114554000D01*
X151539142Y-114448120D01*
X151574500Y-114300000D01*
X151600228Y-114162539D01*
X151714830Y-114085901D01*
X151974430Y-114052817D01*
X152400000Y-114046000D01*
X152846747Y-114053916D01*
G37*
X152846747Y-114053916D02*
X153095819Y-114089178D01*
X153203342Y-114169055D01*
X153225500Y-114300000D01*
X153315302Y-114512256D01*
X153479500Y-114554000D01*
X153616960Y-114579728D01*
X153693598Y-114694330D01*
X153726682Y-114953930D01*
X153733500Y-115379500D01*
X153725583Y-115826247D01*
X153690321Y-116075319D01*
X153610444Y-116182842D01*
X153479500Y-116205000D01*
X153272643Y-116284409D01*
X153225500Y-116395500D01*
X153170389Y-116502354D01*
X152973466Y-116561744D01*
X152587347Y-116584605D01*
X152400000Y-116586000D01*
X151936964Y-116573282D01*
X151679607Y-116527838D01*
X151580544Y-116438734D01*
X151574500Y-116395500D01*
X151472840Y-116227127D01*
X151384000Y-116205000D01*
X151277145Y-116149889D01*
X151217755Y-115952966D01*
X151194894Y-115566847D01*
X151193500Y-115379500D01*
X151205707Y-114935000D01*
X152082500Y-114935000D01*
X152139296Y-115237478D01*
X152273000Y-115316000D01*
X152441372Y-115417659D01*
X152463500Y-115506500D01*
X152361840Y-115674872D01*
X152273000Y-115697000D01*
X152117857Y-115802879D01*
X152082500Y-115951000D01*
X152142373Y-116136920D01*
X152365149Y-116202379D01*
X152463500Y-116205000D01*
X152719479Y-116180220D01*
X152824471Y-116054535D01*
X152844500Y-115760500D01*
X152803190Y-115431740D01*
X152671349Y-115316803D01*
X152654000Y-115316000D01*
X152485627Y-115214340D01*
X152463500Y-115125500D01*
X152565159Y-114957127D01*
X152654000Y-114935000D01*
X152822372Y-114833340D01*
X152844500Y-114744500D01*
X152730907Y-114593260D01*
X152463500Y-114554000D01*
X152193637Y-114585468D01*
X152094172Y-114733909D01*
X152082500Y-114935000D01*
X151205707Y-114935000D01*
X151206217Y-114916464D01*
X151251661Y-114659107D01*
X151340765Y-114560044D01*
X151384000Y-114554000D01*
X151539142Y-114448120D01*
X151574500Y-114300000D01*
X151600228Y-114162539D01*
X151714830Y-114085901D01*
X151974430Y-114052817D01*
X152400000Y-114046000D01*
X152846747Y-114053916D01*
G36*
X168771858Y-114035152D02*
G01*
X168895470Y-114146073D01*
X168910000Y-114260740D01*
X168989409Y-114467596D01*
X169100500Y-114514740D01*
X169268872Y-114616399D01*
X169291000Y-114705240D01*
X169189340Y-114873612D01*
X169100500Y-114895740D01*
X168959602Y-114992129D01*
X168910344Y-115299756D01*
X168910000Y-115340240D01*
X168951309Y-115668999D01*
X169083150Y-115783936D01*
X169100500Y-115784740D01*
X169268872Y-115886399D01*
X169291000Y-115975240D01*
X169189340Y-116143612D01*
X169100500Y-116165740D01*
X168932127Y-116267399D01*
X168910000Y-116356240D01*
X168813610Y-116497137D01*
X168505983Y-116546395D01*
X168465500Y-116546740D01*
X168136740Y-116505430D01*
X168021803Y-116373589D01*
X168021000Y-116356240D01*
X167907407Y-116205000D01*
X167640000Y-116165740D01*
X167337521Y-116222536D01*
X167259000Y-116356240D01*
X167162610Y-116497137D01*
X166854983Y-116546395D01*
X166814500Y-116546740D01*
X166485740Y-116505430D01*
X166370803Y-116373589D01*
X166370000Y-116356240D01*
X166268340Y-116187867D01*
X166179500Y-116165740D01*
X166011127Y-116064080D01*
X165989000Y-115975240D01*
X166090659Y-115806867D01*
X166179500Y-115784740D01*
X166320397Y-115688350D01*
X166369655Y-115380723D01*
X166370000Y-115340240D01*
X167259000Y-115340240D01*
X167280239Y-115638882D01*
X167387969Y-115761373D01*
X167640000Y-115784740D01*
X167895979Y-115759960D01*
X168000971Y-115634275D01*
X168021000Y-115340240D01*
X167999760Y-115041597D01*
X167892030Y-114919106D01*
X167640000Y-114895740D01*
X167384020Y-114920519D01*
X167279028Y-115046204D01*
X167259000Y-115340240D01*
X166370000Y-115340240D01*
X166328690Y-115011480D01*
X166196849Y-114896543D01*
X166179500Y-114895740D01*
X166011127Y-114794080D01*
X165989000Y-114705240D01*
X166090659Y-114536867D01*
X166179500Y-114514740D01*
X166334642Y-114408860D01*
X166370000Y-114260740D01*
X166419722Y-114085677D01*
X166613833Y-114015042D01*
X166814500Y-114006740D01*
X167120858Y-114035152D01*
X167244470Y-114146073D01*
X167259000Y-114260740D01*
X167318873Y-114446660D01*
X167541649Y-114512119D01*
X167640000Y-114514740D01*
X167918880Y-114474824D01*
X168017069Y-114326307D01*
X168021000Y-114260740D01*
X168070722Y-114085677D01*
X168264833Y-114015042D01*
X168465500Y-114006740D01*
X168771858Y-114035152D01*
G37*
X168771858Y-114035152D02*
X168895470Y-114146073D01*
X168910000Y-114260740D01*
X168989409Y-114467596D01*
X169100500Y-114514740D01*
X169268872Y-114616399D01*
X169291000Y-114705240D01*
X169189340Y-114873612D01*
X169100500Y-114895740D01*
X168959602Y-114992129D01*
X168910344Y-115299756D01*
X168910000Y-115340240D01*
X168951309Y-115668999D01*
X169083150Y-115783936D01*
X169100500Y-115784740D01*
X169268872Y-115886399D01*
X169291000Y-115975240D01*
X169189340Y-116143612D01*
X169100500Y-116165740D01*
X168932127Y-116267399D01*
X168910000Y-116356240D01*
X168813610Y-116497137D01*
X168505983Y-116546395D01*
X168465500Y-116546740D01*
X168136740Y-116505430D01*
X168021803Y-116373589D01*
X168021000Y-116356240D01*
X167907407Y-116205000D01*
X167640000Y-116165740D01*
X167337521Y-116222536D01*
X167259000Y-116356240D01*
X167162610Y-116497137D01*
X166854983Y-116546395D01*
X166814500Y-116546740D01*
X166485740Y-116505430D01*
X166370803Y-116373589D01*
X166370000Y-116356240D01*
X166268340Y-116187867D01*
X166179500Y-116165740D01*
X166011127Y-116064080D01*
X165989000Y-115975240D01*
X166090659Y-115806867D01*
X166179500Y-115784740D01*
X166320397Y-115688350D01*
X166369655Y-115380723D01*
X166370000Y-115340240D01*
X167259000Y-115340240D01*
X167280239Y-115638882D01*
X167387969Y-115761373D01*
X167640000Y-115784740D01*
X167895979Y-115759960D01*
X168000971Y-115634275D01*
X168021000Y-115340240D01*
X167999760Y-115041597D01*
X167892030Y-114919106D01*
X167640000Y-114895740D01*
X167384020Y-114920519D01*
X167279028Y-115046204D01*
X167259000Y-115340240D01*
X166370000Y-115340240D01*
X166328690Y-115011480D01*
X166196849Y-114896543D01*
X166179500Y-114895740D01*
X166011127Y-114794080D01*
X165989000Y-114705240D01*
X166090659Y-114536867D01*
X166179500Y-114514740D01*
X166334642Y-114408860D01*
X166370000Y-114260740D01*
X166419722Y-114085677D01*
X166613833Y-114015042D01*
X166814500Y-114006740D01*
X167120858Y-114035152D01*
X167244470Y-114146073D01*
X167259000Y-114260740D01*
X167318873Y-114446660D01*
X167541649Y-114512119D01*
X167640000Y-114514740D01*
X167918880Y-114474824D01*
X168017069Y-114326307D01*
X168021000Y-114260740D01*
X168070722Y-114085677D01*
X168264833Y-114015042D01*
X168465500Y-114006740D01*
X168771858Y-114035152D01*
G36*
X167959747Y-98836044D02*
G01*
X168208819Y-98871306D01*
X168316342Y-98951183D01*
X168338500Y-99082128D01*
X168428302Y-99294384D01*
X168592500Y-99336128D01*
X168744850Y-99369560D01*
X168820833Y-99511464D01*
X168845413Y-99824253D01*
X168846500Y-99971128D01*
X168833127Y-100352003D01*
X168776365Y-100541960D01*
X168651249Y-100603410D01*
X168592500Y-100606128D01*
X168385643Y-100685537D01*
X168338500Y-100796628D01*
X168236840Y-100965000D01*
X168148000Y-100987128D01*
X167979627Y-101088787D01*
X167957500Y-101177628D01*
X167889520Y-101297426D01*
X167654159Y-101355937D01*
X167322500Y-101368128D01*
X166923172Y-101347734D01*
X166728133Y-101277125D01*
X166687500Y-101177628D01*
X166801092Y-101026388D01*
X167068500Y-100987128D01*
X167370978Y-100930331D01*
X167449500Y-100796628D01*
X167555379Y-100641485D01*
X167703500Y-100606128D01*
X167915756Y-100516325D01*
X167957500Y-100352128D01*
X167924067Y-100199777D01*
X167782163Y-100123794D01*
X167469374Y-100099214D01*
X167322500Y-100098128D01*
X166923172Y-100077734D01*
X166728133Y-100007125D01*
X166687500Y-99907628D01*
X166585840Y-99739255D01*
X166497000Y-99717128D01*
X166328627Y-99615468D01*
X166306500Y-99526628D01*
X167195500Y-99526628D01*
X167309092Y-99677867D01*
X167576500Y-99717128D01*
X167878978Y-99660331D01*
X167957500Y-99526628D01*
X167843907Y-99375388D01*
X167576500Y-99336128D01*
X167274021Y-99392924D01*
X167195500Y-99526628D01*
X166306500Y-99526628D01*
X166408159Y-99358255D01*
X166497000Y-99336128D01*
X166652142Y-99230248D01*
X166687500Y-99082128D01*
X166713228Y-98944667D01*
X166827830Y-98868029D01*
X167087430Y-98834945D01*
X167513000Y-98828128D01*
X167959747Y-98836044D01*
G37*
X167959747Y-98836044D02*
X168208819Y-98871306D01*
X168316342Y-98951183D01*
X168338500Y-99082128D01*
X168428302Y-99294384D01*
X168592500Y-99336128D01*
X168744850Y-99369560D01*
X168820833Y-99511464D01*
X168845413Y-99824253D01*
X168846500Y-99971128D01*
X168833127Y-100352003D01*
X168776365Y-100541960D01*
X168651249Y-100603410D01*
X168592500Y-100606128D01*
X168385643Y-100685537D01*
X168338500Y-100796628D01*
X168236840Y-100965000D01*
X168148000Y-100987128D01*
X167979627Y-101088787D01*
X167957500Y-101177628D01*
X167889520Y-101297426D01*
X167654159Y-101355937D01*
X167322500Y-101368128D01*
X166923172Y-101347734D01*
X166728133Y-101277125D01*
X166687500Y-101177628D01*
X166801092Y-101026388D01*
X167068500Y-100987128D01*
X167370978Y-100930331D01*
X167449500Y-100796628D01*
X167555379Y-100641485D01*
X167703500Y-100606128D01*
X167915756Y-100516325D01*
X167957500Y-100352128D01*
X167924067Y-100199777D01*
X167782163Y-100123794D01*
X167469374Y-100099214D01*
X167322500Y-100098128D01*
X166923172Y-100077734D01*
X166728133Y-100007125D01*
X166687500Y-99907628D01*
X166585840Y-99739255D01*
X166497000Y-99717128D01*
X166328627Y-99615468D01*
X166306500Y-99526628D01*
X167195500Y-99526628D01*
X167309092Y-99677867D01*
X167576500Y-99717128D01*
X167878978Y-99660331D01*
X167957500Y-99526628D01*
X167843907Y-99375388D01*
X167576500Y-99336128D01*
X167274021Y-99392924D01*
X167195500Y-99526628D01*
X166306500Y-99526628D01*
X166408159Y-99358255D01*
X166497000Y-99336128D01*
X166652142Y-99230248D01*
X166687500Y-99082128D01*
X166713228Y-98944667D01*
X166827830Y-98868029D01*
X167087430Y-98834945D01*
X167513000Y-98828128D01*
X167959747Y-98836044D01*
G36*
X152799604Y-98798007D02*
G01*
X153048676Y-98833269D01*
X153156199Y-98913146D01*
X153178357Y-99044091D01*
X153268159Y-99256347D01*
X153432357Y-99298091D01*
X153639213Y-99377500D01*
X153686357Y-99488591D01*
X153580477Y-99643733D01*
X153432357Y-99679091D01*
X153225500Y-99758500D01*
X153178357Y-99869591D01*
X153284236Y-100024733D01*
X153432357Y-100060091D01*
X153607419Y-100109813D01*
X153678054Y-100303924D01*
X153686357Y-100504591D01*
X153657944Y-100810949D01*
X153547023Y-100934561D01*
X153432357Y-100949091D01*
X153225500Y-101028500D01*
X153178357Y-101139591D01*
X153123246Y-101246445D01*
X152926323Y-101305835D01*
X152540204Y-101328696D01*
X152352857Y-101330091D01*
X151889821Y-101317373D01*
X151632464Y-101271929D01*
X151533401Y-101182825D01*
X151527357Y-101139591D01*
X151425697Y-100971218D01*
X151336857Y-100949091D01*
X151195959Y-100852701D01*
X151146701Y-100545074D01*
X151146357Y-100504591D01*
X152035357Y-100504591D01*
X152056596Y-100803233D01*
X152164326Y-100925724D01*
X152416357Y-100949091D01*
X152672336Y-100924311D01*
X152777328Y-100798626D01*
X152797357Y-100504591D01*
X152776117Y-100205948D01*
X152668387Y-100083457D01*
X152416357Y-100060091D01*
X152160377Y-100084870D01*
X152055385Y-100210555D01*
X152035357Y-100504591D01*
X151146357Y-100504591D01*
X151187666Y-100175831D01*
X151319507Y-100060894D01*
X151336857Y-100060091D01*
X151505229Y-99958431D01*
X151527357Y-99869591D01*
X151425697Y-99701218D01*
X151336857Y-99679091D01*
X151168484Y-99577431D01*
X151146357Y-99488591D01*
X152035357Y-99488591D01*
X152148949Y-99639830D01*
X152416357Y-99679091D01*
X152718835Y-99622294D01*
X152797357Y-99488591D01*
X152683764Y-99337351D01*
X152416357Y-99298091D01*
X152113878Y-99354887D01*
X152035357Y-99488591D01*
X151146357Y-99488591D01*
X151248016Y-99320218D01*
X151336857Y-99298091D01*
X151491999Y-99192211D01*
X151527357Y-99044091D01*
X151553085Y-98906630D01*
X151667687Y-98829992D01*
X151927287Y-98796908D01*
X152352857Y-98790091D01*
X152799604Y-98798007D01*
G37*
X152799604Y-98798007D02*
X153048676Y-98833269D01*
X153156199Y-98913146D01*
X153178357Y-99044091D01*
X153268159Y-99256347D01*
X153432357Y-99298091D01*
X153639213Y-99377500D01*
X153686357Y-99488591D01*
X153580477Y-99643733D01*
X153432357Y-99679091D01*
X153225500Y-99758500D01*
X153178357Y-99869591D01*
X153284236Y-100024733D01*
X153432357Y-100060091D01*
X153607419Y-100109813D01*
X153678054Y-100303924D01*
X153686357Y-100504591D01*
X153657944Y-100810949D01*
X153547023Y-100934561D01*
X153432357Y-100949091D01*
X153225500Y-101028500D01*
X153178357Y-101139591D01*
X153123246Y-101246445D01*
X152926323Y-101305835D01*
X152540204Y-101328696D01*
X152352857Y-101330091D01*
X151889821Y-101317373D01*
X151632464Y-101271929D01*
X151533401Y-101182825D01*
X151527357Y-101139591D01*
X151425697Y-100971218D01*
X151336857Y-100949091D01*
X151195959Y-100852701D01*
X151146701Y-100545074D01*
X151146357Y-100504591D01*
X152035357Y-100504591D01*
X152056596Y-100803233D01*
X152164326Y-100925724D01*
X152416357Y-100949091D01*
X152672336Y-100924311D01*
X152777328Y-100798626D01*
X152797357Y-100504591D01*
X152776117Y-100205948D01*
X152668387Y-100083457D01*
X152416357Y-100060091D01*
X152160377Y-100084870D01*
X152055385Y-100210555D01*
X152035357Y-100504591D01*
X151146357Y-100504591D01*
X151187666Y-100175831D01*
X151319507Y-100060894D01*
X151336857Y-100060091D01*
X151505229Y-99958431D01*
X151527357Y-99869591D01*
X151425697Y-99701218D01*
X151336857Y-99679091D01*
X151168484Y-99577431D01*
X151146357Y-99488591D01*
X152035357Y-99488591D01*
X152148949Y-99639830D01*
X152416357Y-99679091D01*
X152718835Y-99622294D01*
X152797357Y-99488591D01*
X152683764Y-99337351D01*
X152416357Y-99298091D01*
X152113878Y-99354887D01*
X152035357Y-99488591D01*
X151146357Y-99488591D01*
X151248016Y-99320218D01*
X151336857Y-99298091D01*
X151491999Y-99192211D01*
X151527357Y-99044091D01*
X151553085Y-98906630D01*
X151667687Y-98829992D01*
X151927287Y-98796908D01*
X152352857Y-98790091D01*
X152799604Y-98798007D01*
G36*
X138747500Y-99165880D02*
G01*
X138707584Y-99444760D01*
X138559067Y-99542949D01*
X138493500Y-99546880D01*
X138281243Y-99636682D01*
X138239500Y-99800880D01*
X138160090Y-100007736D01*
X138049000Y-100054880D01*
X137879992Y-100123456D01*
X137858500Y-100181880D01*
X137752131Y-100285065D01*
X137604500Y-100308880D01*
X137438323Y-100351480D01*
X137364880Y-100523663D01*
X137350500Y-100816880D01*
X137337043Y-101142134D01*
X137253955Y-101286679D01*
X137037161Y-101323744D01*
X136906000Y-101324880D01*
X136621402Y-101309500D01*
X136494925Y-101214543D01*
X136462493Y-100966778D01*
X136461500Y-100816880D01*
X136482800Y-100484527D01*
X136568891Y-100337641D01*
X136715500Y-100308880D01*
X136921870Y-100255695D01*
X136969500Y-100181880D01*
X137072364Y-100069208D01*
X137160000Y-100054880D01*
X137315142Y-99949000D01*
X137350500Y-99800880D01*
X137440302Y-99588623D01*
X137604500Y-99546880D01*
X137811356Y-99467470D01*
X137858500Y-99356380D01*
X137806218Y-99252878D01*
X137618229Y-99193640D01*
X137247818Y-99168657D01*
X136969500Y-99165880D01*
X136486491Y-99154676D01*
X136210050Y-99114393D01*
X136093461Y-99035019D01*
X136080500Y-98975380D01*
X136121382Y-98888387D01*
X136271363Y-98831796D01*
X136571447Y-98799748D01*
X137062636Y-98786387D01*
X137414000Y-98784880D01*
X138747500Y-98784880D01*
X138747500Y-99165880D01*
G37*
X138747500Y-99165880D02*
X138707584Y-99444760D01*
X138559067Y-99542949D01*
X138493500Y-99546880D01*
X138281243Y-99636682D01*
X138239500Y-99800880D01*
X138160090Y-100007736D01*
X138049000Y-100054880D01*
X137879992Y-100123456D01*
X137858500Y-100181880D01*
X137752131Y-100285065D01*
X137604500Y-100308880D01*
X137438323Y-100351480D01*
X137364880Y-100523663D01*
X137350500Y-100816880D01*
X137337043Y-101142134D01*
X137253955Y-101286679D01*
X137037161Y-101323744D01*
X136906000Y-101324880D01*
X136621402Y-101309500D01*
X136494925Y-101214543D01*
X136462493Y-100966778D01*
X136461500Y-100816880D01*
X136482800Y-100484527D01*
X136568891Y-100337641D01*
X136715500Y-100308880D01*
X136921870Y-100255695D01*
X136969500Y-100181880D01*
X137072364Y-100069208D01*
X137160000Y-100054880D01*
X137315142Y-99949000D01*
X137350500Y-99800880D01*
X137440302Y-99588623D01*
X137604500Y-99546880D01*
X137811356Y-99467470D01*
X137858500Y-99356380D01*
X137806218Y-99252878D01*
X137618229Y-99193640D01*
X137247818Y-99168657D01*
X136969500Y-99165880D01*
X136486491Y-99154676D01*
X136210050Y-99114393D01*
X136093461Y-99035019D01*
X136080500Y-98975380D01*
X136121382Y-98888387D01*
X136271363Y-98831796D01*
X136571447Y-98799748D01*
X137062636Y-98786387D01*
X137414000Y-98784880D01*
X138747500Y-98784880D01*
X138747500Y-99165880D01*
G36*
X137731500Y-84433508D02*
G01*
X137738352Y-84900704D01*
X137769255Y-85168355D01*
X137839726Y-85290770D01*
X137965281Y-85322260D01*
X137985500Y-85322508D01*
X138192356Y-85401917D01*
X138239500Y-85513008D01*
X138133620Y-85668150D01*
X137985500Y-85703508D01*
X137778643Y-85782917D01*
X137731500Y-85894008D01*
X137635110Y-86034905D01*
X137327483Y-86084163D01*
X137287000Y-86084508D01*
X136958240Y-86043198D01*
X136843303Y-85911357D01*
X136842500Y-85894008D01*
X136767707Y-85768446D01*
X136513395Y-85711253D01*
X136271000Y-85703508D01*
X135919575Y-85692463D01*
X135753129Y-85628693D01*
X135702730Y-85466244D01*
X135699500Y-85322508D01*
X135735269Y-85132008D01*
X136588500Y-85132008D01*
X136657076Y-85301015D01*
X136715500Y-85322508D01*
X136828171Y-85219643D01*
X136842500Y-85132008D01*
X136773923Y-84963000D01*
X136715500Y-84941508D01*
X136602828Y-85044372D01*
X136588500Y-85132008D01*
X135735269Y-85132008D01*
X135756296Y-85020029D01*
X135890000Y-84941508D01*
X136045142Y-84835628D01*
X136080500Y-84687508D01*
X136170302Y-84475251D01*
X136334500Y-84433508D01*
X136541356Y-84354098D01*
X136588500Y-84243008D01*
X136657076Y-84074000D01*
X136715500Y-84052508D01*
X136818685Y-83946139D01*
X136842500Y-83798508D01*
X136892222Y-83623445D01*
X137086333Y-83552810D01*
X137287000Y-83544508D01*
X137731500Y-83544508D01*
X137731500Y-84433508D01*
G37*
X137731500Y-84433508D02*
X137738352Y-84900704D01*
X137769255Y-85168355D01*
X137839726Y-85290770D01*
X137965281Y-85322260D01*
X137985500Y-85322508D01*
X138192356Y-85401917D01*
X138239500Y-85513008D01*
X138133620Y-85668150D01*
X137985500Y-85703508D01*
X137778643Y-85782917D01*
X137731500Y-85894008D01*
X137635110Y-86034905D01*
X137327483Y-86084163D01*
X137287000Y-86084508D01*
X136958240Y-86043198D01*
X136843303Y-85911357D01*
X136842500Y-85894008D01*
X136767707Y-85768446D01*
X136513395Y-85711253D01*
X136271000Y-85703508D01*
X135919575Y-85692463D01*
X135753129Y-85628693D01*
X135702730Y-85466244D01*
X135699500Y-85322508D01*
X135735269Y-85132008D01*
X136588500Y-85132008D01*
X136657076Y-85301015D01*
X136715500Y-85322508D01*
X136828171Y-85219643D01*
X136842500Y-85132008D01*
X136773923Y-84963000D01*
X136715500Y-84941508D01*
X136602828Y-85044372D01*
X136588500Y-85132008D01*
X135735269Y-85132008D01*
X135756296Y-85020029D01*
X135890000Y-84941508D01*
X136045142Y-84835628D01*
X136080500Y-84687508D01*
X136170302Y-84475251D01*
X136334500Y-84433508D01*
X136541356Y-84354098D01*
X136588500Y-84243008D01*
X136657076Y-84074000D01*
X136715500Y-84052508D01*
X136818685Y-83946139D01*
X136842500Y-83798508D01*
X136892222Y-83623445D01*
X137086333Y-83552810D01*
X137287000Y-83544508D01*
X137731500Y-83544508D01*
X137731500Y-84433508D01*
G36*
X168023247Y-83612637D02*
G01*
X168272319Y-83647899D01*
X168379842Y-83727776D01*
X168402000Y-83858721D01*
X168364606Y-84017450D01*
X168209337Y-84092509D01*
X167871555Y-84112624D01*
X167830500Y-84112721D01*
X167453816Y-84137651D01*
X167282237Y-84222422D01*
X167259000Y-84303221D01*
X167333792Y-84428782D01*
X167588104Y-84485975D01*
X167830500Y-84493721D01*
X168207183Y-84518651D01*
X168378762Y-84603422D01*
X168402000Y-84684221D01*
X168507879Y-84839363D01*
X168656000Y-84874721D01*
X168831062Y-84924443D01*
X168901697Y-85118554D01*
X168910000Y-85319221D01*
X168881587Y-85625579D01*
X168770666Y-85749191D01*
X168656000Y-85763721D01*
X168449143Y-85843130D01*
X168402000Y-85954221D01*
X168346889Y-86061075D01*
X168149966Y-86120465D01*
X167763847Y-86143326D01*
X167576500Y-86144721D01*
X167113464Y-86132003D01*
X166856107Y-86086559D01*
X166757044Y-85997455D01*
X166751000Y-85954221D01*
X166649340Y-85785848D01*
X166560500Y-85763721D01*
X166453645Y-85708610D01*
X166394255Y-85511687D01*
X166382860Y-85319221D01*
X167259000Y-85319221D01*
X167280239Y-85617863D01*
X167387969Y-85740354D01*
X167640000Y-85763721D01*
X167895979Y-85738941D01*
X168000971Y-85613256D01*
X168021000Y-85319221D01*
X167999760Y-85020578D01*
X167892030Y-84898087D01*
X167640000Y-84874721D01*
X167384020Y-84899500D01*
X167279028Y-85025185D01*
X167259000Y-85319221D01*
X166382860Y-85319221D01*
X166371394Y-85125568D01*
X166370000Y-84938221D01*
X166382717Y-84475185D01*
X166428161Y-84217828D01*
X166517265Y-84118765D01*
X166560500Y-84112721D01*
X166715642Y-84006841D01*
X166751000Y-83858721D01*
X166776728Y-83721260D01*
X166891330Y-83644622D01*
X167150930Y-83611538D01*
X167576500Y-83604721D01*
X168023247Y-83612637D01*
G37*
X168023247Y-83612637D02*
X168272319Y-83647899D01*
X168379842Y-83727776D01*
X168402000Y-83858721D01*
X168364606Y-84017450D01*
X168209337Y-84092509D01*
X167871555Y-84112624D01*
X167830500Y-84112721D01*
X167453816Y-84137651D01*
X167282237Y-84222422D01*
X167259000Y-84303221D01*
X167333792Y-84428782D01*
X167588104Y-84485975D01*
X167830500Y-84493721D01*
X168207183Y-84518651D01*
X168378762Y-84603422D01*
X168402000Y-84684221D01*
X168507879Y-84839363D01*
X168656000Y-84874721D01*
X168831062Y-84924443D01*
X168901697Y-85118554D01*
X168910000Y-85319221D01*
X168881587Y-85625579D01*
X168770666Y-85749191D01*
X168656000Y-85763721D01*
X168449143Y-85843130D01*
X168402000Y-85954221D01*
X168346889Y-86061075D01*
X168149966Y-86120465D01*
X167763847Y-86143326D01*
X167576500Y-86144721D01*
X167113464Y-86132003D01*
X166856107Y-86086559D01*
X166757044Y-85997455D01*
X166751000Y-85954221D01*
X166649340Y-85785848D01*
X166560500Y-85763721D01*
X166453645Y-85708610D01*
X166394255Y-85511687D01*
X166382860Y-85319221D01*
X167259000Y-85319221D01*
X167280239Y-85617863D01*
X167387969Y-85740354D01*
X167640000Y-85763721D01*
X167895979Y-85738941D01*
X168000971Y-85613256D01*
X168021000Y-85319221D01*
X167999760Y-85020578D01*
X167892030Y-84898087D01*
X167640000Y-84874721D01*
X167384020Y-84899500D01*
X167279028Y-85025185D01*
X167259000Y-85319221D01*
X166382860Y-85319221D01*
X166371394Y-85125568D01*
X166370000Y-84938221D01*
X166382717Y-84475185D01*
X166428161Y-84217828D01*
X166517265Y-84118765D01*
X166560500Y-84112721D01*
X166715642Y-84006841D01*
X166751000Y-83858721D01*
X166776728Y-83721260D01*
X166891330Y-83644622D01*
X167150930Y-83611538D01*
X167576500Y-83604721D01*
X168023247Y-83612637D01*
G36*
X168348912Y-68348166D02*
G01*
X168729134Y-68371229D01*
X168939129Y-68417327D01*
X169020674Y-68492726D01*
X169026685Y-68532371D01*
X168920805Y-68687513D01*
X168772685Y-68722871D01*
X168560428Y-68812673D01*
X168518685Y-68976871D01*
X168439275Y-69183727D01*
X168328185Y-69230871D01*
X168159812Y-69332530D01*
X168137685Y-69421371D01*
X168239344Y-69589743D01*
X168328185Y-69611871D01*
X168483327Y-69717750D01*
X168518685Y-69865871D01*
X168608487Y-70078127D01*
X168772685Y-70119871D01*
X168979541Y-70199280D01*
X169026685Y-70310371D01*
X168920805Y-70465513D01*
X168772685Y-70500871D01*
X168565828Y-70580280D01*
X168518685Y-70691371D01*
X168463574Y-70798225D01*
X168266651Y-70857615D01*
X167880532Y-70880476D01*
X167693185Y-70881871D01*
X167230149Y-70869153D01*
X166972792Y-70823709D01*
X166873729Y-70734605D01*
X166867685Y-70691371D01*
X166766025Y-70522998D01*
X166677185Y-70500871D01*
X166508812Y-70399211D01*
X166486685Y-70310371D01*
X166583074Y-70169473D01*
X166890701Y-70120215D01*
X166931185Y-70119871D01*
X167259944Y-70161180D01*
X167374881Y-70293021D01*
X167375685Y-70310371D01*
X167489277Y-70461610D01*
X167756685Y-70500871D01*
X168059163Y-70444074D01*
X168137685Y-70310371D01*
X168031805Y-70155228D01*
X167883685Y-70119871D01*
X167671428Y-70030068D01*
X167629685Y-69865871D01*
X167576500Y-69659500D01*
X167502685Y-69611871D01*
X167390013Y-69509006D01*
X167375685Y-69421371D01*
X167444261Y-69252363D01*
X167502685Y-69230871D01*
X167605870Y-69124502D01*
X167629685Y-68976871D01*
X167592291Y-68818141D01*
X167437022Y-68743082D01*
X167099240Y-68722967D01*
X167058185Y-68722871D01*
X166681501Y-68697940D01*
X166509922Y-68613169D01*
X166486685Y-68532371D01*
X166528652Y-68443536D01*
X166682406Y-68386503D01*
X166989725Y-68355004D01*
X167492386Y-68342772D01*
X167756685Y-68341871D01*
X168348912Y-68348166D01*
G37*
X168348912Y-68348166D02*
X168729134Y-68371229D01*
X168939129Y-68417327D01*
X169020674Y-68492726D01*
X169026685Y-68532371D01*
X168920805Y-68687513D01*
X168772685Y-68722871D01*
X168560428Y-68812673D01*
X168518685Y-68976871D01*
X168439275Y-69183727D01*
X168328185Y-69230871D01*
X168159812Y-69332530D01*
X168137685Y-69421371D01*
X168239344Y-69589743D01*
X168328185Y-69611871D01*
X168483327Y-69717750D01*
X168518685Y-69865871D01*
X168608487Y-70078127D01*
X168772685Y-70119871D01*
X168979541Y-70199280D01*
X169026685Y-70310371D01*
X168920805Y-70465513D01*
X168772685Y-70500871D01*
X168565828Y-70580280D01*
X168518685Y-70691371D01*
X168463574Y-70798225D01*
X168266651Y-70857615D01*
X167880532Y-70880476D01*
X167693185Y-70881871D01*
X167230149Y-70869153D01*
X166972792Y-70823709D01*
X166873729Y-70734605D01*
X166867685Y-70691371D01*
X166766025Y-70522998D01*
X166677185Y-70500871D01*
X166508812Y-70399211D01*
X166486685Y-70310371D01*
X166583074Y-70169473D01*
X166890701Y-70120215D01*
X166931185Y-70119871D01*
X167259944Y-70161180D01*
X167374881Y-70293021D01*
X167375685Y-70310371D01*
X167489277Y-70461610D01*
X167756685Y-70500871D01*
X168059163Y-70444074D01*
X168137685Y-70310371D01*
X168031805Y-70155228D01*
X167883685Y-70119871D01*
X167671428Y-70030068D01*
X167629685Y-69865871D01*
X167576500Y-69659500D01*
X167502685Y-69611871D01*
X167390013Y-69509006D01*
X167375685Y-69421371D01*
X167444261Y-69252363D01*
X167502685Y-69230871D01*
X167605870Y-69124502D01*
X167629685Y-68976871D01*
X167592291Y-68818141D01*
X167437022Y-68743082D01*
X167099240Y-68722967D01*
X167058185Y-68722871D01*
X166681501Y-68697940D01*
X166509922Y-68613169D01*
X166486685Y-68532371D01*
X166528652Y-68443536D01*
X166682406Y-68386503D01*
X166989725Y-68355004D01*
X167492386Y-68342772D01*
X167756685Y-68341871D01*
X168348912Y-68348166D01*
G36*
X152740196Y-68269352D02*
G01*
X153007847Y-68300255D01*
X153130262Y-68370726D01*
X153161752Y-68496281D01*
X153162000Y-68516500D01*
X153251802Y-68728756D01*
X153416000Y-68770500D01*
X153622370Y-68823684D01*
X153670000Y-68897500D01*
X153563631Y-69000685D01*
X153416000Y-69024500D01*
X153203743Y-69114302D01*
X153162000Y-69278500D01*
X153082590Y-69485356D01*
X152971500Y-69532500D01*
X152816357Y-69638379D01*
X152781000Y-69786500D01*
X152691197Y-69998756D01*
X152527000Y-70040500D01*
X152320143Y-70119909D01*
X152273000Y-70231000D01*
X152335709Y-70345882D01*
X152555754Y-70405029D01*
X152971500Y-70421500D01*
X153392737Y-70438602D01*
X153609607Y-70498614D01*
X153670000Y-70612000D01*
X153629117Y-70698992D01*
X153479136Y-70755583D01*
X153179052Y-70787631D01*
X152687863Y-70800992D01*
X152336500Y-70802500D01*
X151727550Y-70796659D01*
X151331412Y-70775233D01*
X151107081Y-70732364D01*
X151013554Y-70662194D01*
X151003000Y-70612000D01*
X151104659Y-70443627D01*
X151193500Y-70421500D01*
X151361872Y-70319840D01*
X151384000Y-70231000D01*
X151489879Y-70075857D01*
X151638000Y-70040500D01*
X151850256Y-69950697D01*
X151892000Y-69786500D01*
X151971409Y-69579643D01*
X152082500Y-69532500D01*
X152237642Y-69426620D01*
X152273000Y-69278500D01*
X152362802Y-69066243D01*
X152527000Y-69024500D01*
X152733856Y-68945090D01*
X152781000Y-68834000D01*
X152684610Y-68693102D01*
X152376983Y-68643844D01*
X152336500Y-68643500D01*
X152007740Y-68684809D01*
X151892803Y-68816650D01*
X151892000Y-68834000D01*
X151795610Y-68974897D01*
X151487983Y-69024155D01*
X151447500Y-69024500D01*
X151153698Y-68992601D01*
X151006839Y-68914167D01*
X151003000Y-68897500D01*
X151105864Y-68784828D01*
X151193500Y-68770500D01*
X151348642Y-68664620D01*
X151384000Y-68516500D01*
X151407984Y-68383015D01*
X151516144Y-68306543D01*
X151762791Y-68271567D01*
X152202235Y-68262570D01*
X152273000Y-68262500D01*
X152740196Y-68269352D01*
G37*
X152740196Y-68269352D02*
X153007847Y-68300255D01*
X153130262Y-68370726D01*
X153161752Y-68496281D01*
X153162000Y-68516500D01*
X153251802Y-68728756D01*
X153416000Y-68770500D01*
X153622370Y-68823684D01*
X153670000Y-68897500D01*
X153563631Y-69000685D01*
X153416000Y-69024500D01*
X153203743Y-69114302D01*
X153162000Y-69278500D01*
X153082590Y-69485356D01*
X152971500Y-69532500D01*
X152816357Y-69638379D01*
X152781000Y-69786500D01*
X152691197Y-69998756D01*
X152527000Y-70040500D01*
X152320143Y-70119909D01*
X152273000Y-70231000D01*
X152335709Y-70345882D01*
X152555754Y-70405029D01*
X152971500Y-70421500D01*
X153392737Y-70438602D01*
X153609607Y-70498614D01*
X153670000Y-70612000D01*
X153629117Y-70698992D01*
X153479136Y-70755583D01*
X153179052Y-70787631D01*
X152687863Y-70800992D01*
X152336500Y-70802500D01*
X151727550Y-70796659D01*
X151331412Y-70775233D01*
X151107081Y-70732364D01*
X151013554Y-70662194D01*
X151003000Y-70612000D01*
X151104659Y-70443627D01*
X151193500Y-70421500D01*
X151361872Y-70319840D01*
X151384000Y-70231000D01*
X151489879Y-70075857D01*
X151638000Y-70040500D01*
X151850256Y-69950697D01*
X151892000Y-69786500D01*
X151971409Y-69579643D01*
X152082500Y-69532500D01*
X152237642Y-69426620D01*
X152273000Y-69278500D01*
X152362802Y-69066243D01*
X152527000Y-69024500D01*
X152733856Y-68945090D01*
X152781000Y-68834000D01*
X152684610Y-68693102D01*
X152376983Y-68643844D01*
X152336500Y-68643500D01*
X152007740Y-68684809D01*
X151892803Y-68816650D01*
X151892000Y-68834000D01*
X151795610Y-68974897D01*
X151487983Y-69024155D01*
X151447500Y-69024500D01*
X151153698Y-68992601D01*
X151006839Y-68914167D01*
X151003000Y-68897500D01*
X151105864Y-68784828D01*
X151193500Y-68770500D01*
X151348642Y-68664620D01*
X151384000Y-68516500D01*
X151407984Y-68383015D01*
X151516144Y-68306543D01*
X151762791Y-68271567D01*
X152202235Y-68262570D01*
X152273000Y-68262500D01*
X152740196Y-68269352D01*
G36*
X138314259Y-114468309D02*
G01*
X138429196Y-114600150D01*
X138430000Y-114617500D01*
X138328340Y-114785872D01*
X138239500Y-114808000D01*
X138084357Y-114913879D01*
X138049000Y-115062000D01*
X138108873Y-115247920D01*
X138331649Y-115313379D01*
X138430000Y-115316000D01*
X138732478Y-115372796D01*
X138811000Y-115506500D01*
X138697407Y-115657739D01*
X138430000Y-115697000D01*
X138151119Y-115736915D01*
X138052930Y-115885432D01*
X138049000Y-115951000D01*
X138128409Y-116157856D01*
X138239500Y-116205000D01*
X138407872Y-116306659D01*
X138430000Y-116395500D01*
X138333610Y-116536397D01*
X138025983Y-116585655D01*
X137985500Y-116586000D01*
X137656740Y-116544690D01*
X137541803Y-116412849D01*
X137541000Y-116395500D01*
X137427407Y-116244260D01*
X137160000Y-116205000D01*
X136857521Y-116261796D01*
X136779000Y-116395500D01*
X136682610Y-116536397D01*
X136374983Y-116585655D01*
X136334500Y-116586000D01*
X136005740Y-116544690D01*
X135890803Y-116412849D01*
X135890000Y-116395500D01*
X135991659Y-116227127D01*
X136080500Y-116205000D01*
X136235642Y-116099120D01*
X136271000Y-115951000D01*
X136211126Y-115765079D01*
X135988350Y-115699620D01*
X135890000Y-115697000D01*
X135587521Y-115640203D01*
X135509000Y-115506500D01*
X135622592Y-115355260D01*
X135890000Y-115316000D01*
X136168880Y-115276084D01*
X136267069Y-115127567D01*
X136271000Y-115062000D01*
X136191590Y-114855143D01*
X136080500Y-114808000D01*
X135912127Y-114706340D01*
X135890000Y-114617500D01*
X135986389Y-114476602D01*
X136294016Y-114427344D01*
X136334500Y-114427000D01*
X136640858Y-114455412D01*
X136764470Y-114566333D01*
X136779000Y-114681000D01*
X136838873Y-114866920D01*
X137061649Y-114932379D01*
X137160000Y-114935000D01*
X137438880Y-114895084D01*
X137537069Y-114746567D01*
X137541000Y-114681000D01*
X137590722Y-114505937D01*
X137784833Y-114435302D01*
X137985500Y-114427000D01*
X138314259Y-114468309D01*
G37*
X138314259Y-114468309D02*
X138429196Y-114600150D01*
X138430000Y-114617500D01*
X138328340Y-114785872D01*
X138239500Y-114808000D01*
X138084357Y-114913879D01*
X138049000Y-115062000D01*
X138108873Y-115247920D01*
X138331649Y-115313379D01*
X138430000Y-115316000D01*
X138732478Y-115372796D01*
X138811000Y-115506500D01*
X138697407Y-115657739D01*
X138430000Y-115697000D01*
X138151119Y-115736915D01*
X138052930Y-115885432D01*
X138049000Y-115951000D01*
X138128409Y-116157856D01*
X138239500Y-116205000D01*
X138407872Y-116306659D01*
X138430000Y-116395500D01*
X138333610Y-116536397D01*
X138025983Y-116585655D01*
X137985500Y-116586000D01*
X137656740Y-116544690D01*
X137541803Y-116412849D01*
X137541000Y-116395500D01*
X137427407Y-116244260D01*
X137160000Y-116205000D01*
X136857521Y-116261796D01*
X136779000Y-116395500D01*
X136682610Y-116536397D01*
X136374983Y-116585655D01*
X136334500Y-116586000D01*
X136005740Y-116544690D01*
X135890803Y-116412849D01*
X135890000Y-116395500D01*
X135991659Y-116227127D01*
X136080500Y-116205000D01*
X136235642Y-116099120D01*
X136271000Y-115951000D01*
X136211126Y-115765079D01*
X135988350Y-115699620D01*
X135890000Y-115697000D01*
X135587521Y-115640203D01*
X135509000Y-115506500D01*
X135622592Y-115355260D01*
X135890000Y-115316000D01*
X136168880Y-115276084D01*
X136267069Y-115127567D01*
X136271000Y-115062000D01*
X136191590Y-114855143D01*
X136080500Y-114808000D01*
X135912127Y-114706340D01*
X135890000Y-114617500D01*
X135986389Y-114476602D01*
X136294016Y-114427344D01*
X136334500Y-114427000D01*
X136640858Y-114455412D01*
X136764470Y-114566333D01*
X136779000Y-114681000D01*
X136838873Y-114866920D01*
X137061649Y-114932379D01*
X137160000Y-114935000D01*
X137438880Y-114895084D01*
X137537069Y-114746567D01*
X137541000Y-114681000D01*
X137590722Y-114505937D01*
X137784833Y-114435302D01*
X137985500Y-114427000D01*
X138314259Y-114468309D01*
G36*
X152992227Y-83572295D02*
G01*
X153372449Y-83595358D01*
X153582444Y-83641456D01*
X153663989Y-83716855D01*
X153670000Y-83756500D01*
X153614889Y-83863354D01*
X153417966Y-83922744D01*
X153031847Y-83945605D01*
X152844500Y-83947000D01*
X152397752Y-83954916D01*
X152148680Y-83990178D01*
X152041157Y-84070055D01*
X152019000Y-84201000D01*
X152056393Y-84359729D01*
X152211662Y-84434788D01*
X152549444Y-84454903D01*
X152590500Y-84455000D01*
X152967183Y-84479930D01*
X153138762Y-84564701D01*
X153162000Y-84645500D01*
X153267879Y-84800642D01*
X153416000Y-84836000D01*
X153591062Y-84885722D01*
X153661697Y-85079833D01*
X153670000Y-85280500D01*
X153641587Y-85586858D01*
X153530666Y-85710470D01*
X153416000Y-85725000D01*
X153209143Y-85804409D01*
X153162000Y-85915500D01*
X153106889Y-86022354D01*
X152909966Y-86081744D01*
X152523847Y-86104605D01*
X152336500Y-86106000D01*
X151873464Y-86093282D01*
X151616107Y-86047838D01*
X151517044Y-85958734D01*
X151511000Y-85915500D01*
X151409340Y-85747127D01*
X151320500Y-85725000D01*
X151152127Y-85623340D01*
X151130000Y-85534500D01*
X151226389Y-85393602D01*
X151534016Y-85344344D01*
X151574500Y-85344000D01*
X151903259Y-85385309D01*
X152018196Y-85517150D01*
X152019000Y-85534500D01*
X152132592Y-85685739D01*
X152400000Y-85725000D01*
X152655979Y-85700220D01*
X152760971Y-85574535D01*
X152781000Y-85280500D01*
X152781000Y-84836000D01*
X151130000Y-84836000D01*
X151130000Y-83566000D01*
X152400000Y-83566000D01*
X152992227Y-83572295D01*
G37*
X152992227Y-83572295D02*
X153372449Y-83595358D01*
X153582444Y-83641456D01*
X153663989Y-83716855D01*
X153670000Y-83756500D01*
X153614889Y-83863354D01*
X153417966Y-83922744D01*
X153031847Y-83945605D01*
X152844500Y-83947000D01*
X152397752Y-83954916D01*
X152148680Y-83990178D01*
X152041157Y-84070055D01*
X152019000Y-84201000D01*
X152056393Y-84359729D01*
X152211662Y-84434788D01*
X152549444Y-84454903D01*
X152590500Y-84455000D01*
X152967183Y-84479930D01*
X153138762Y-84564701D01*
X153162000Y-84645500D01*
X153267879Y-84800642D01*
X153416000Y-84836000D01*
X153591062Y-84885722D01*
X153661697Y-85079833D01*
X153670000Y-85280500D01*
X153641587Y-85586858D01*
X153530666Y-85710470D01*
X153416000Y-85725000D01*
X153209143Y-85804409D01*
X153162000Y-85915500D01*
X153106889Y-86022354D01*
X152909966Y-86081744D01*
X152523847Y-86104605D01*
X152336500Y-86106000D01*
X151873464Y-86093282D01*
X151616107Y-86047838D01*
X151517044Y-85958734D01*
X151511000Y-85915500D01*
X151409340Y-85747127D01*
X151320500Y-85725000D01*
X151152127Y-85623340D01*
X151130000Y-85534500D01*
X151226389Y-85393602D01*
X151534016Y-85344344D01*
X151574500Y-85344000D01*
X151903259Y-85385309D01*
X152018196Y-85517150D01*
X152019000Y-85534500D01*
X152132592Y-85685739D01*
X152400000Y-85725000D01*
X152655979Y-85700220D01*
X152760971Y-85574535D01*
X152781000Y-85280500D01*
X152781000Y-84836000D01*
X151130000Y-84836000D01*
X151130000Y-83566000D01*
X152400000Y-83566000D01*
X152992227Y-83572295D01*
%TD*%
M02*
